<mxfile host="65bd71144e">
    <diagram id="tHubJnfI6fGM3P_nhkWW" name="Page-1">
        <mxGraphModel dx="3494" dy="1024" grid="1" gridSize="10" guides="1" tooltips="1" connect="1" arrows="1" fold="1" page="1" pageScale="1" pageWidth="850" pageHeight="1100" math="0" shadow="0">
            <root>
                <mxCell id="0"/>
                <mxCell id="1" parent="0"/>
                <mxCell id="12" value="" style="shape=stencil(lVfLbhsxDPyavRISKepxTtP/CBCnNurageP08felu9DGor1T5LZec5bkkBxKkzy8bZ9eNxOHt/Pp+H3za/d83k7yZWLeHbab0+5sT5M8TvLwcjxtvp2O74fn+ffr08Xy8vTj+PPyhd8zrlGSC4jDn/lFJC7/Xnydzfe7w5U5Byp1tGeSAACVtI2ARlnWAZJJ0wDgQgwASSnkASBKousAFSpjzikR53VAjtTGHJQpgKSzscojoFADgGrfG5POmQoAtERl9FAE0toyVR0BSoo8WOEcwN4wAFhdxxwsK2nrgBhCZ3FBZMoAYS5cM7VArcIkUhkBiWqENLneaIUKGAj7no4DcQkSNFNjYvaABpKu9vcNIIAcqvVaHAFLVvcBuddpAQgJoLWqn1ELUkBvGMDJTE3UAK0WUhhDqqY8iKVCaQypmGwgliziMaSSKKPWiL7SNnJINozEph6AtNLKFKsPqSTY3kF90gl5sKRHrayRApKN1su0AJQYhdT6fF21huIR9e0tuA6FxM10huLa1FfagozIg/T5WnbWh1TdRwTKxbtISMk+Cyim325GbVOjHSRU3YwGqGSqHmDtinhNpQewLC2FpZabUuuS1X1A8JVLJujAA3NfUQsgQFqjUhxpFcYheREwl0iXuB+nFvvYPd4PyHNqx6UARCZ42YsZbunQx32xt9MQmIWbFR0DXKChH72WJoILOnoBU3hksGPSyKZ0xVwplgsmwmZIXrqMXJBq9jqENcKISM6ckUJ87mD+X3N7+LgDvOz2+/kKcf2/vzPYq/m+IY9/AQ==);lineShape=1;" vertex="1" parent="1">
                    <mxGeometry x="-269.6842613157079" y="15.505398022426334" width="32.05248683140826" height="17.411852522710433" as="geometry"/>
                </mxCell>
                <mxCell id="13" value="" style="shape=stencil(hVbLctswDPwaXTF4kCB5TtP/yEzsWFPXzjhum/x94GjkGLSE3igRS7wWSw7y8LZ7et0MjG/n0/HX5t/4fN4N8mNgHg+7zWk822qQx0EetsfT5uV0/HN4nr5fny6Wl9Xv49/LCe8TTiHlC4jxY/qRBEr9+vNzst+Phxt7FqjVAUihlnWACKD3UKDhun1KUJuzZ8AgoFyB/PkIGJxfCFLyCcwOF+2rgJQu/pzX7RtDwb5AEiTQah+QeUi6DiC8ZjgjpIGmwEUBJgfIBCoBAEHUAZSBgiQqztvXKmEI0AKFPcAaT0GfE7DnRcmQA+IlAvFVKhw2QixiXyU1D9EsUE/VnOfpWO6cUceHlK5ZrQHEexCbhqDTFlLupgfnI5YBxhw/PoRh0gmhiA8JlIO+2banEgIH82PEIOzsa3B+aTOTr00ADmhRG7QuYQGKhkeheQGwjHNQ0tZ6gBiPIg8V1BMv2XREANNUX1NTwUhUFwGR6tmodEw1HYw8qAJ7ATANyREvTPY8U1sOy5qs0T4kq1ukGMZU8hJzo5xrCtC7aIDR9NAdQIECYTWuqRf7RqEClF5Xq8lkcDlwP//FtD9IGfvbUyuUYHzurh7FmVor8ZDP126eHNgvvkeCeP7/frHF9+NnO+7309vpdr9/LNmv6aElj58=);lineShape=1;" vertex="1" parent="1">
                    <mxGeometry x="69.28782849380332" y="20.606351210837147" width="4.843722307289227" height="5.316117655856715" as="geometry"/>
                </mxCell>
                <mxCell id="14" value="" style="shape=stencil(lVfLctswDPwaXTEkSILkOU3/IzNxak1dO+M4bfP3gatQESF5M70pDJZ4LRb0EO5e9g/Pu4Hdy+V8+rn7Mz5e9kP4NjCPx/3uPF70awj3Q7h7Op13P86n1+Pj9Pfzw9Xy+vXr9Pt6w98Jl5iCu6LYvX2cUOJ/B98n+8N4XNpncqGz90K53AZIJBc7AEu7YhOQI1XfAUKFIRVH3HuIGhLwUNRD6nMOVIGHyjYHESoeABI57gA5UxYAqJT7kKqnlCEglR6gOSAPQtyX9fNku0qVau0BhVwFgDniGVApOtBpT6Uvq3eOHECIIpx1UUCrld7J2yQqyDquuFEzBeBByVlNSIkYdC7kFYAh+9SDNyE5SgnkENq8NEApsBFJ75MeICSg1UnZ16tASSSgrKJMKBbAgK65UqgrD0BnNEV2NocPet2cUWerJKBKSjVXbB8yqNKCzYsh9Wiqc8txQaYIXCh1woquUCzjxpA6UKacyIsFFCT4CljNaAVJJ00xWUAAjYiZmG3SaIKib1xbaB/SmbAikzYuoxktK3X9ApCaqszs46botwBmB+VAAXlQavSdFiYGHnQvG52JhTJoHK/UWAudgAp4XVE9vbk0n9tcsjLjC9xZq3mTtsNumfdNw8Pmm+rO6bYtv806u3oYamppb5Y51ybKN2vZt1fFCNW+2meVI4/ZwNYejsxq0+r9IF2dmBht/KiagURsfUD8KhJFTPlRfXQHWjKTA9T874fzl/b68flKfxoPh+mRv/y/fdXr0fSLINy/Aw==);lineShape=1;" vertex="1" parent="1">
                    <mxGeometry x="-224.5347961601119" y="43.45018927005208" width="8.163640399672204" height="34.37331323457238" as="geometry"/>
                </mxCell>
                <mxCell id="15" value="" style="shape=stencil(jVfbbtswDP0avxKiqOtz1/1HgaaLsSwp0uz296NhyIuo+GxAHxybpxTJc0hqkqeP48v7YfLu43a9fD38nF9vx0k+Td7P5+PhOt/0aZLnSZ7eLtfDl+vl+/l1/f3+slguT98uP5b/8GvFcaISF5R3v9c3mZZf+vd5tT/N5zt7H6j6zl6oun37kEh6e0cO2KdKsbcPVMB5iqPU23MmThCQQwdQD1z2AbmQlz5ipoAAgYJJUaEIjqQxZ+5j1ixXAFAPPSAKBRR0INdXOWqWQBlqotpnKXnKeR/AbqvrRiQhZuCCqZYOUJgyOJMWgvtClEqCuORa2hugRgogr0EPUHtAbcV/HLVQdBaA5KBEYGvvAJeCVU/NFAM4EEkZIo779kPRqpADRXPDeRzMqCfp4y0FqjNS7itWEnlwfnaNARtApQMcsOYjW0AAJdaQs7eAjDpktJwokQrghK9DknCRtf/YLGkHASwST9HQwpMHalYPyQghNJ97MbDxkJq897JkmVSg+rUOo3QykkIk32fprkftkYkHNQfgQitdbQyMuETe2SQxUI9rRbpTZwHn0fBMTrlleadbWC0UPMwH+4SHs2WRKkFAd9F2agahai2iAKrtXwsAkaK0wfqfAMnkjNakDYnHOVI1mymlKwoIOg1VzokcOFLexuQG4EasxzQtjcXbMM+UUJ2FfJ+lpG9Qg9Gu2h8p6lKFGsy45kW4VAXdV/oNRn2iyRC93cKWTRV4UIAhn+7GEag5aF37tCp/PeLSoH/14NH0rLbSutw61GC06bIFBFCHJSfZAiICMLkBIFhxkmzQaFjpZ9PFtJNXtIRtVNsAAbZJ9vYOs+xxaLnVNaYnn75BjVs/h34c6myBQcswDuHkWSI0jQ9e2x5e81An/ue1UB/+3inf5tNpvZLef7d3UH213l/l+Q8=);lineShape=1;" vertex="1" parent="1">
                    <mxGeometry x="-184.44485357280564" y="47.5384761388641" width="18.122057076106103" height="37.96922761463202" as="geometry"/>
                </mxCell>
                <mxCell id="16" value="" style="shape=stencil(rVfLctswDPwaXTEEwec5Tf8jM3FqTV0747ht8veFqqEsQtH20pssY0UC2F2Cgzy8HZ9eD4N3b7fr5fvh9/h8Ow7yZfB+PB8P1/GmT4M8DvLwcrkevl0vP8/P8+/Xpylyevpx+TV94X3GBU+1TijvPuY3+iL/ffF1jj+N51V8DFR9F89C2e8DUiHuAT5QCvuAXChIB5BA3u0DSqKcOoAmlUEOVai4DhAVEAGgtO81QArkwArsHLl+iRxh1jVR6fugaUkFWUeS2AFqhJ3TLYvp3H2XnyK0jIn7JRKskxcKfZ2qrlD2AULSx+dMBVTJUQ22qgFsaNsF3GhHqa9p1i8ISJhKX9KUKSbQA/J9k1NsJd7hESUDCJAVHNv6a6aCFTRl2awQgZ4n9RabQwE5+9xouSpSBbTzlarYLgTQBdEcDC2EGEhBV+C+SsqjgvqcKJotqa0hJSjPDPMqFaAELuSM/h2UgtouFwuooHHFalPjGcQHG68pI2IwxT6BvLB9R2u8aVoCTXPkTc9wvmy9Qk8iAQWNTSdLfCIG+6+NACvhZEBrbZg5OSdpAtIpJay76EGI7dfoQKUpiNZ5k3Nuyvg/gFA2jl3wuJBs0kUoAuFktgaWsacqwG8anUGjJ7vqtxTV5dFJK204WAaSCieYqErp7SVg8YdsLVKYMrLI1JizTGEOVkm5ZAC8CPBzgOrN+BG2VLbzSyaPPJsp9G2L7SDac2Cjz9AMZy9hY/Fq4SheJ4/ejxiSwi+TTYtfzva9Q83sx0GlyWaWwsOdLO52j/dAmLK08x5f0PHBtv4MR68gdlbDF5F/X1z04X7reRlPp/nStP7f3pL01XzDksc/);lineShape=1;" vertex="1" parent="1">
                    <mxGeometry x="-158.91210201057493" y="45.817316592808425" width="18.45326047637309" height="33.009915811445126" as="geometry"/>
                </mxCell>
                <mxCell id="17" value="" style="shape=stencil(lVbLbttADPwaXYl9L3lO0/8IEKcW6tqB477+vlSFVb2iNIVvsjyz4nLIIYf49HF8eT8MwX3crpevh5/j6+04xE9DCOP5eLiON30a4vMQn94u18OX6+X7+XX+/f4yIaenb5cf0wm/Zl6h4iZScL/nFyEQ179vPs/403i+w/tE4juCL5TSPiEkKqkjCMW4j4+Jau3w+gLgk36e+xsQ8z4+M5XQX4Cq7OOro9zjHUnYx4uj6ld45wA+UlnHn0D8Uiiu81mAYMKU+ng0IEYBLec1wiQJuLF3yw0XyYQExaQlkDtC0bLKgFBbyI1QmRxQTTLl/tasBCRbWMumwlSQJhZDSJRBoXIhXhEcJRASJ4p95bFvR2wTtHKkT6u09t4m+BZxI+RMrjxCiAK7U0PKK3/J5IFw9tI+kIB+sGnVExDe6OYooH4zheHJAxFs5RXoL7a01VBRu9nmUQeAlr3Rn4kYtZuxgOLII88wJlMTOZQl42KsdYFCMjapwqA5Yn1Y+xP63qOEaTL0zaBBMpB6Gj2G4MCldbblur60B8M2Zoq90uIpgJC0OJ2YLwAH0OIUMVlCDmDGP65W08535bud1ebrywcqXABis4c7EQrIqW/2s1RqbRvBJn5ZD5ZWEFgVaj99O1c1GBC/aeaiEYL86Pk9Pqsnw/O5L9KkgxDgfbOSZSQUqFeksNpHBA5aLa8+n6p4AHo9utH+H68P/9bnt/F0mrfv+//X67a+mlf1+PwH);lineShape=1;" vertex="1" parent="1">
                    <mxGeometry x="-155.82448013734597" y="42.08566785729147" width="29.183122231126617" height="5.72621534424502" as="geometry"/>
                </mxCell>
                <mxCell id="18" value="" style="shape=stencil(lVfLctswDPwaXTF8kzin6X9kJk6tqWtnHKePvy9UlaoBSdvJTZaxIhdYLMEhPrwdn14PQ3Bvt+vl6+HH+Hw7DvHTEMJ4Ph6u402ehvg4xIeXy/Xw5Xp5Pz/Pv1+fpsjp6dvl+/SFnzPOOwpxQgX3a37jyLk/Lz7P8afxfBcfPPli4lPbj4+NfFDxnkLZj8+JclXxgZLfjy9Mwan4SIX341vo9Hp8ppr24zmR1/HeU8oAwJQ1YMooWME7Z7cUHbUAlqjEumZJSIMkcaHgNWnXd7nHOjYNqFQQIFDWsigJp0koatLVEQMOrVHVwmieCshSq9T0lpqUBkhV/i6aNHuKSBsifa1tjhQxaWcAmSJSa6NsAJUC2FIr5DRplrxF2A9sVljSsAmobEnfCXgbkbeWAB5QA1W2JFBTi3RisWnyAFAaNV4VAqSprAsRKaAVmKLWt4gpoLyKseaVXMGWalzpu/U23wZITkwHVUqgDs1R9RYQESBZsxcA4x51K9IO96g3PSqbRF7pVnUIVCoEBLNCgitMW9JuLHaL5C09yroOIm+kJUmrtQ1pQtTUrpv1HYABaZGGtQ2mBnxGxGfcmHHhRN7OpLXCg/fDgFKtMUkakFdKi1ZzZgkHlCXf3X0BBGiuYmR/k7gcoxnXIdlpJi1OtQ0olnQsvcv3AKw5yADEqHDFis+3PqJtp3Vx0gWQqYEs5WWgWgCpD6XbM2XpA9UCwHXw0i5ardMQBzg0O83ImIwoFCsMic9gEJDxShsrwxqshivuZ8U2XQqmEcgBDbmVqqmBzaym1UwZft0qGh6DMgTq0kY4PAd7G/Edv60cat6Eo6/L1UBbkAx8aNAhtlcjPPh/7Or1/3h5+HfPexlPp/maeP+/vRfKq/lOGR9/Aw==);lineShape=1;" vertex="1" parent="1">
                    <mxGeometry x="-115.02596781358034" y="39.38167668862104" width="23.689356194676748" height="40.97830044795762" as="geometry"/>
                </mxCell>
                <mxCell id="19" value="" style="shape=stencil(rVfZbttADPwavRK75J7PafofAeLURl07cJwef1+qwqomXU1RoG+yzBGvGXJ3koe3/dPrbuLwdr2cP+++HZ6v+0k+TMyH0353OVz1aZLHSR5ezpfdp8v5/fS8/H59mi3npy/nr/MXvi+4TNJmEIcfywsJ1OKvNx8X++PhdGMfC+VkAPqJXLYBLNSzBUTKfRsgkUo3gNiopG1AChSth1hJQA6pURcLKFRBSLkSFwvIlPI2oCRqtkpRKMs2oGoANqRGlbftO1Otxj5QCMA+Ubf2kQR0rRfqlhcaIEi4t9HTmwqhLvc+errSoowQ/0y8sGa4UrUPpmy6sLzITAkVVXkWbdJCDXStVwoWUBm3LfscaqOI+sDUHKDjugYqlkhKrQbU05pnXg3EIIemYrCtLoESkFsrlCz3VIBIPQoQyw1RMgFuKMAJWqdOxElHJwfGIXXvIVHB+gzWXmvUoD45e3ukNy1RdvFkkLBSO0afsKAE+pgPa0kZ6lMB3QK0aYLl6Wak0oKxB1dTJR4j8VQqTjxhlGFLntUBdOyhtonfhrM8/yeg1lHEdTHoKAdlLZnYepj1BzzocnMhqcIT2CXprg8qJwYedEG7Q4YCMmC38PjeClCfgBrK/mrJp3MwoW1S/SGjM8yhjAG06ifgjZsp2iLNfAeCE6q2CzN7gaJ5NHW1F7gY4lh9N13uIP67PdICdaCdMAbuSmwZy3HD3m1CPTMV0DGVurXPOgKhfb2bLgXkG/0BJsWxejfqX9zBuQyWb/TXHcCU5Ki//3ow/7u9Pvy+BbwcjsflEnH7v7816KvlxiGPPwE=);lineShape=1;" vertex="1" parent="1">
                    <mxGeometry x="-109.31336448272327" y="58.42343007531997" width="35.38660565747455" height="6.079916526037323" as="geometry"/>
                </mxCell>
                <mxCell id="20" value="" style="shape=stencil(lVjLctswDPwaXTEkwec5Tf8jM3FqT1074zh9/H3BaqQaYLQZ32wJK2IBAlhy4oe3/dPrbgru7Xo5f9/9Ojxf9xN/mUI4nPa7y+EqvyZ+nPjh5XzZfbuc30/P8//Xp27Zf/04/+xf+D3jmNh3UHB/5geOnPv34Otsfjycbsy9p5SNfWZgnyk1Y1+AffDEydi3BOwTNe2POAj8Z3FX82VyFdhHKlHZJ6rAH67ETvsjhNs2IAo/HSBfqHgACNQ0A3EpgZDGSE6vIKQS4CCArAGRqWYASOR0EhKTRxzSEvQFkAP5Al1qOg3FYQ6ZfFCA6igCgHicigYk6FKqNg81UwZRyvI9vTVqoQr2avFUzQqVUgCA9fUNoAFAjRR1WGsjBxLXMpViV6hghVYGDg1ujVaX/nADaCCsrS15XQDNUwAlLYCqt3cLMErerT1xRUhbQKybDZMELmKfgmYtcXCgqOV1NAD5BNhMkoiYLaCC/d099hbQECB9AICkpQ1FSzqiVLMtOWHlUB6GohYnGUVJALox9ScYYF3yVD4hbbarI473hFUKgtHWkMQNXQDNrL41hqJGQ7enaWgbGddDiJY0moq9gEwewiIM7qhR2GjGNpCWXG42GkOiwBnUW5lOhDyBJbfOg5sKQlqgt2OjfhzWb/cj+owYncJTaGxNGZSEzLk8NI4C4pSjFaEdABpHKtQGDgEENvkhE2VRIFt6I5hcp6W7fQzwww73WInK3NSNQzKDaojFY71CKVB7C8C4JCLLI5eKVWUi41BYO0BHKcVFOm4Bks6DSMeASOelc61it8C5KFrYCJQQMcBb0nLGycAlkees26sPVMAKcoQxclpOXUh/iwOmRAXASNEMpzg5pVQUVntK7F8ACwRKgz0jBmNXwoytlBZ7VDxu0AHkQHHKttejYVWxG+Zm9GQoYwZzOQ2Bbjc4w7D9DlQDRZDZMZLwmDQkysEzz7APHDxT3XkZ8am5/Ph/7/FyOB7na5Pb9/aeRB7Ndyz8+Bc=);lineShape=1;" vertex="1" parent="1">
                    <mxGeometry x="-236.4389048930136" y="131.55206013747693" width="37.42328353921175" height="21.65828198333361" as="geometry"/>
                </mxCell>
                <mxCell id="21" value="" style="shape=stencil(lVjZctswDPwavWJA8H5O0//ITJzaU9fOOO7194XqkhahaDt508EVCWCxADT5h7f90+tuEn67Xs5fdz8Pz9f95D9NIofTfnc5XPVq8o+Tf3g5X3ZfLufvp+fb/evTvHK++nb+MX/h1w3nmEqdUcK//z2hmv4++HxbfzyclusLZT+u98RlGyCBkhsA+sRXACjE44m8o+K3Afo6xhFQqWYACCR5AIRC8+0mIFEZbYiRJAJApRgGQHLkgZeCJykjIFIARkemagDqN2B0LNaGlKHR+r1oAAFGOkfikRqJyYVtQImURkDM5AA1ip44jTt48g4AVlzKjhxwa9UTjztkdQM4UvXkZAAUJTwwutYW1wbQT6B8cMzEPCICVWREpTTyuyYKyIhCwQAyVeBX/V40RlRiZLVSJ1lABjpTXQts15m7H7ZiHfNqC+CmkhoVOqBA3dDISrBuKiCFipLD2UAgGShCxewQWtpu7WAj15Vky4ZqjFbBR0mam6x0AGPAmn1MHri1CoW4AiD2RZtzCshAjjVMga3RCQGUzeZIghOitteLwAUMKKN+q1UVBG7mpsmg3GK/ZbQYG7R2oyOtqaFlDB1JVvlQoQ1KjbBSgYIyLtnuRAGCU7SwNVoQW7v4LlK0IBs+CsipcbNXCFx4s6dsSgpTADbk3lv0oiXEINJZ88u0J9rEoSO5Vj8WDVBER8qWGhEXXo20OAtgVLPYZpweKWDy5VGXtCeD9UGFcTRaWyIPapa+ziYOWgAAW/UAPHopB8rArSG2hFwAPGpEe8ovGiCk3l7Lx8poB6ghtelcBwiUGcmti+yB06IICrvOC8W06yoCIHAi5MaMC65ZtTXUxFE1ZjeAHVy03YkkmEC1NcK9m4mwEWDbJAao9WzLlYfMXjWUWtwAidjOJgK7dJ0oR5F3sPl0dqDsE+n7wW2z4H05mpOCHQAYsjk2ob0vRz3nai7k1ua+ryjk2CyHfY6ddrgVho1BwUqog63gh0f//67Xi/t/hpfD8Xj7TbF8b/9L6KPbPw3/+Ac=);lineShape=1;" vertex="1" parent="1">
                    <mxGeometry x="-184.27067128723434" y="128.5266373179935" width="18.90371365862552" height="33.40364123171207" as="geometry"/>
                </mxCell>
                <mxCell id="22" value="" style="shape=stencil(lVjLctswDPwaXzEkQRLkOU3/IzNxak/TOOM4ffx9obq0BcjaNjdF4ZoEsAusuOG7t93D63aTwtvpePi6/bF/PO02/GmT0v5ltz3uT/q04fsN3z0djtsvx8P7y+P579eHaeX09O3wffqFn2dczZTyhErh1/lNjBT4z5vPZ8Dz/mUGKJFaMYBONa+vZ6Ha/AY5rQP093KwAKGAAMmHkIRyA4BAkgyAM2UQgwKyGEBOJCBJKZJUA9C0/Y3qNqBQsDsUTavALDWbpSpUIqhDoc4GIJkYBJ2Zgo2hBYqYGaFbgKYVAPTEYo/UNCoQg3SS7AEFpFUSNVvppm9QDI2KZbdU4gKyFKjYoCUOOt4unArO7lA7RbCDkq9YAWneuEM9uLTWRh0JiEnsDqIKAXVQQLXk00SXiiW6IF8CMcQFvaUM0d4GVJ8lLVxFOygRXOGEIghaq5T8BiirZeh3th7WmXrwKWooAIpuPQ9m3VyvPczKWXAfVjVbrSlPC+qqJDafStOOpEbF5rNWOEiUw+48ZUyitQJL8IAKDqQUcoNHT4QGj5K0Vg/oqGmn0UBnymQE4CGrmTID0j4vdBOpI9al0XFnNBI8C8UBCpay+GmrQkBjIWaKttKqTGRJYiCuCwAIuvrpPJ0IlIF9Q9WQGbS7j67XFHU3/RsloDW+jIyZXUD+ooSh9QvzIjHYoSbfXianCGJQ2oSl/pGeeZi02RBhEENPVB3zsM/rzY9a3TMiQQdVl4264dHZw+gQFzesigZTRJtocnb4uumqJal+iwjCzjJ6ygWQqSNrKH46a1iM7K34SqjTq2AH7ZS+achwZqvTedn4gKTlBr8LCIH9NC9KPnCg4J1nvpxwZb0jEjN0qtHPHvWJSD1lnHb2kZRQj1RXaiswfeeBnhfbmMaXDFFHFk8WX2G4R4qfVP+QQR2m97oecVQnq2vCERZM+eX8V4J2ShaDM0G7Nn1tWUbjOasjIzvG4fXqVex5sD2a1jsvQh10lek8tnE16EQ0XqfIPibKWj5d/js0LuprnMLUBlSwgRKiLW86UKvWT4oFIAIKffgu5T8A+nC9unnaPz+fb37m//dXPfrqfE3E978B);lineShape=1;" vertex="1" parent="1">
                    <mxGeometry x="-141.63254670894025" y="123.85708106458173" width="13.28494630423802" height="27.05414516203598" as="geometry"/>
                </mxCell>
                <mxCell id="23" value="" style="shape=stencil(lVhJchsxDHyNriiCILicHecfrrIcq+JYLlnO8vtgouJkiNG07ZsWNgliaTS4k5vXx7uX/S6G1/Pp+H3/63B/ftzJl12Mh+fH/elwtk87ud3JzcPxtP92Or4931++v9xNK6dPP44/px1+X3DKVGRCxfDn8gtXau3fL18vgKfD8wKQKqU6AhKlAgCBWhkBQoxOyFSKNymlbYAaIA2AWEmASdkMGC8tQhmcUAKF0SRpFBQAMuloUhJS3gbU6L1kjs5xG9Ai5TwAtFIEd2iVwhi4bHfI2wAOduswIEqjCBB2RGoDoBoAX6LyAGiFGLkpEI9+XVh5PdaFahyPsEMFJkce/VSVKsom7pGd3VTwCbyKRH3vhKJjrBvpOwk+mqTmOOQlpejSL1DFbpUxEBJJQVXbFdOYr5F7nW9VtTiiKRCQuLPEDLAtQBxEfOBYqVRQEbEz3cIkFDgOJGNBsNUcKIja/12sV7Beu88X6wWETTovLqhVQNQstat3aQP7B0rO/kQNMMaKYczFBdgTVvYHyJK8IiTKIF5Ccayz0ulmw/tpXJ4pAudYrozOVGpgd7tazG57GKvonVNgy7E23Mb9GzFK5uTtZ6aIDlAKriCFEnDQpCRWBamggm2/MF7BClJQT2Pf+a0ACmo4nckXBZYQt18p+ASEQvLCYrIHBCF6YrcLo/3DSt4pVDqhy5pFyFAErK24ADDkXPYpYQIBMK6JHNdaYZOx5eEzy7OnzwilrKTedRfrUXDNHr8/qnhdZadg9m9eAyacnMXLrQwrvqin89ab+PVi4VX7UsiIpnqd1pqUOypH7npy9pCdAEJsitVdIc0kfx2wZmmGQTYAj0HOoYdxC+Bmg5KwW1PPgrmLBQxYSdgi0Eu2n2sFOWO3itdaNn0g4p1SzwGEKtKLwU+BydoTKgbpymcR6QKSL2mXMnMumfwCyWczX1xpXqSqTWCK07w2SgAvxbm5LNpHQYDqBVruc+R1i6yfjfyOpycbG9z0xDC3jZHcGFs74V+PcuyPDR8UgNN05hqUtVAMaE6EmKZAk414F02aFw+MvudXKMLt0q6NTCofD4xOaFrYFHCSFU9wjYehSbrKozg/DG1NZ211Ahp6VX1qT8MFmv/Ep5JdGr1MqWVO9AD0mPDpt68PAOzD/6e2h8PT0+Wlbvm/f5qzny7PenL7Fw==);lineShape=1;" vertex="1" parent="1">
                    <mxGeometry x="-117.16716205496596" y="132.44775550158568" width="20.166293023383787" height="22.359630196297644" as="geometry"/>
                </mxCell>
                <mxCell id="24" value="" style="shape=stencil(lVdJcttADHwNr6gZALOdHecfrrIcqaJYLlnZfh8wLFIaUOzEN4qaJpZGA5hBHt73T2+7gcP75Xz6uvt5eL7sB/k0MB9e97vz4WJPgzwO8vByOu++nE/fX5+n329P48nx6dvpx/iFXxNOKtUyojj8nt5EoRT/vvk8AY6H1xsAN5LUAzKFDABC4383AE7zJzYBvUuSKBcAUGq1A2ghRS41Cn0MOVCs2wBzILUOUAI13gaohRh6QJ1t3gWk4tNahTRsA8yB2gNKo9gAwLKUfQxRAYCJY5+lSBG4lJWSdoAUZ5v301op9jGMTGMeQu+SCDXgkrAvb4mUBADMY+mr1RQCmDYL0rvEpgeQ1tHjngcreEVBZyrOQiQFMWggdhYCBWBB1QNimwv+PqAS15UFwIMVQm0+BgaaTkpFfJYgIJM6C4kKCNoAzQEqJSTRPPeIm1pikCWLIfZ6MO4LzlJwFtIsqfs8WNfos2TFkkH3VvHEGaACgKzavQFQEzCPXXmLtQVAnOVEnQWTFALw7MBCXKOCFMezIG8k2gDTssqSjRjE9Ni2XC0xbgLNNzITkCKmmVoPMIlm0FvVQiweUJCAApVV1yjAwocBNgKr694Z7hrNukZPnLZ5YtwHZO+SiRZlqVkSewHZEEMxxLA0umWMCpxZjf2grgXWd1mJuhXcXPNc/gvVAbfja5dYTCgJmHK82jaqUgb1GpVCv/WNCxCIOntBGBERnI++3VtpCJDoirZro9o473ZKUzTyp1AOjgPI8vg5px5YqevFxL6Ptgb1e8k/S8JJJ8wMbnWw6P1RIE1dZuWSIGJ0XlZdHvJrO4y6uQPH/3pDT5AvO5/c+gw7vJ3nPj91XuO2/HeqtwJiFMB6IkTKmIHgtjymgsbgR++G/wGwh+tV9OVwPE432dv//dXVXk3XXnn8Aw==);lineShape=1;" vertex="1" parent="1">
                    <mxGeometry x="-229.44186868047063" y="212.27517492211064" width="13.112364839215616" height="19.073577761243428" as="geometry"/>
                </mxCell>
                <mxCell id="25" value="" style="shape=stencil(lVjbUhsxDP2avGps+SY/U/ofzBBKpilhAvTy99U2YxPLu4fyFhadtXV0O9pduHl5vHve79i9vJ5P3/e/Dvevj7vwZcd8eHrcnw+v+msXbnfh5uF03n87n96e7i9/P98tlsuvH6efyxt+X3CJKccFxe7P5Yl35Pjfk68XwPHwdAUIlbwMgEK1bNtzJQ6DfSWXgH2mOL7fByrogEyBBwA7qhl44MmVESCUHACoh24ABKYUtgExUxlJDY4iOCEVEnOlTN5vA3KlOLLKnrhuA0SdrpYlBKgKGJ1mdToCQKbsR0ChAliq0uLaWQqNhnVApTSeEB0JyCUFmCtFofwBYHQ6ZRIQBwXIGIcc2ytWAd45y2vxlBFNGuoxmYrmI3KiWF4lUEChjuTHK4m0J+vJJBRHXivDplHYVpBekkEy5WBrVLMF8ap9TMyVKgVwQlwDZAEskWTTKHso132gMh2AGlmYOKqtZtdTiYqzFKHO6iik0T7D+pwStSbYMVyjr9trOQNCmcKURBlFrN2223cG1pOOcrX2HswFHXymCdc+KdYBGrFoARGdkCmJdZnRCTqY2HIaQaH52np0ByhtKIkUMGUFqszlSuaE0rrsltPZ+CCwDhZaTeBq420rcJUtAGmSYsfzYg8ySSkUax+QJGmd58rjCCvNVnIhDyttrswCCHLTfSLsjTqQTCEErAlta9Q6QPzn6f1YvNSpVXvY6T5rr7rDTa3CgUJOrnWSDtDmgeZZbEKlj9gKQ1ZiU5gdUCiAHFKBJ2MRCJMHQVBRUCZdgUasRIqjD6pcUCErwE3iCNWZ3ljGK6kw9oBWddrMkIhnZqlNa3WAh06Xvt10kZoaDZtxMEJboNOqjcz+otsFmptKYhxPCLhlq4Z1Y+CCQFWr+4vZ8RahjTakNAE87GCcWn31K2lLRaOz2NGpZwqoB89tp+sADwuoWpK0TaGtMFvl/8EGpm8bo6aDkUGYxTZ57+HQWf495lHGY7bYRZvhlNWp6cb3Y/kbY1s63u2RTtBSr9neBwydNAlybjJgnX8/lU1bJ9ftmcr4/gi1mq4sdneEvUvtjb8Zqk21N1OtwKGs9r4Y+wryX/01K5fA9SC7SczibxwyqSjY5rRrGXvvoH5P0Qp+BTDeGT/37es/APrj/VPbw+F4vHypu/6//TSnjy6f9cLtXw==);lineShape=1;" vertex="1" parent="1">
                    <mxGeometry x="-183.53568727843344" y="210.72013832700225" width="15.074128115573558" height="33.161931412212766" as="geometry"/>
                </mxCell>
                <mxCell id="26" value="" style="shape=stencil(lVfRchoxDPyae9XItmzLz2n6H5kJKUwpZAhpm7+PrvQI1h3L8HYcWksrrSTfkB7e1k+vqyHy2/Gw/7n6s3k+rof0bYhxs1uvDpujPQ3pcUgPL/vD6sdh/757Pv1+fRotx6df+9/jCX9PuBipxhEV+eP/G8rt34vvJ/vtZndhn5Ri7uxDpRKuA0RJQgdITBKvA7JQ7j2Yz1SuAwpTrh1A6nTEMiBTaB0gF0oI0DzpIhTqdUAN1FIHsDcoS1WIHaCSCgA0Sj0HLcSAQ2PS0gFaoJAAQKg0D1DAoZkQtAdEUgWARrmXhvmMwENgJuYekamAQpgLdiQqBUSikPZiaqY+RCJN/XIGWGlA5dRYqwcoaDnNFIsHNBCSBuKZB9TUpjVpnnRF+hbS7NNaGAASiQMUijcA4rVRgVzHkJw0EiUEMNIOECmAOaNMzUkjQA9WuOA42BFg9Jk0ZNajDLJkFH3hAmUgvlHeM9ICpDE2UPZprciDadOFZGm4MQVclgoVNMnqFMCF+BriYMqZ9QODSrd5pRtVJI1CtU/rxahaRlja08wFaLm7AbZHY7/ZVWFIman0gKqUgVylUenlWuO0lZYB1WvDVjGalSLTdD9valvtoBDCfqXIeQMs32fEzxk7gkFI0e4CPYdkpNHSUn/biAwbgv0azVPlr5i7lSiwoWfmCdaY/SUgTttrOTvEffoDHNqJmmsbqFBbGX2teJqXyy0zrdUv8wCoBos1OHsUTbCLarrn/OqFgMMPbarMRXaA0Oxv8dlEk/req/9te3v4+s542Wy3p8+Uy//9d4m9On3TpMdP);lineShape=1;" vertex="1" parent="1">
                    <mxGeometry x="-151.5074443134813" y="209.28464635789635" width="9.46691510195933" height="27.813856731564783" as="geometry"/>
                </mxCell>
                <mxCell id="27" value="" style="shape=stencil(lVjZbhsxDPwavxKiqPM5bf8jQJzGaBoHTnr9fbk1tDbp1RR52zjkiufMaHdy9/Z0/7rfxfD2fjp+2/86PLw/7eTTLsbDy9P+dHjXp5183snd4/G0/3o6/nh5OP/9er9YLk/fjz+XN/w++8VImRevGP6cf6kU2r8fvpztnw8vV/bcqVp7rhQFODR/gER8QqNajEMKlCoMqSTr0IlBSJGJq3HIlTIIKSYq1qEk6jx3kEDBVZXhCVKodutQifvcIWvfxDi0RAkkXdoo4upQqIS5Q20UonUQymXu0DRp24eaqSZwQqecbVkbSQQO62yujeuwrDVSc50OFDOoUiWxfUg8gtx2CNRt0iIwhyzU7HjHMlZq0yEVysE6MCUwGpIo2KQ5j+naXqBE0SbNOhrIgcdsXoGAgOGr1Ku3R23Q7co+oAQmKVIqPuMAahqouvcLBZCwTrZtAQdq0N4VtFFBGDkWcd0DuGhC1VYzwWCKf7tOINj77t8uYyW2Y4/Ui7OvYP61M82h9WjGjA7YF0dAcZQN3Loo8IF01b47QgtUUECdohvmFWW2Hep43+qgDUPjkAejXo0/whQNILoTMHt0j9TL/oKi5psaFYgoQtHZZ4iiTNFSDa8zPtkvdgXioQFm+2t5o5OgjlGwI11HfBP0ceiW4cZkv48JYs8HzSUPpFxrQx1QZOaxrpdkC7JXteV6FYc6mgmPaIu/bBASHop+tp4aEiPhIdTtOKicQvTSVVDakJRkAzihZ39CLhC1evddUGWBWJ7DDceo2kGw3rUodulbHci0XaY+SH3dggRpXhWgE0OaFoKVoiztcOiS1vY0pUGM6xENslMSr921N6gTettwfNZ5sPP2NschWte65jHBM/nkGqGdQ2iklw03Gw2inRLwjeplCF/Noq/ehxAEBK+2EmZA1T7WXnhcRibxZKd44xDNk3yDU5d58NUEIR2CKb2CdJVLnWIfimHSrWTfrmSLwGicfYFfBEWL2LDRhHFfnlF9YWcPb9M3V1e8kBflf7FHoLJc74uzb6A8C3X7+lRkzx5IdXZA/Et3HLRj7o6+/hnu7ke/l/zfXh8uH2ceD8/P52871//3H3P0p/OHIPn8Fw==);lineShape=1;" vertex="1" parent="1">
                    <mxGeometry x="-138.0516478751356" y="208.3617884793838" width="14.534842383671048" height="20.708278220509555" as="geometry"/>
                </mxCell>
                <mxCell id="28" value="" style="shape=stencil(lVfbchMxDP2afdXYlm1Zz6X8R2eakgwh6aQB2r9HISystOR0+uY4Otbt6LIT371sH543U0kv59Px6+bn7vG8nfjTVMrusN2cdmc7TXw/8d3T8bT5cjp+Pzxefz8/XCQvp2/HH5cXXq+4UiiPC6qktz831Mrvi89X+f3usJCviYSdfBZKfBvQGklxAM7UAKA3StkBTOeQ2wCpxOIALVMGGgZT6Q7QM9Sgiap3WgrUoC1GdWSqA/jQqagDaCUFGgyg3iRl4gwAg6R6gDndQJQsTQGQ5lT+H9BmIiwAiBpj0PAahtLoIKzGTY0aCjDJ8jB6dDqBPOggDj4UYhAl1VgPloeBNCiprwczEtWDmTQ8l1QoI6c7iS8ge6IqADD15gEK2XrJq9eQk10lkOpOWaIKBTYNS/XaJsANUWpp5TXInEhsGxZXxA0rOQ5kajCuBmghczwz/laNpsCNAot6pLlZL/mNitoMCNywCkIahJp3+r0azauwJmiSNbrRIkAQQKivnB6I38acFPOAinrB5mU7Btz4OMImiPpeZrlhENiusSJs8AlgU+c4hLqZBACtxo5vNxW0pmqdy+e6VipgkPKKTdwg/WwbSR5QMiRHph4mNZxZae5zf0M0T5gb4iHJbSb7DfESNhm4NdjW4l83igBCFOqhCZOCUFbqEsQT6kWUPdssVOB16+YpiCdgey4kEuXB/MgtTn6LLbA+DyrRHkGxNO9qiA4ayh9dm9+Xt8O/Hf1pt99fV/zl/3Gnt6vr9wDf/wI=);lineShape=1;" vertex="1" parent="1">
                    <mxGeometry x="-111.5241431169568" y="213.27754482169723" width="9.440862036135968" height="21.92064595738225" as="geometry"/>
                </mxCell>
                <mxCell id="29" value="" style="shape=stencil(lVdbctswDDyNfjEgwed3mt4jM3FqTV074zh93L5QFVomZG0nfxKEFYjFk4M8vO2fXneD57fL+fR992t8vuwH+TJ4Px73u/N40adBHgd5eDmdd9/Op/fj8/z++jRpTk8/Tj+nP/yecS6RxAnl+c+HhIr7J/g66x/G442+eHKp1w9U6jYgBEq1A/hEMW8DoqccOoAEEr8NSI6kP1KQJrkPqOSkA6jNAAA5EecOMNmM24DiSXof1OaH5D4gU+EOkDOxbAOqp9g7XZQlQGutlHsfqnoFaFVA7S3U3GjYAnjfAwoxSA39X1oBKohDjSR94NRmAtmqLCW2gIoCpyytAcDpkqiG1ZFQpMPK6QrjoLlUs2XJ4eRzq8A5dCRPvtjUcAwAsopDJId80M/GgmYrCJzWQzK0CmWUGtwq+AYQUXqLbXwqSQgQqVbrA4M4TGFyFpBxAUW2tCZQQI6Z2CASZVzUcZUbkNdC3gSiwDNNqWN4rRRwIOKqggqiiSmZEbTwsNldV30jAyfKvUbjUc0JBbE0oZEyTQixgQjoSJ8F6NCSPjfUqwR8yL6N2esMKiRlG5Cy7a6ZIa06NUtfQsnDbSPGNgSvk1prDhwp5Na4rrtAJI/2mUy1tyCpdcP7AG6sX/eZAhu+yxR7CyoRkK3KYV9AAUaB7TKjbQxUz6pj6HgB1cl2t9LhgjpSI3vZJiNwVdeufrQxVRCs0NaJRT2AhI52cDIeg5YZ3FQc26VQBSgPfPu86HvQIZy00lj0Ufm6aKe4IwcS4bOb///19WG5ZryMh8N8S7n9bq8lKpqvNPL4Fw==);lineShape=1;" vertex="1" parent="1">
                    <mxGeometry x="-99.36582460158911" y="210.23467262581812" width="11.292638790792125" height="31.15131546150519" as="geometry"/>
                </mxCell>
                <mxCell id="30" value="" style="shape=stencil(7VnLchw3DPyavaJAggTJs+P8h6ssR1tRJJesvP4+YG1xPQTFnvItB99WI/SQINBNAHORD98eP319uET+9vb68vvD39fPb48X+eUS4/X58eH1+ma/LvLxIh++vLw+/Pb68ufz59vfXz91y/7rj5e/+hv+ueGYWuqgyP/eHiiV24Nfb+ZP1+eDeaLCk3mjwHvzwJTm14dApQBApiQzQCjHPSAGajoDMkkFgEY1zoBCoe0BUim3GVDHK94/o+IBdsoh7AFZKWUPaGAFTVTnU7JjkLwHlEihekACcS6VZFkhgUhXoZCXLSGAki5bYhC42ojFn1IBgWv8ThwiONYWRqodIp3xCskB9MwHmZ0OaXj1PqCOzDkSCGzJjnVhqCL77ONWoMsW5zx7kCEZaiSe359gDCqTlMleKKH9sN+/UERMaNRc2g0F3NlXdfZZoX1xSUcBBLjbz/4GGK+yyhdFvJ82s4aHQ7vz5Orskf6affT26PzNPgdnz+BCMPui3h7JShj/PtgjgtnxJWcf0H4CVR/fhM5HvAgpCbgLjI882zeYn8b35m6nhAPQ/FUQTFjBjroqzidkFEYp3YTqHALzQYAPLY+a487hRBmtULyMSqMMsqJVn0UpkSBlN9V0gDa82lQ67BMvZ1LkRPPHpFjaDcAz9bXiyBWqM9eKRQ5dgJab8wpdPhAgDTEcAMtfJEctLtcTro36JT6v0NdE+V1IZ6ft3ApiXKG0ABoGBEc5PhEl9UVqXwI5Ybd4XpxAhYX6a7lhRhggLQDE6g6YSdpJdQKoHiAY4KTSErghLVbPagPAYkfH+w4AeLsViuwBCcWh+Iqwr4B8sB0vABjpsjhdx5WxA9TsAQlvqS4rVLwlp2SWSxEDtHiAnnB0yVZYxpQhQ0fG4VNy3UW7V4q7XHKFWN8S5rQuKyimaF6ECYlrXfrIHjhMoLREOuEV8rICbHjWdqTAAcCPA9qi9wL5YPWMu9qtyUKBs/e55KsnBVD2JZa10yiX7N51IlBktEG7m73MKygWMguTa231fgzbimkGWDmDGNczxwEYjhi6MM4+pIwBSnEmUGJ4s1uloHMuSR7V+646cTMJYQxgXzuctcPFl+u9H0MikD0fgo6Od9dw6EzRELCQhVGK3NMbFt+9I3OBhiPDnx39z47+f97RL/tB82AjGLuRHB50LioUz6pame3TWfXlRvgFn08b9Ps+YUDFmmlcdQODMGRyp6Ju5BcS/EpggLZoHKqyO8DJLuZA98EB4uiwtlMSB5DTQid6gCCaCQX1AKS774zkTeqR0MWR90cA8EHTonQCh8FZxxDlAAggDqn43LM4CABI9RXqyVeCuAxuQoMlbVzoHwqsjMJS3dmTCsqQwMsMP0Ef7gO8A+ESWICX5gheUOyHPBV2RuynHRUWLOznlxWOa9i3XZUiEMdlyIYnBOwnZvfGc2denDn6lMieX+Xk3KOfBKPZ2vLpVGEfxP6WUVh1sC9SFErDD34mPjW3H9+/SH+5Pj3dPmgf/++/YNuj29dv+fgf);lineShape=1;" vertex="1" parent="1">
                    <mxGeometry x="-20.848737495402474" y="119.45658815937975" width="119.62981825384077" height="67.34424479186146" as="geometry"/>
                </mxCell>
                <mxCell id="31" value="" style="shape=stencil(lVjbTuQwDP2aebWSOE6cZ5b9DySGZbQsgwbYy9+vR1VK47YH8TYXn8b28eWkB755fbx7OR5SeH27nH8e/5zu3x4P/O2Q0un58Xg5vdmnA98e+ObhfDn+uJzfn++n7y93V8vrp1/n39cn/J1wSpmvoBT+TT8kitMP3yfzp9PzwryR1sG8UZR985iotME+VlLw/CgkOvqTu4fbACVNA4AT5boPSEw5D4AcKScAUKrjCRKohX0AZ6pj0GJpA1nK9jwZAKViQKUcB0AViiAGYdLRJY2UAKAE4rEutECmS6HiAK2fuQmoicSV0lwsmwDz2LnULNGAaRUq1buEYtBK0QEyCWBalcJIXFUSFEMlHk+okTTDGMLIdMmQOMuSi0EKZQU8iK/WbMRFwLT1g2sgcwmVRqBSxhZtVMEJknyWuMCgzYEwxsBMBbhkz+OROI7U0JiJndcZECiDEyxCXtkDois19fYBVFIhGYeSnYieL72QZ3vt/bdjH9xeqCQF2ceR46uHiGNSN+fNQ5BPa03n/yfN3ytsYZ9AfmIgyR4QUEVYka42VQQZiva84gEFVLXtQm4+R4y2rXUJexIS6H0D+KqwAQVYM4CbLpZoRmkVSg7QKKEscd+tC0BDgERpBFjnMAo6rHo/wAmpvjLMHpVS6f4uIkCLzQaw+pwq8Gde9QvSkB4Rv6TMQ4Wt7CWYQPvSR+3CPqCt2Zfwog8QYcZ/8vYBtP5X7U0w1hWgAYDpNVn1mYCKsI0aHWCWrdsUaN+oC1WLcmqC0bW+rbgIALX4KjIZzEhYWBIdoMId24LnWTLcsSbn3A4sTAGktWlfSQs1BcdXCD2LM6LhI1p/4CwJBTLXqqe6RQxgv2lboYraZ9Vvi7D2pLZbVdew0AQTanHlE+DaLjh19MnCQmPeLiTOJdPSSAhbsTmJpwyvbdakrqtrhVni7IkoDUqSVD0RJfaNvQ2wv8fqM6WLdK1tTx0BOcHasN2mI3EmhNFksrHhZJL02bad1Z6Rufbm2/G2Q36OtX4n2zRftWfqt8o9c+d9l1g75k6LRChRrYCKM0f1E/t9oJuHvke3i8HXQoANM7fThzkKNXfdtzCHEiE1bw58L13/LHxHV/2+fj/Mke6t/n4ZYajq9V+EF5svvvD61Nw+fLxbezg9PU2v5pb/+3dx9tP0Ho9v/wM=);lineShape=1;" vertex="1" parent="1">
                    <mxGeometry x="169.53220589503417" y="131.12736332597524" width="20.578154413125503" height="36.6552916235114" as="geometry"/>
                </mxCell>
                <mxCell id="32" value="" style="shape=stencil(lVfLctswDPwaXTEg+D6n6X9kJk7tqWtnHKePvy9Ul44JSuvJTZaxArAAF+DkH962T6+bSfjtfDp+3/zaPZ+3k/8yiewO281pd9anyT9O/uHleNp8Ox3fD8+X369Ps+X89OP4c/7C7wvOecplRgn/+f+GfP734uvFfr873NhLIXG9vSMX1wE+U8w9QD8BPIREkTuAJHJuHRAjSQ/wgXJdByRP7DtA8FRkHZCZuPcQhRIDQLIsJWUJeCiOggHUFuQyIFLuaVWfDgGq9aA+CwBUTTH1gES+AEBprDdAjY2GZUCl0odUNQfQGgqosQdkcqDSCnAmpEIO5ZApSQ/QOoDCaYqBLSAFSGtOFlBB0lq4WgZAAoBMPgwh4V5yfkgaFK54imWgFYUkVExIGVZaPfDYGoDWEohNa0TYGpp0MXUI7YQsA1S2jAdVDdR83Op6A0iovVWLvQUgIVNObEiBBHXrVXpvABWJQKWYLK0F1MHxoJUaZQEDYnYx9EYBzTQnYWgq7Uyt0jSc0YALkbIF3Ct17+GGh7VucsOpzkCZ5n4dkpA7J8JZmgI6pJ8F6MQpfSFUepDQZJ3LvbqqMFQ0R6WleJ1yGQpN0k7oWdLZjQZvCrZdkzT5XN42stXv6NtUWgawHSkhkgchBWkkXvcZXYnQiuWtB93S0C4gQx2EKYKQXLKtoXtjAnXQ89DXLcApyiQ9p54CNDc1k7YMrZi7bMxRSzDlXlRdW0iXubFcMpzOw2BT5sHUCVZ/GU61ZPWdIe+FOFhzkGq1dwWGM9ldrxIf9gG0pRM7/xhOjs/eXe7b68PHRellt99f7lm3/9uLlb66XMr8418=);lineShape=1;" vertex="1" parent="1">
                    <mxGeometry x="211.08248106982364" y="129.48622665812957" width="12.472469424323663" height="33.852137015573476" as="geometry"/>
                </mxCell>
                <mxCell id="33" value="" style="shape=stencil(lVjLctswDPwaXTEkwRfOafofmYlTe+rGGcd9/X2heqiKoLxubjKFNbFYAAQ18cP7/ultNwX3fjmfvu5+Hp4v+4k/TSEcXve78+GiTxM/TvzwcjrvvpxP31+fr7/fnmbL+enb6cf8D7+uuEzOz6Dgfl8XYiBX/q58vtofD68re6YYOntOVMNte0859faOsr9t78i5zl5XarxtH8jXzt47EuB/pdjzZeiOLxR6vouD2+4M/++hPTNJzzcSV2BfN/h6EJ+o4Ss9IFMCjFX/wr0C6mMCAH3du8QqCuAclWKfE+qkIA6adLEDJEcMki5q1uUeUOEOLJR6DjlTRjqU9roBCpNDgEzcc6i+KXOLQ+ozryZKKEqlJcIC0BW5DUixVfoCqJSBcFk97klXoYIAQrXPbtHqB8KVQi5agICwSqQoFlDADpLJewuooB6ktAaxADwsUamtYS2AQJwBQGy2CreV7abkhi4piTzDLaohofmNAb7PPo2DgGRS1tYlgQeJOpCyBRQEiCQ9YBWHbQS3uK+3AK1MlRUeSKAwae7wECYM8NkKkYDWWmFiEjyRQ9nkBtJMCSnnKRjlNF9RRQSKff+eKwJ0JnXAKDfHDQmXbDueqxqFtbT0X7mEjkVN11gsaZhLYs8gZRUwQEyU4r2Ss8mXMQd1yQhXYC7JMJzoCqyH0lJtVQ8wl1S4oQvA/v1RQNFySQMAuJRrOw9WgAzCmt3QmGob0rbP0TC0vgI56DxTTU3jmYzHXhkpAKV1yN4oIBClUGwT0GmjAg4K4D6sqgyaNnQyLn3FFQeHB3ZWuBzxTBZslFJpRfu/w7eeDwigUTe3JZ3S0G1pOIF0BXU+9s2BZfrOcOoLw7nrU+u224BgJ1ePZzK/XPAWgMfjibbevkT1FuXQDqp079J85QCk/XBHUe0jSA3lYK4cepEq6N6XhnurQOFGwHypwWHlvh7mmzdyKVodtI/cAbgBUEG792ynb72qJURa5yVvAahVzkobQGp7bp8PrS+uNwBRrW00XzMAh24Z7JfevH042L46awBq4aOfV+7b68O/bzkvh+Px+ilo/d5++9Gl63cjfvwD);lineShape=1;" vertex="1" parent="1">
                    <mxGeometry x="255.5698231934207" y="126.07048366247011" width="26.503817713013177" height="28.543615995573532" as="geometry"/>
                </mxCell>
                <mxCell id="34" value="" style="shape=stencil(lVfZbtswEPwavS5ILs/nNP2PAHFqo24cOO719x1XoCqu5Qn6Jss72mtmuZz04X3/9Labgnu/nE9fdz8Pz5f9pJ+mEA6v+935cMHTpI+TPryczrsv59P31+f599vT1fL69O304/qFXzOuiQ9XUHC/5xchSap/33ye7Y+H15V9ENXR3ksI9+2dODfYeyeZfN9HqXl0IKXct49e2uhg8bhpX5yEMthnqSSe6no5lgS0R7gNKOKTrZBv9wHN9wQXQJXmCSCKtgGgRZTkDEAZATFJVgJI4sekU5VAkm5Zwph0TtIiabO7IUZRSaxMsefYAa1IJUnUJjGOgNZ7vw1QKckCGuFGWQJYASrxUMJNDmg1qWsuUqJNWkldc+yNXQCJsi+rhJEbDYIjgs5qBdogKcK+nK0HSKSSkCBR9SMgiyOdLhhZBoApQhRUfS/iCqBsCpSe4gpQmCCCxLFKFYIgZYWC0k2VCuk0qOaj7YNjHsBNAwiSmIcq2QAS95BuAKgbm2SYjOPog08mIBSxGAE1OgRKs6NvNXm2EVFcti40EX7fHKHIujFAklhtXSkAk9GIGm/Y2FDLPlSaKQghWY2i+WwKoE9j0tAo2xuugBtRfwAw/IZq6ZyB5MYcMEgSIVPG98Y+4BO0D17SmHQK3IOTNvJbWz8oNwEpSjPrVe4L1/b6k60HXyQTaoRi9yVsXIWEpDgVx8b5Jo6IWpcDZ8kBA52EBEA1C5CnogbAhBRUlLBVYz/SFgAf37oQYdUHx6rkLDVQaE9Cwt8pWwDb+hBxGPWANZGdWai6WWcAiOTc9cVuJwAwtoI53tkcMgN4e7KjrIx8/3s7+dgeD/+uQi+H43G+Sa3/t1cnvJqvXfr4Bw==);lineShape=1;" vertex="1" parent="1">
                    <mxGeometry x="298.84536139515603" y="128.84177390492073" width="9.128946272386202" height="21.339767306343788" as="geometry"/>
                </mxCell>
                <mxCell id="35" value="" style="shape=stencil(lVfLctswDPwaXTF8AuA5Tf8jM3FqT1074zht8/eBqkoRYXszuckyVgSwiyU55LuX7cPzZkjh5Xw6/tz82T2et0P+NqS0O2w3p93ZnoZ8P+S7p+Np8+N0fD08Tr+fH8bI8enX8ff4hb8TLlbSPKJSeJveJGr134vvU/x+d1jF50ApdPGRcrodXxqJdPGBQrgdL5EkdvGFarwdr4lSHx8tw3Ib0AJJ7QFCRQCASbXvkFBEgOYB2VYAPYph6clStFJhsIRl0DpAbXCJloh7GrhRAjwrU+zbJAqJtr9DD7BPBABgpdoDLMmcgZSEmpNewGLKM0+rFSJYIVDrtaSNKtDSBW1WMgOxBqr9rGkmBi1KVFxLlwyvxlffUSNFAMlWXerjhbICoWZqpQcwNaRsnRldrVBAR63kxL4EBSlZzamfBI0UEMBGJ3kSFJEgVPuUjGUFqkvsaTAZCZCdWZzzMNPp/6quA4I31bZ84joPiy4XQIUrxOTH3wDIYISUfUYV0FC8gVnJCkw1eqmajyOHDD5/FWJAWvD5aIHx0fupyU5A/oVKT4CYYYPv62xUq8ERMDjxwivG0UQNZe+mtkIEHbWSg0vJphvNQZkrXNlXAil9GVAKhehZYDBp1Yp2NVQoIzZd9yuweSAASL44vygkWpJnOmeqAMDFr2D7XAIp2RGM+9kx7isYfkvAb7QMTTialvvpGY0fqZVJggcUZGB5FvMKEADTMfp5sGNeQickv49YjmgB8Y4ay2xR12nze79NrAASeN7FVufaBlrK8+lsMUgKYHTEbzkC9wP1mqszgTdOtPOG93GK/4ReZ9cZnsm/emv5PN4ePq5IT7v9frphrf/3Vyp7NV3H8v07);lineShape=1;" vertex="1" parent="1">
                    <mxGeometry x="301.1833285123521" y="146.1921463851387" width="11.4184684654997" height="16.981265894397552" as="geometry"/>
                </mxCell>
                <mxCell id="36" value="" style="shape=stencil(7VnJbhsxDP0aXwmJWiid0/Q/AsRpjKZxkKTb35eCq4lFzTwHPfSUmz3WM/dHUrMLVy/3N0/7HbuX1+fj1/3Pw+3r/S582jEfHu/3z4dX/bQL17twdXd83n95Pn5/vD19f7ppJ9unb8cf7R9+nXA+UJWGYvf79CSQOz34fDr/cHgcz5cynK/kIjwvcTjvE4UAATmNgNpFbgH+/l8HcCKHAEzFmOxIPASEOgJyf7IO8FRHJ0XfrdoC5NGGmCkitzKxHwApECMJlfwoISUS3gZoXPMEiMBLkUnypJIDgELVSPAUQOBSpjzGIQp5ICFViiYOTDlvA7KjNLo1FCrAaAXUMVuD9OxaB3gSsQAH4pDZeqklH1IpUjASUpe5DkhUqwWg5MvSy+UMEBBA48CTBKCSeHLBAgrwkjDF2UsglyRQyjYOHkmI3cQzQEUSIolRSRMeSxA3ApT5AM1I7hov6a2RBiQgMpGAg5GW0pl0AWRIM7J0gw7Q/I0AUJzl1lyIQWoUtqnRQgkaStGONar0ZtU6IFkSUJkeeKmU3jIXQIFNsUZLlZUpAS/VTGK6rrZpQAK12HpQQAFUWSul0UuqZEENxTlyY7qqltDq2pNzAQgxYGM1ohgjCgUEEApjQahMRiolm30KQHyvXmQzzrz5YR2hVDaLAICinbpMRgDeKGLbYnMTqog5mwRLyJYsW6iRDWJpoGUT8KsWjB9LSD2NmpZ6yVS1llAFZKlxKHPN4SK1NnAfJ7aK1E8AmExiW7sanXCR8uRWqFKdJCTKuEbryH1qVUElV+0gqskHmUmmBaLAPtpSzaRGhUNcnVaaZhWSoDPZVKIV2eB7Bb8TIKnHdekQtZfU5nhiWoo+QbMA90l46XK1t7F1gCMe49DmDzTEaUsZJehYBwfR3Ge8BRA6P29NrjLSdxK4Qej/ubGj6AaR8PSdzUKQqSIJbgIwzKV/2iCmufJjg/jYIP7LBhH6z2fp7TFr2I16mTS3SKBOJVpRpH3nubN7B7QQ6M+WBJa+un7vID03F15yfS9aBagT3RhpVRJdSbX7pNFLWoMFSGC2HUipDa0cPtn0VgkZSBBKxdqMSppt6qlT0eAwLQO6WXqwPrheW2dEjK5yJpaMngJaT/rWeVbNqDin6VBjiPZW7pvLcukYIb2wrUyvQwzwf7Cz5IVr0zAtY3AXYzvm4VvfYEcwvqBMMle4MHeUF41vYD9L9riD+3+2jOX6frVRKKa7XljvOl2+77h3dojC2nhv6xYb69mex75sl+cmz2Co2vX/aC/OhNXXC/gy/8LrCP3w9i7j7vDwcHoVcv67ffehj07vTcL1Hw==);lineShape=1;" vertex="1" parent="1">
                    <mxGeometry x="330.97789657997555" y="126.81532428339301" width="21.587661857172407" height="38.5283214828778" as="geometry"/>
                </mxCell>
                <mxCell id="37" value="" style="shape=stencil(lVfLctswDPwaXzEE+D6n6X9kJk7jaRpnnPT194XqgSJQ0mZyk2WsCCwWS/IQb14f716OBwmvb5fz9+Pv0/3b4yF+OYicnh+Pl9ObPh3i7SHePJwvx2+X88/n++vvl7spcnr6cf41feHPFReFYp5QEv5e3yTK5f+Lr9f4p9PzIl46SXDxLNQCADSqA6ARN7hCLA4gkZrsAyITe0AMJAwA+j1fc6wUIgBUqn6FFElADUmosAfMvG0DmpFogJyIQUq5UEge0CiBxhUt2qdUhATQWplS9IBMNe0DWqbgWaqBSt4H9EpJPKBQBylxCBQ8TW3mYTunSr05QI+Qpqpy9Tn1QgxWKI2yF1NvJGCFnK3GGdApgxVUa8WvsOBhuwjqq5QS4DVZX+f4aixsj6gN8IKjDMYhWH1zfCYGA7rq8tS0juKHaetMraL84/D98AE/fVBdty9sq84UM8c3KkjXTKWNAKRSVv7yCGjALibPrWMJBVCqnKY8ctTBMAtT9XbRBTZNAa17ALY8TakPbVZDAjLSoscV1OeBLnhlqjo4ARSte18pIwBtn504rOLBAlrgapIDKFmoryYZOYVSWkdKC+hBMDoWPUP+G2ybXIgiAlGwrb5QHZrkODrdJGuQv7LhvVfnpqJ8gml4OZlIEWljBbQJfhqQ2bx2UXMG7lIq5cG+KkUgoqaq8F1oYmeBbVZl3EBqNUfbrqGtjgpsx8RtgPbBC1Wr6uhAxdbXGRCh8vRQmH0fNElGB9tCydtRFmvlnuGJXyFlq2rPjobpjA1aKus4+KL1bIxOwupfgx/pXoeK1p2q+U5zxfKOdrKeAYz3wkzZ06p9QztbMUufS7C+bMerBXiOdJ4Qp23MJ0DhTZaXhniku+kw1Yf4gK5Haf195PAqU6lDPKN9vI23qQDdRbe04V7BRvDubU2GeHi7E9vw3vuLrCXKeG2Jdjrci//UBfjjeH14v20/nJ6erpf15f/j7VxfXW/28fYf);lineShape=1;" vertex="1" parent="1">
                    <mxGeometry x="378.24984166229797" y="122.80727428668752" width="13.998980753999149" height="30.23107005129839" as="geometry"/>
                </mxCell>
                <mxCell id="38" value="" style="shape=stencil(lVbLctswDPwaXTEkwAd4TtP/yEycWlPXzjhO2/x9oGrkiKS1Hd8kalcksAuAgzy87Z9edwO7t8v59HP3Z3y+7Af5NjCPx/3uPF7saZDHQR5eTufdj/Pp/fg8v78+Tcjp6dfp9/SHvzMvkMpEYvcxL7CSS/9Wvs/4w3hc4T1T1orgEzndJnCkVCpCIAb44CnFCu+oxG18dBRafGaALxS4xYdtfFIKucErSFDh5fMX3jmAj+RDrQB5cP6Sydf5VOIM8NoJlikXQCiU64SyrYAIvLtGeJWYl39sbRFrQowUUVKVxFeElEg9ICSKdRA5kiAZAoX6SOrIY51daQkKhNDSGiNnErCDZiq1MzK2klrQNcHMHoEOGkkb4cxdIK09QYQKMFN/JPZQ6T5o7/GRurQK9l6nmyMG9d8bA/ej3nkRO7Wztg/YqV3x2A5I5Rv1KQqd17eA6CngIJomk4Tkri6WrW8iGbo2mRU6r+/Dio10N2GaDHXQ1gFQ0NPoSS0hgqBttkVpCchMNjxvxACU5rwMmyuBl/l420yRSrODzR+gQ27x5pWCstqO55V9b8e8dN31BqAPS7uBWQv1bW6NV6wBoHG4mOaaIKtn2cabZ2oX5QTL2bLRjEJdVrbwzawtxOD8dp46n+bChNrLcv1bDX9UydzmRxIxyI+0+RFPjGrgzhvt//H28HV9fhkPh/n2vf7eXrdtab6qy+Mn);lineShape=1;" vertex="1" parent="1">
                    <mxGeometry x="381.9350982383835" y="121.78553122153949" width="19.779645218311543" height="3.488199378383797" as="geometry"/>
                </mxCell>
                <mxCell id="39" value="" style="shape=stencil(lVfbUhsxDP2avGosyZbtZ0r/gxlCyZQSJkAvf19tM0sjhRzat83GxysdHd02evV8f/O03Uh5fjnsv25/7G5f7jf6aSOye7zfHnYv/rTR641e3e0P2y+H/evj7fH3081ycnn6tv++3PDziNNCQxaUlF/HN4NG+/Pi8/H8w+7x5LwoSTzPSo0vA7hTnQEgQtMAwIhLBEwaHQAa2QgAHcTIJKPSAqB2KgP6wPELza8AJkmhElkyJQMmSSXhAOiFGmDJOdEEMGp6GVCZSgQMpQkArZFGlkaHgbNBMwEGVQDoI8dhOK3ApN7yF/yKXoEPQi0CzOVYAKAQawTYSsP7tA7SGgGVBopDz7Sa58OEAOkR4KEETtc39b+pdRIDtdZJPcm7UwP54LSmFPV8qCgOzklkydU1gDTcgF4yYIIEskJ6lqIN0OqsG2enB/pCJbZMK5L3IoQUaSbFADurGopM0lxbra2ReR/Aa1xP5I3KjLtY0hdcGgIARjIyYIA4NF2VcwIwVJe8Y5350IEPng/DMksK5F37GUsKTVpSNKrViTac0z2WGSe64xTllEADdqDGuWo0zJLHYZ5nHAqc39cyAFU+d7FpNklRMZ6r1P4RMEtOIO+iAkyaXowjS95FBTjNxTt7pMnbqIBATMmdfVZoU3ebIk3T68wHvMZAnFh5SU01fWKQIfmVPPVNgyOW8trI3wACy7EPhang+7TRQeP1qW/EyjR4veJC6IiTOCpVVMpIU+nDPsvZkOhTJci4Qj3as9Qd4MCZ8tQrKzyfJhMf7ZFSJfvLE9pjZLGsMsMK44uCpPyHw5twJpRh4rgDFvOgrIlxaeZWSecZ3W+5F+Isk577f1kniEsjfeN0Hu0MvrrNFAA4LajkBBDIp5+fMV54GlHNhatC/ajmFcb1gO3PfRxOFn4+bTx4f/nfVfjj8/7wd+++2z08HNf20//znu6vjju+Xv8G);lineShape=1;" vertex="1" parent="1">
                    <mxGeometry x="415.7693113078699" y="124.40021832722914" width="16.272718391842318" height="23.80682550927679" as="geometry"/>
                </mxCell>
                <mxCell id="40" value="" style="shape=stencil(lVjLbttADPwaXYldcp/nNP2PAHFqo64dOE7b/H2oCqt4KWmM3mSZo+VjhqQ0yMPb/ul1N7B7u17OP3d/Ds/X/SDfBubDab+7HK56NcjjIA8v58vux+X8fnqefr8+jZbj1a/z7/EJfyecDxTiiGL3Md2pJPnfje+T/fFwurHPVIsxz2nb3DMF6eyFat221785dfaZfNi2F08pGX+cbNsHT9yH6x1lcEBcHDCG5LcBiZvDMyBAl7In6VPqI4kDgErBnJBaVVYBJVEygEoRxFCZcl+1sWwIkKhwD1BeABrVSt7wQp0EJ3jnyLkOEe74VG3UWssIuFcLhf6EqI8AedWoY+4AKVMEaqiBYs++HMkxLITvTyieMgi6CLkeUDMxCLosBVQoAZeUfdk0jNqiWgfkxrUvyc21XEdE8tUegUqdpSnsBgAl5G2b0agZiVQ9NgClPGoDtTFhBsxRbQFKz74qFEFnUpeyacWMGw23zj4DXJPtOkBnA1uAQy6lRs6ZrrgNKJmMqO+coHR1cREDEgRTiossYQUlWdQBZEkBxdQhNtVuAcTQW/OGNMrEJkvKVhSDs1NX9YC6QNbnZQuAiotUzVi8J2qhzPYI1CxVo1YQpZVmSxA2r5kEa9RMCK0cWgZWADrbwYQYXVpoNKIsrQJQITQnfeVUU6jPKDdqr1GtDCSTLgN9HVKCfaYEuwHF0mq/BaiLSY0KV1RgPZdCaGTZHIt9WkWdRGmtdlJzgXVIxWaJYxvF64ulTqheQbpjoVU6lNZKZwDDLEm2aWXcK3XXlj4G3RM9KJzPVMximVt/XndpsblqMwZkXex8Aomk7wp9Sh18up8TfmMPWDTu5cHaA/XrWl6sfUDpLHbv8XBU+bqoF5znerw3HIVzR+3NDqOjDlBa7c2sjTCfai+9fYKi1HhTnx/8cugXmixw21bymnfhApdtra/dXuDg/9937fv2evH1Yv9yOB6n7wK3/9sPAXpr+oggj58=);lineShape=1;" vertex="1" parent="1">
                    <mxGeometry x="450.9054780934234" y="122.74864884544218" width="19.106505039709646" height="26.724436121477197" as="geometry"/>
                </mxCell>
                <mxCell id="41" value="" style="shape=stencil(lVfLctswDPwaXTEkwRfOafofmYlTa+raGcfp4+8LVVVqkNK6vskyVgAWC4Ac+OFt//S6G4J7u5xPX3c/xufLfuBPQwjjcb87jxd9Gvhx4IeX03n35Xx6Pz7Pv1+fJsvp6dvp+/SFnzOOyfMECu7X/CIkKuXPm8+z/WE8Xtn7RLlaQCHx24BQiYsFCMW8DeBCzltApZS2AbGQl9aDhG1AKsTSevib1Soga0j1HpZKImkAnoLbBtRI1RmAz5SAB8kLiQvAkUf2hWJt7BOoglSKVhiRCrIXCsEmEIiBLhRQbAIhLC7XleccOcsRR3I4JrFKiloXRJJQsh5SJgExKUvVZp1VGALLIJbW4ikjmnIHYOwhLdr/AATyQHoKaPotZyqgfSQSNyxVCigHpppsHQocAQooNgdOlFDS3Catg60iD7GVt+elQbZYaoZMgkNJ69YMVkcVC8PHxt6hqtVucJPgfm4mkk5h3ArZqsKr1iNuNtvPrBmgjKWNKIZb7ZztJkl8KwdnAZkXlrdICrYIxeGQCgXrQbsz4jLfB6ipHXqVlyG1vnrysgc+ALoqQNK63Jqkq8CBoesz2laQQBkA+gWt3VRB8/RHgIk3MJL6Q4b2H9o+/TFGPaCB0Z2TrtbRekjEjYMKDyW+FbdyVABHnpytmrjlC6v2uu6bKjPchXqcsPGrsByIp1vOqisGhHb2ukQiqFgXTxS4pbp8o1+OWP/Hp64c1AVdvaZxhyTa6iFk3AN3Hsxv2+vDv1vAy3g4zJeI6//bW4O+mm8c/Pgb);lineShape=1;" vertex="1" parent="1">
                    <mxGeometry x="456.65832932567037" y="132.79279226037409" width="30.052598828629016" height="2.5557891866687896" as="geometry"/>
                </mxCell>
                <mxCell id="42" value="" style="shape=stencil(rVjLbhsxDPwaXwmJol7ntP2PAHEao2kcJOnr78utobVJeSct0JuzIXdFcjgcapduXh9un/c7Dq9vL8cv+x+Hu7eHXfqwYz48PexfDm/6a5c+7tLN/fFl//nl+O3p7vT38+1iufz6evy+vOHnyS9XimXx4vDr9CRGKvnPk08nh8fD04WDFJJsHQKFsO2QOvVgHDol8IGUKFr7RrVs23Oh0J197Nv2Mc/vzwzsmXq0ASfiCA4UKduUnp9cd2hUknWo1MCRUqVgHZIQJ1i0JMZBAvW67ZA1qTZoqVSBQ8nENqtZSGTboSafpRIpAIcWKNkjlUoM0toyCRsH/SYDpLZGrVmHBoPuwX+hCUVQOHWItg76zY5iqB4aPcHuaWk04+pQqIIjVW132z4x4IYu+m9bud5JGgBT8GDqQh04KFyzLYQmDrWcOnDxhUDYkE7RlbpCuObk01QVj4Bmch80usKVqaK0Fp9W7SDEApUpV9ujBYKpdv8F5eYE6qBJLBZMiUlA0AuaLb6VnQUQk9a12SwxUwD4XoDg4KqFAz1a82CV1YHHANgiJrbQ0IlYQQzaQdU5BFyHQMXBmxrIqtpHRzNUQDcs9japdYS0ZV8dFVPAlOEmusBhohkVN32I0WjIo9lX2I0PXrevAzIX9iifyur+PBnNBc2nJeGM2yb68yifockWp0E1umLLPtoeUDYD+dfzi62XAjShgun7nOSJlFALrD144dBxiYuTnTySvIUhRxQxYlDwwNiFA4Osahd0PwiJUZbCeN+5DIi61D64mYMncxioPMNIcFu6IuTBlVsZajbgdxSbDNa5aDNEc8W3fRpK+r/Y9+xpNK4S8bqSPwub1aNARajCxjHpQl1IERaPOgUFKkLX1cAlNcMqq6rttnOEKeGp73Ct4gfStXgxldsQcNeVS/MbkmoZNGLL9AVtb7R0lkkmLJwMgtYTu95RaVJAWnV/aU5oR2p4fwmTQ8H7S6n+SChLbSKkZbCgwmnQbu6XsW9sVTrZGBbOAWjVSrN10FK+UzjXcVoZtL/oruAWnsxwG5GJJSWPlrq+PIex7l+oYIQlVvBNKriDGHSU+QuAAge6Ys8igyM8UfAqe7nTAIJkKkIfuv56wP74AheXmDwjhXHbsJXPGpw9qrCOSUn+/SDaJL7AcdwQXUfQdF+jnY92xzZxPLyg0k0w2PJqwhAVTRcdAodUiT4/Mgbjdft1XlzIWdTDE9MViE61d+epY+/csncj8J1xMy1oDWrNZe/2Oq3hfPbphjNjkus2YJWaiHcVEXXSphmoXyVNmW5pUU/+87XuXzjoj/Mt8v3h8fF0CX35f3/rrI9ON9bp428=);lineShape=1;" vertex="1" parent="1">
                    <mxGeometry x="494.17239626508444" y="122.25059508843094" width="23.793701680080176" height="32.75711090910761" as="geometry"/>
                </mxCell>
                <mxCell id="43" value="" style="shape=stencil(lVhJchsxDHyNrijuBM9O8g9XWY5VcSyX7Gy/T08UKiI407FvWtgzBLoBNLmLNy8Pt8/7XXAvr6fjl/2Pw93rwy5+2IVweHrYnw6v+LSLH3fx5v542n8+Hb893Z2/P98uK5dPX4/flyf8POOql9QWVHC/zr94Jyn/+eXTGfB4eLoClCB1BKg03V6fnYRxfZUattfHJrHa59ft9cvfaQwgiicb8k2yATRRBsjS4gAIUSrZEjbw93kdEF3P8noMTvwYc8QjWJK8+GQBMfGsGkAQT96QqpQphkhiyNnqAswEkqUSJZURUMTFbQCk2sYthSSJBK1OWrGASphWaCmMgEqZbmmFuMgAxcYAZpojABUd0wpmPKlP75w4NyBAjSNUtybFDwBQU9ieJm2AmkKIQJqCAaiUQoiYtqRJColBo4SxRvEI1sZqFh0BDW2DBF2ghFFMDY/wpCAQQx4BVZRsKXvRkTgw40nJpSR53NIV+Vu9L5hXlF4j64BquyuibiRqAOLIHMgvrLsCoJYI1mi82t7XAk3T0vDHqm6eAoKXaKh2kklaMQ+SWkBggDxpw/W8rQPqCoBNiACmiw26kKCX9h5sWpm+AagGkMQRppchaKSRJZKCQAzJ1GjhPFTbLFFyiaV1Gu0AULdxmfwXwEWOW1oq0xuUq7UmCwis4as1WMhSYG+ofWpe8cBaHwBhKlEmPgB00lJmjqnZmdX8/xxTNVpyVN4hTO3b0bTCKtjO5/qM2RKfm7fExKfdjFwFzczDuwEJWc8TD2wE5e4trt7AgsZpYJ67hbk+tdJQbrFqshWnube2LdfnRuLU91m/Dkjdp17cSek+cB1QbausaMbMiGrX5rXDYltSywOYoW8oXcwXm6jdHGwZpjoSl2CviTSQxDjGEEtvnuvEqU0rjhyV1ENBu5/MNJuixdsTRMyS2Vk0dE94ASgdWSigNm4poQmwoQhAs2ll4sNAMV1jKVrWjJNtlXgDc+tFYrQxM968NZWRH5qm4wbGtrIAbHkunZYIL3a/+cbjulpR4PzOOMZpvU03IMyxImKj09JH9qYrGSOIdLahrsyhEnaVEIZjgB8ZcNSSoAq8mvXs0FCgIGf2wySNjm0SGrsE19cXewKINP+1SjY1JoG0azQic+GT6BGmXk5dl+ZLb6yw3lyhFVqQdbK1leoB602LUGqbl8Zrhji96kE+7aGwe6Wto7O5JUHBBCI4CGK+Y8xsR8HekiwAlqL33mK+AYAP/y5N7w+Pj+c71+v/7SUrfjpf0MaPvwE=);lineShape=1;" vertex="1" parent="1">
                    <mxGeometry x="531.3823980218208" y="123.20712467427836" width="20.505167509380044" height="34.72412583346227" as="geometry"/>
                </mxCell>
                <mxCell id="44" value="" style="shape=stencil(lVfLctswDPwaXTEkwRfOafofmYlTe+raGcfp4+8LVaFkQvJ2cpNlLsVdLEBg4Ie3/dPrbgju7Xo5f9/9Ojxf9wN/GUI4nPa7y+GqTwM/Dvzwcr7svl3O76fn6ffr07hyfPpx/jnu8HvCBUc+jKjg/kxvmLj8e/F1Wn88nG7W+0Kuduu9p5AAIFPoP6Bb+AwAiSp3gBDJOQzIPQVPgjgoQDpA9OQi5OBTB0iOEuKgKvWks8NfqBR6DlnaFpsAjRv3HEqmigBzXBug6hvAIWTK/RdqpQxk5UjiO4AwObkPUBFjD6hCBXxBRawGoKSBNZSiS1alwgCQrFuLmqUCQCFJFsAgH8SRZAsIgIOKKNECIvCSZErFknboSHUDIMAaomEypGsrC/cAlrRQANZQwIcmc6TVLOhIhVKvUvUUgZcktSo0A0KL/TYgEDsLyMhLYnN6BIA4qJltigaoktpbgiWdAGndzxcra0L29sR9xmngPpL2HiCaBKrQ3nqk1MtatHgiDnH1BS3PKA6lXR+3CYRklY2cDoC0WkOKBTDyUlolUGql7Z69ZVXukfk0gWK2smZA2ju3kqnC0qefSMbfDleBSt7cKB62Ap8GFPV3351o9WSgq94o9s7K8FaMlbjvTsZSBULNs9fm/mdR+t5NXXtzqA4B6Dq2J30gJDZ/bQM8lV6m0fLITU2TeX2EpIs9kJqPwf7JmlW7H7R+dSVqHBlJ2q6Cm/6tAFt421xpg+hBTXK2cHMgB86/SjVlVEByutYWzR7S7AfnD+3fxXPQ1andS/N5KALDzfV23h52Yav661uWbpffVmvbcgfbTrFtqoN3pnrfeFmDgVp5tgMSzl4f7TSiExayWrb1QUOFkr3YiuWg+F6aExf1GU0i0rZb1qNhaqTXe1PNh8aKTw6c/1+vD8t0+3I4Hqfh+PZ/Ow3rq2mS5se/);lineShape=1;" vertex="1" parent="1">
                    <mxGeometry x="573.5274032641646" y="127.05063726929382" width="12.982455571480386" height="32.50525084654396" as="geometry"/>
                </mxCell>
                <mxCell id="45" value="" style="shape=stencil(lVjLctswDPwaXzEEwQd4TtP/yEycxtM0zjhOH39fqB4qImRtmpviYEVygV2A2snN6+Pdy34Xw+v5dPy+/3W4Pz/u5MsuxsPz4/50ONvTTm53cvNwPO2/nY5vz/eXv1/upsjp6cfx5/SG3xdcDBTihIrhz+UXjpTk3y9fL4Cnw/MCwJmKDoCYSAsAJIrjChJJGwAIhTwAEpNkAIgUxy3lQPwBYFwhN4ro0EI8rlAqFcySyACoiQpgKQrpyJIK1bANkEq5jAAl4W1AKv19C0ABK+RC0a1QqAFai5VG9mdAiTNOHK21UtVtgDIlHgEBA7KntURqFQB0VRpWv4AlrR6QZhquA6TLZdZDpQS2VJU4jYDQC/46IJCMK5hEJYHE8coEGtUIaql1EmdAhrTaEWPzNiNIQLGz3gGNBJlGoFRcfAAn0F7Jc6n2UrxOKekoZ1MC2E31lpcpIx0Qj+QkCoAb08i4mUgZlTRVRz0sBmPSFfRM7fV4pqYuHjFvXlpX8WD7Vlkus4EK8DkuXl8M6eHqLSLifmYOMcox4e6kFFx3IsX7ceqt3Ye3zsu+lKFSUqfjXSmMlaheiQnxvzKT1sv7anzzlq6UwevVn9bME1TbiszSh4stJY7SMrKAVmztMbU2uoBwS8wYztBlm9e59TpMvDQXzyh+NdSYEEGn+2x8Cn7gEGj5U6P1Jqto3Kid7JlOJgYbquoJMu001CS0v2/RSNFQ1jLxqC1JsK+05jlNqcttw51n0mc7KZRA0bXi/d+Iy6jsLG9OYgbAU1lzk2WBkq/c+9tsEQJn16z9xjADKjVQSzbsuplpQdz1CSV5Xi03yFmsTTh5GtMZpc7qe3S6xjAR1duFJmog0+JZtbyh0TWsZmOF+1lXXuvlvhHP43ltbERZtqpwYxCeJGK/vsxiM/2DTmk3MNfoIx68u/28N7IKqlopORXA65XdOEerqHBGnAZcl62PukH1nY/xWObcd746bVWzcwmLR2Nl8dVf8B19pmNxXjyWFc9nQftvvdYX6QImN1X/6CgNfsWweHdextX56S8x/wGwh/cPPw+Hp6fLd6Pl//2HIvvp8pFJbv8C);lineShape=1;" vertex="1" parent="1">
                    <mxGeometry x="584.5407017628618" y="130.29826199598858" width="19.0824106485843" height="22.51304319155986" as="geometry"/>
                </mxCell>
                <mxCell id="46" value="" style="shape=stencil(lVfLctswDPwaXTEEwec5Tf8jM3FqT10747ht8veFRqUiQtZ6cpNlrPDYBUAO8vC2f3rdDd69XS/nn7u/h+frfpBvg/eH0353OVz1aZDHQR5ezpfdj8v59+l5+v36NFqOT7/Of8YvvE84z5TyiPLuY3oTyE0vvk/2x8NpaR8pxM7eeyphGyDeOpBKSQCgkPgOEB0x8BCEaugAyZMDHvR7xkMWihEAMoUeUIQYeEiBfOkBlYrfBuRItfYhRcog6Zwp9R6y+gQ5FEeBbdIOAbSspkqefAWA3ISwACAeKrcUFwBxABDJyyoHEFLNVhpjlRCgUlzxUFBIdUWcigUQpwA2Za2QB83BpV5LSiVo0Rpa1WcAU0Q8aD/0VSoeyrskkmIBngHAU8w2pJyAvGsTwiLpAkLKaaVWpRIQp7zaBprFsgXIfUjq83+Xb4ZkpBEooyFQKRgP0pp2q6zJePAUUIsmiquehuKbpbYAMAKENqsXgIzUmtv3FkkX5EEbyISkYwF4YOfIrZgrd6aAiangDvoqQIkwIWnhEHOpEPdyXaR1ey3GNodmF3c2tcrPzI1Igja1MhtXTIAk9PBQ+1GWpM3b29TV1vTzWYDhGOBgR1ngNm9vr3Y7mLxQBi23klIkBz6v5n0481LdMM99eypjYEoyVaMJqkARYuliuDyj3Z06C8C4K/Z8oac2UEjmVrhPeyRnFkrWHg0iTnZtOoqoloW8M9VhLM3a2+PDzljsniw9uoD6fPlgftdeHz5vAS+H43G6RCz/t7cGfTXdOOTxHw==);lineShape=1;" vertex="1" parent="1">
                    <mxGeometry x="610.934054567751" y="130.12847125412122" width="9.83922409751085" height="23.579394457027206" as="geometry"/>
                </mxCell>
                <mxCell id="47" value="" style="shape=stencil(lVfLctswDPwaXTEkQRLkOU3/IzNxak1dO+O4bfL3harSESFr09z04Ep47C7Ige9e9g/PuyG4l8v59H33e3y87Af+MoQwHve783jRq4HvB757Op13386nn8fH+f75YVo5Xf04/Zq+8DrjuFJNEyq4t39PKLm/D77O6w/jcbE+ZkrcrfeZCm8DUqRcOkCo5NI2IHsSE5GQR4BC4jqABjndbgEkUe4BSZ/UbUAJFGoHyEwlAkCh0ictjiRvAyrbskomKdsA7xy5PomqSXjwC42pT6IKOQRIlAygUEBJOIp952qlgMoUWwALAKqrFqXGnn3vdbhNDuV3sb8QBNDOis26gk4kzZFtXSuoa1IJ5R6QGyG3AL7PWlvjUUhlVVfNCihCNVdN0oEyaESWxrUrwEO+SiSOFsAgpOJXZPoAoORch4Q1ZwURsIK0r8GWFSU9sdl0OrVWbgGSyUHJArxPX1cDkMbf24Cw6kNpE+B2WXPT/EJAyCyltjb9r0YlNJdY2gBy/EQiFoCcKTtKxWbNSHKyIpPAqaUadYYbascgpM8DuM3Z64gQEiCI5C2ZxEMn07FpRJ0jVbQZcFR7BWlWKCRmyn3johYahBR0c9FPOS5wpARvrY+VfHCQWnP1WlawoXG2bxFumFZj+jrpb4djowlwNDBxz2u1PGTbdqL7lsxWbVLfLp3wgKJe3c2Z9R59v1r3wkahpRa23weGrTvNsIofiFjpGWw5UTycrcI8pn+xvhVagW+v/+Tm/OP1evF+EngaD4f5ILF8b08O+mg+dfD9Hw==);lineShape=1;" vertex="1" parent="1">
                    <mxGeometry x="624.4990777611165" y="130.09151708002787" width="5.508832163735406" height="27.707880803582043" as="geometry"/>
                </mxCell>
                <mxCell id="48" value="" style="shape=stencil(lZzZkhzHDUW/hq8VuS/PsvwfihBlMSyLCkre/t6A6erpvqg5Zb5JnERXVSaWC+AmPtTvfv/5h98+fijp9z++fP7rx39++vGPnz/UP30o5dOvP3/88ukP+68P9fsP9bufPn/5+Jcvn//+649f//+3H3yl/9ffPv/Df+FfX+X2PmZ3qZL+/fVf5jxK/e+//PmrwC+ffn0VaEkF8gaBdewgkFig7leBcf7EewI5qcD/vupaYB5zqkAfKBBfqZKAvfFSAdylcTQR6McmAftzUYG5UKAmFej0hHb08EqNnlCPOYJABoFyrK0CdYJAPnYPAg0E0pUAvNLax85BAJRvrWOGbyiwrWseIxwcfcMaQflsW0H5Vj9yVA2w6VUv7CHTE8pRuwqsAgLpWPKEeSzY1rmDtu4jwcHZ743XV7JndnACbl+v6m1fVegJ7Siv32D7tuCkZzl6fRXgg5vpmO1VwLYVLG6s888PgXUkMKAxz018EtjwSsN0SQT2MeDgRg27ZCYFyjfy0V4/2oyWvqFvNSATKGBAfarymQD5pW7aHwToo7u5yqwCpBq9hFfKGHZ7PmpRgQEf3fZp8g+BciTQpbb0pE2g0xPGqcxPAvTRrYVXMmWBbW3l2E0FOgnkI3cVGPDRdYdtreiX6jzaDAJgQLUfIwcBeiX7cxSAba3lhFMPgXYk+gbT/q4C5O7LUqxhAg1Uo8yjB4EJNl3GacEPAXM8sEulH6mqwIAIVKoGdoNcZA+lnOf6JEAWV/Kx5JXmqY7XAimc9MQn5H0ivIfAwqCYDZwkFaiwS9kObqpAh4PLQ9MBE1jgyHI//dxDYJ/w/VrAlLmrQKFXCqjyLWe5FsgK4Uyg07YmTZo2B8V9+pSn9ZNApUITX0+YUmOuradDMDULZ7AIK10cATm9ocDH1lMGN4Ix79PzX0fDE9k9rwdbNmfxaso5JXSR7eoBoBGmo03XT4oKwcw2JqBVEb2tr3DA5ZhZ1yfyXWcG8mTFg/x1ODBTQXj/fCKJJ09HSVI+ccH/6azTCTGfYiYpXAqONKEBRGC+MIhfAXk636QJmKUWG/x0OrOtx/p8sz+aaBvaA324SpspHNvTX9/Hcp9MHvRE+Od6y2So2pEVm1peQjAtq72McjT+/df1/SYonbv9WN9vfl/SLsPzE89XAFd75DDvne/r77eK+2npzKs+tIRQJak/rAOB+CO/eqyvqD9JA5hh1ILr86t9WYiigJfUP1tIoLzgER0e6ysW15Ker3nIjOcl+uYeAOwlnWWxRwDbWIpLmmkZEiR0nDXhNSBISXtWAGTrK0FdzfENN2LWpCAxc721hffnipeB0K7ryd5HeH9LgGA/52ndj/X1BiCKfjqIpfNKWhM0gUQCWSOM/QsVpO2FsxxBOlPf93B6E4yCaWvuoYxzVAoxI8TUM0i9l8poTD0GQZQVf7+RCWwF0YshWVIdWgiBok0uTHs8/ey6npL6R0R8en/QILNJAdELz8sxrv4+1gyadnEWhhhbP8J6+t5QFV+czj8ixNt6aip5CUPXE4Sz9VpUOTf4vZqKFLg3hhjfbslqMaTan5tgaIQ0XkUSDH0a0PX6fJrfk0Oh4kUtJ4R5EiCLqU1rcyZAebyBmBSeQLCsTrUxE6C8sG4twLjb5Qqm7lJG5GRALz6hwDe0fhEJqPTc4kdnrLe3rdnDTazpRdOBnDF96O3s1DwJJIr3QxtWfnBUYQjWkxOq90ha5/V4CR9tGYke3AMVXgu0kNSjAxvj2xyGpWBNHRj1h2c6FfOR9B0bfn9mTbqZaTBDJ2lgP2I2TWo6YqgZrL+jls6pAbzx+yz93spFvKRJbkWehKX84rALYtJVQlKAOaWXIMQVYXM+tp3ZxFbosiXczzV1fxICHFu/9X0ox11LLTihq177VJe39dS39MZp1/WUEyQtsiX0cba+6npyojsUkdKJaK/X53O7n/SH10tTlNuDtl6q5O1Mcq7XF232DQx83s5UQEoAc1fVN48ZzH8RxHiX9TWFjHkgRjMB4VJlBpm7axhzI2YeklYyKmIoJy69noIn18ThGVqrsnMb9IRg955eM71Lgr1DffroqamfgVsKld52E9eeMVk0AUmOKxckdwweFdNX76JJ9OASiHfRXnXJ0C35OxeQIuC6fcKrQEtMINuKKFpBPL635qSGbqmTvUMn29AtqkY4h56w0rWXljV65W1dakC9Y07hLdzXg+sLu4nOjxRHmdnzLY08hj0pVdtT+y8GPpHIF3IKQ5/oKmfgFqY7rzGEcVaQyGd+SZ/QmKc6tMg3uUjsAlkFqCRy+QTUpRHYvAUxpzvjpALEmnOBuK38BOHwzMIGFChqJoAs0qnZ4yxMbJ2BH2nIhM5hqgH5OTBfOApgFJ3a0DCBu1eSg2vY0fNdaiqA5zDObO5JgArAewSid2N3P5Qw4690Y0ArfDS/kqQ8k7lUlyaKzPArAWKR7lDGnjewOH50wV6Ob2twAghOQiXyzkSHVuZcgA4uEEjcROkbAuZzR8Ze45sFinxDZlc5w8WHxCc9zyD7FOMQ3U+taI/BGd9U5RsVaRt7qsWNjDWnPdUJdO4S7MAivemMO3FE4E858+R34c/rKzUmF+1Q1zLMhwe3lJ3jzFX+6CGVoZuguDRTbFwsjAJ1Y79vh2KGoXtqL+yl1S3PH3iXpEFY20n7eldbQ0pTWPkEGVuWRayqPbWiZ3ncDYQTNONNGPZ8YqI3xAMTEPUuA8mIlrFretywzGsCUkQohc+hqS55YYmrDkqfm4wE6kW7HNFMCS2Gwq6yaA60kY+1Azd3YjXf1jetLWGtLofMlWN0qL1Vts6ksYTvquxASMlozLE2mVGHYu0zI9RbISvO6O9WSCjzbW1Y11O1ZI34/sR38dq2EIiw2b+qIqSCnmsVTT4r17az3r143Bp4t7egvQs6r7lUP5n/N8O1iI61f79f9vr747xseL2+hUyY72rVcH0Mz3eG2jPzpRz6qf+hesdYar8b+Xneu4utbGJch7s13hGl7mCgCJsAQXJvcBYVwDtO4ZvNqedva9KylXkbuKgAtcB60bqtCVBeftHKLqioF83ywve0Yju+YBvmouHP+eAFpYC/waClNFJdgC9FrUBfo1u2dVycA+UhTu0ItAhqfDh5ZKkAFUlrVgyfuaTv/JfI1CBCztYeQE7MEAqJS05YcC8zfENijtPQS1GZL816iy2QeBoJ9AtHhjS5roWtzG1e78IHpgZeu2oXrB9Ks70DpkwnKtA7llPiBZHVvW8fmFT0+4HptxHsRCbh5ssdgam4sUcSmZAb1dSZlkP3h9ZPvZ/lB0ZUzlDKz9y0cS5qoAdRMSi3kOFk7C7kR8H4OXoS3TVrHuhuni+lCR0k33QXgg9u2LgNHZjc8RTCRIvc0d11LcjlgYWgGPwnepYamu2LzT7AFyaMBqvMj/7nO+tr1vVEL0jqq0vCuJ8uWv8U9tPJsH+s545zuJNgJ0hF4OBVTKP4DkOX99nIL0uKixwD4B0VKQnUgbTGpIii8mCDrIGs8dXyrJxGw5KEWIL+9Ixtr3yeznNlFvQnK1zpG4tpgY42GFvH9Z0vDOiVh3F3R0tnlJRvs0efy4LnK/TEyQT9rFfcLYmnJmJcX/nCg1Ya/c4h7r8O6mC+Z5xAkfiChPqHnfGOZQ4oqGLVPdxB2h35pIEu9labfWe9oqCB71M0kfOeFN/pHbqeEvCqpefNI3SatsWd1oHxVPytt2aIhK1V4c0XYOKl7YWgLF4KX9hUiZfO+QJPvNS+eDpPQLkLU594KZ8vwCxttfl6vDOmUwsWQ9BwKfnmgHMgbL91964Fio4jcpW7me0Q7oUjKu4aJN96oO+lAhL1vKvEyYaawcS0PofWnLfH+eKYpj9MgCwpnPSN5wrVTHONVH52Zm6YpoJPqGHGRsMLte4tsgqgtx4K7zfT50tot5sAXlALgwlNgEqmNebFXNW/mMzDOdzF7J+bylucLsS80ov5RQW9nk9Iik+gkmnWVsPmXp5PeQqTqvCOVLwIk7H70cL13c0EyBYmSu6M7CqfthXAEdVMeg4NzJshZmEc0eKqic8kSypAqtGHApK1cTyXz1ULAkRKiJPbfIwGNSlCjrB4LsmoWp90UEvT57qa6OKgOMJkzzVxQtJYWhw3XE6qMcNwhtVRW53eJUiemaszXJ9bTMeaYdioD3Sk/t7Uouzky2czcMXnxDbICun7ZGKFz6x8/YbJ+a9PxZRXakgpW2FWovMZqSsbJ3s2LEn57NDANqQax8V0UuaVXsw/rUxwiaNiuBV9McOV6yIXU2IrDpO7mENbme0RJ91W5j71UCvgOYO7Bxb0jcBQ7z1vqX1Km658KyCwqyYDrEgenFyQiDcb3B6Yqae71LBkuUNLzQRQ+XaYdNuYOLSVCGEChO731hxodiZx7otBzhR2XSCOWQZHtneg63bUpafpaE8SWHu6kBh3c8TjhGykyIdW/N2U7+jKBs66fRtq9xSD8AblVrjuw9P56L552vqdgP3H23D3nz798svX2fDPf9dh8PZPXwfJ1+//Aw==);lineShape=1;" vertex="1" parent="1">
                    <mxGeometry x="144.07355757563346" y="87.98625755936132" width="516.3799040612853" height="107.30935373815532" as="geometry"/>
                </mxCell>
                <mxCell id="49" value="" style="shape=stencil(7VjJctswDP0aXzEgwfWcpv+RmTi1p26ccdzt7wvVQ1sEpZfm2E5vsoRnbA8gwI3cve4eXrYbz6/n0/Hz9vv+8bzbyIeN9/vn3fa0P+vTRu43cvd0PG0/nY5fnx8vv18eJsnp6cvx2/QPPy64QiVMIM8/Ly+YQvn94uNF/LB/nom7TDF38kKhrsv7TF46eVUY1+UlUEydvBOKvA4InkpvkKuUACC69rkBJhvdOiAxud4kiVSBD6mQ9D6H2P5iEZAjca8hahhAFgpT6TUkoSwAECnGDpA9CfChFIomb9yMXARUptznoSSYh+op1Q5QHfShBgq9hhoh92oiNoAMyaefvQEUyiAPE6CvnlqJkYZE1VmAAPIpQAZADACgMUkWkBFAw+otoKCwyoLTNcNMc19xjrm9+kMyTSoA+4rW/BCmggBlAZCBSUWpw0MiMMBHC/DIJOVGGciENNQhc0IOkKlcmXAFeMqIrtza0AwQUI26VmAzgEMVJIMPyhakQVvpCEBcSq2E5wDE72KPLAV4BKhDjfp2Sq4BKltA9RhgilqLEIW1Dl1AKKGwlqG5ClUEyMQmrIEc4pI2pmABqB7q9UibA5AGP1AjtDerbaZap1HrK9emMgNEDLBOS2PXGsDMV+oVamTqg20zvh3dayUqQz28EdYymMSI3sEOG2+X6OgDPEbzQk2jGe7WSeeNDJdoTkMegA+zI23ejUHm3o/4P5/8zfPJ6MS/Pp8ku2kpXRH7FMAmc5ES2oPCkGodQBDAW7qqTrg4sd0h9A3qNDmT653WTSui5c/bfqy7HKJrGsKq2yLiUhzGDd1HETV0Rc59lCS1lXZ5Cde+1edBd+oETNI1P/Rnu9ctG2jwqU221xrFZ7vTzmgqDqZhKNAAxdn+u4MTH9uR0sHtezgYHJzruVXV7Q4H8YFJshFPIJLcLjtmN0TAGNc2ips4Gni8HfK41c8ycezFh/oObA+2ZeG+nuwAya0hLZcuuWptB+LFUpjhWvHOm7k3xfXhdgn4tD8cLneI8+/20lBfXS4c5f4X);lineShape=1;" vertex="1" parent="1">
                    <mxGeometry x="193.5518953147357" y="99.95007064505751" width="17.74285528848577" height="82.79277325278122" as="geometry"/>
                </mxCell>
                <mxCell id="50" value="" style="shape=stencil(7VjJbhsxDP0aXwmJ1MZz2v5HgDiN0TQOknT7+3JqyBlRnlfkEqBAb7aGTxLJx007uXq+u37c7zg8vzwdv+x/HG5e7nbyYcd8eLjbPx1e7NdOPu7k6vb4tP/8dPz2cHP6/3i9SC6/vh6/Lzv8POEKVVlAHH6dFgKV+mfh00n8/vCwEo+ZWh7kK5W0Lc9MJQzyUYgBQAKlNADsRhwAQGn5tgY0SmUbkBq1OgCkdqUuArLtN9ooVaq8DSiVUhsAufYtLgJqJikDoBQq4EotUhvNalsEYKVWKY5+a0wMTtBIYdShNYrgBBXS8QQ13wMr6USlZQU4Ts2IcQSYHxCgTYBGGbB7ATQPgFdqJO4E7Ybe0kHZAxKyUiURD0DU0EK5eUAD5DOr10kHRSckquMJMQTIPuNGm7TWBgBMOt8JncAU1AMq5nearpRBYtJwwXOsEFAmzwXk6thT7xmQKKITYrfJGSBUEYApZw+A7BPK4gERWSn1iFxlAejp0rPKGoBOqJPjhALit8V88QBUgpaInJTOKAvoxFbBOhhg8rTgE1wZXQyN6N16zK+Sa0DUqH2/FUCQDoVS9QBUd+1z5DcB5EKBEMRW9olpURrle8saaTIr4pKFqHqAYIC/kvQ8snUlVg+AeckCsnoAoyul7td1AOFCXabKruiEQqoTACWBRjwFUMTxECezJhQP6humhV1xG7AqaStXMzDT2xH/TH8C7PQ+/cncPPzvT96/Pwl+hjB6RUDXphM3So/brSnFZ3ycOFr2IdfOIbI1OPmxhuHAa3OVG5BtJQE/FPUhZ+NgBPwu0U+8Ni0qCOrMJCOXbKRloENiT29pcB4V8aWaFRZStpoy+sGmdjRTR+sepncBGNS+iWuwcQ29wztv37uVDfHAThwl7inRB+iw4ItV6BPXhrhTNUBKR4rRiTMUr+rEETu5F6RX8YCeb3xFw4k39TeIlTi4TPbtWui6b4hXvzt68ii9uVzZHQX6217O/ipuP14f6W4P9/enN771d/+oZ0unB0H5+Bs=);lineShape=1;" vertex="1" parent="1">
                    <mxGeometry x="238.3550953144677" y="106.35118187855255" width="24.238983038824244" height="79.32075332315287" as="geometry"/>
                </mxCell>
                <mxCell id="51" value="" style="shape=stencil(lVfLctswDPwaXTF8Azyn6X9kJk6tiWtnHDePvy9UVYkIWpvJTaaxBIFdgOAQb573d0+7Ibjny/n0uHsd7y/7If4YQhiP+915vOjXEG+HePNwOu9+nU9/jvfz76e7yXL6+n16mXZ4m3FCtUyg4N7nBUdS/y38nM0P43Fl7oU4NfYV2kdHRRr74CkhQCVXG4BuMf3cAiShnBtActBDVg8tIHsqZRtQKnnXAEqgErcBzMS+AXAgBh4kEbdBi8eASpVbgEbltwE1EoeWt0SJAaBY4ipTdPhIRhnKDPKgvLIFeJDW6i0PeqT/arwOCBSjBaQMsyTJAoIAQKZUOgDywOQ6DxFlSSh1QRfEdKVYLaAiD0pctDxEUEATIFuAIB4qJRN0pQDkPQXNFlBAE9AQfbQAwcTlljjvHDmgb9WGTZPmAbkIlHx3JhSE6rtYQEYF4Sh2HjxQ39UaZSQm15WcLFW7BWDDHJMgqv3C0woAg45d0FpBKK2JarCAgORalgOsPaAs8SKEdQzoSEpTF8MXFSS+4wEAVmpeIQq62b+NEF7kvI4CVIRkYpPYhAH+yjWXQNhcSNoYJMA86d1ujsQRdvzSXUIlkgcAHS5cS13WIwGBT+NLm9akW4AS0gHJlNC0AuQX9F5sG7iueKimpV1/dksqoFlq22jvIA/bd6c8DytazcWYO2hu+rBbON8wr9WYo0FJBzUx5uhqC1ZvHx32Orf97ijUtAzjK3Owe7bl5aDQSm+OlM92mHJw0tFp0dKE5pxvPly+NNePzzfSw3g4zE+s9f/2TaVL83ss3v4F);lineShape=1;" vertex="1" parent="1">
                    <mxGeometry x="283.95210856853464" y="110.35295614784991" width="18.538777739373927" height="67.51935383686043" as="geometry"/>
                </mxCell>
                <mxCell id="52" value="" style="shape=stencil(lVfZctswDPwavWJIghee0/Q/MhOn9tSNM457/X2hurRF0Fo3b7KMFXEsgOXED+/bp7fNFNz76Xj4uvm5ez5tJ/40hbB73W6Ou5M+Tfw48cPL4bj5cjx8f30+/357mi3np2+HH/MXfp1xPpBPMyq43//ekKt/X3w+2+93r0t7plA6+0I5A/tCIv33E5WwDghM3DsUAiVeB7CjFDuAvhEPAJUkdIDoiMEJsVDtAcmRS+uAlJvHF4BQAlnNyVYhVwgomqU+6JKbkzcBVbPUx1AZAxLlPoYq5AsACLncAUS5AmIQT+J6QCYPuKQusQFUiqDSc4g9+fTMEgEgEgcLCCjoRKkvnDiq6IRCcQAkFINY8imAAUBCy8kCEEBaJZIMLjECFPLVAjJyqVLNFiCIGmPQniJoUQXYGDwcAgoIfQNp3hi5VKhUCyiAGqJzzrCVW4fcBmi7BAsIoEXnrI8AxKVqx8wdl2puy+A/g9YGMlNjTisCMImpw2UsrJ3ghp6OeJDZuaTkQy5lKkM/IHprWs2Ou9dA3q6s+y3qeTgB0TtTHFxKiEu1lWk5yMCO0wZKQx3QuPdOl6aziAKO+DhCnXImsfVeR8SeHItD1xapN+NVc41WdR3mMbfU3QYoYc2qFrgisrRRdwEoX8AJOdjRVC4j/bagiRR7dqg+ESSZdPj17FAFJIB/XMgZyaQMBzGEakutKi6DtvYy6EQlLIhhlsZ9DKpEKwCo6uuTpFJXkDZuVb1KaSROhmbwUC0pT3sWuSaGVsxNO2s2gTO+LcurOVJiqkmiMUebjal4Y44uJWkM1aF+adJ6YY463rajw2vcKnMHZbN3trVc+8Bte2/vR1o5RDJvbzvKA5CcD18I79rrw/X2+bLb78+X1+X/9raqr843XX78Aw==);lineShape=1;" vertex="1" parent="1">
                    <mxGeometry x="323.15152973412387" y="104.75395344455205" width="13.968253770385218" height="75.51642320018311" as="geometry"/>
                </mxCell>
                <mxCell id="53" value="" style="shape=stencil(7VhLblsxDDyNtwT1l9Zpe48AcRqjaRwk6e/2nQdHjkXZ4xhodwG8sJ81T+SQHEpchavnu+vH9crr88vT9tv61+bm5W4VPq283zzcrZ82L/i2Cp9X4ep2+7T++rT98XCz+/14vaxcvn3f/lze8HuHc15KXVBe/7w+keUXPl926+83D4frk6Q0rK/iMlnfxLfx/UFCPA3wUUoYAU1SOA0IXrwbAL6Ikh2iShpNCkki8Tk2y1GMkvQ0IFWJZQCkIImYlEvnpAOyF1dOA0qUPDpdVBxhqaqUcYeCPRkgddb3gQ4SKwFUqaPTeBKID82L+gGAJ56w1OD0GIeWOKCK5hFQpCUKeI3rHoBXNA5oFsBYwt8+WEBlLBWJBtD6K44DcufkAMCSD7SWCVCYD0FULaAxk1zPzX1Nq/Z3HE8m+JimLQhNFTRNgEpCjfyuk9eZ0FRR894CApE+1EsqFqBEZwDQKTeoSd7KBgqiMJYmQEW2cEAZ8xu8ZVIQYMk5C2BKBgOcMSlyH6pVgSUyPPtitoBIAoeC8DrtwFQgS54AlctGnFhiXRGZE6MFVFajzQoTiKZOV1sPKCmWrRAmXywgOQJIvS0fACozCdlqfIAas5qenT4DyNIuMmnJTXeJ06hpm96c1jo7zQMHQLooNRZdqhZw5ihgTeLpDRetapwpIJ0OG2dKFIdIN+3ARCD1bvBOmUF614klJmSoOHeRVL71m3eK8cWAgy67bxCB2/RxAPpfB6Bxh48D0D86AFkfkI/MJCfBRA5FSiJXwPooNOhKmQg+rlV5ZAk9qDBAtCaBBtaDcrNiiT0Lu13i4jbugMtiIvmdcCYbcwnX0UySLxZ7YkqRRjpAJEbZiInWg2/2lo9LeyM7eFx4xzj40kcXx8VySj6H2BOWim1BeENhgwpxpqH0tnp0+STdjnZE7Qedt+VsHqB2QqFSCZvOirZSRfV26KOdqxPMJLuc2Z6sq9ojdzz957dT5RXn7XI2MrDzMKWnBKf2aKRUQ52zsyel8uO8bQMqjXh78fzv7Hp8eRs23m7u73ezysP/7XASj3aDzfD5Lw==);lineShape=1;" vertex="1" parent="1">
                    <mxGeometry x="361.5542958135002" y="112.75139237413441" width="13.237649803988916" height="63.433662032277766" as="geometry"/>
                </mxCell>
                <mxCell id="54" value="" style="shape=stencil(lVjLctswDPwaXzEgQRLkOW3/IzNxGk/TOOOkr78vWFeOCCqb8U22sAIBLBaQdnLz8nD7vN9Ffnk9Hb/tfx3uXh928mkX4+HpYX86vNrVTj7v5Ob+eNp/PR1/PN2dfz/fdst+9f34sz/h9xkXKpXaUZH//P+HYvj3x5ez/ePhaWVvt6UM9pkyss+kcbCvVOv79sJUdTyPEGcAUCqjAwspyPuAlElGQEwUy/uALJRGgB2ygRhKIJURUElAkpQppAFgh9QGAEoyVs0OycBDjdTCCGhUGACUAg+AkqkkAGiUR4BFVUFaW/Bp1UwM0tqmOmhdar8NyJTyyL2Lz21AIR3JXYWaAoCRr42AQoIAjXj00BjGEJiJx7y2SoxdxOYBBZDJgogjXfsjQKlbIp4ABR2JNwAN9Gg1ro2VW+VhG2G6lL2LCs5kLZSrB2QQtSbf1b2YyIP4FrJCJEBwjUvDXAAKW8iOxMkDkJRpWcT6AjDKo67mRVZWAAEeaqLQPCAgQKV8FaBFUr3mSHY7TgAUtJVJr0prZ3P0AKh9zU/dD6jRe36iN1SBTJE9ANG7y/FEb9RAfUK4wftRj1rlpiCQDJi+zwAkNDZB8gRAUmY9mq4SS+tRnSoHVeBqgCwhrkcEylLyDWFDKKF1w7gxHsm6lpFsZN+jJrcZZWny0EuJlcwJfn8EmIuWJRmFSQPcgPo2MsZgCw3idyn+SBk3hK19To1tKROwuuap0smkD3iwrdB5sMVSQcdJ8U0tAVIjqt8TbTlWtJ+0ZStcrd8FBB0CtbEOtuBnQO/it7627O/bEVBzRVg0ZNN82q4sP4Cn7Ne3AN812BfYSIiS6RuZoWSLf5Fh+JZxaag384Ck0S9UlyVue34srxMrc8BMo0FN3h7RRpZJsTo9aJWQ/ehguCQE9fPSageSaSyf7CtQxGvfsz+2t4u3l/r7w+Pj+ZvA+r7/CGB/nT8gyOe/);lineShape=1;" vertex="1" parent="1">
                    <mxGeometry x="402.3273857443314" y="105.5239773516679" width="9.344427787164932" height="65.77191027446179" as="geometry"/>
                </mxCell>
                <mxCell id="55" value="" style="shape=stencil(lVhbctswDDyNfzEkwOd3mt4jM3FqT1074zh93L5QFTYiKG0mf7KMJd4LUDu5ezk8PO937F5u18v3/a/j4+2wky875uP5sL8eb/q0k/ud3D1drvtv18vr+XH+/fwwSU5PPy4/pxN+zzjOVPOEYvdnfuMphn8vvs7yp+N5KS8UXCcfKEQg7yhwJ68KZVveV+LU2+OoeADI5HsFPlBGgNQM/g+oJBlqiH2I1Odcoc9vIWwAcdBpjiSlB2TKbhsgnlzvQwhUgdN6XurTFplC2gboecaH5MiBKOl5qY9Sys2rVYCeJ76vjEAMNOh53Ge6aKBBHrIQ92EtiTyIUtba7IuvOsqgugsT92GtoQV6HaAG9CZVrS6kwVN1FvBW8FsmlT6sNcFaKsGWtwIEUID6UKsFOJCHUqn0iauxBXoVUJlyHgCglvTvyNYkD3zQIObBhwBatCpHiAUUEFbvtF+GzDGyqTbeWgAS8rpQNIBCDgESRWcBATRElcYqC0AC1VeVmAYArL7SSmepASSiRAp58AE1hNgJpADEAtpBPtk8oImiPWpbLkMmUw1h6NGCnJaBBRIcuxPPDOXqQctpHko/UaaWA02tmS5uAKCmVmYM1iQ0USaiG5wWVHxlqNbUhtJWx5WBjRGTKcBqUPrGtFH5M4BpZvUaFkSyjtDdIloVaNtIxQ5eTQ0EBBLTo9rmINVxYLKCyzUKJQPAG1PQxPY9qssDIibR2jD7jDY10KArW+rDOi0swGndjGNvkq5EGfC9T7aDQiSPFlFne1TXugo0RLv06d6ImI8tF+uiW8A8ccTjJg3SPExEH+Blw9uZ6/HCN9xNMlzG0hAePNG50VWTd625t+RNfl1jwHV5sY3smj/r8tFeZFzbRrfuMYZa8EavyfTByoPzNV3mJvaBvJAbzgfVNt26ivUXxF/zy0M8kXxuxbvIF4gP6+oiRr6iq3Bp69/7VZuR/Gev5h/K68P7d4Cn4+k0f0ZY/m+/G+ir+ZuD3P8F);lineShape=1;" vertex="1" parent="1">
                    <mxGeometry x="444.2000384984217" y="98.3025500557801" width="10.98697625945124" height="73.03988468587829" as="geometry"/>
                </mxCell>
                <mxCell id="56" value="" style="shape=stencil(7VjLbhsxDPwaXwlJlETqnKb/ESBOY9S1Ayd9/X25NdSsKGcCHwvktl5rVnwMh5Q2fPP8ePe03aTw/HI6ft3+3N2/PG740yal3eFxe9q92NOGbzd883A8bb+cjt8P9+ffT3fLyuXp2/HH8oVfZxwzhbigUvh9fhMp8d8Xn8/r97vDan0SamlYnykLWJ9Jx/WNYoDrQx7tYYoZAjKPAKWILBJSHQD2CQTgRLUOAA49CJcBSiojQLtXFwG5kIQxqIUY7FAS6QiwN7m+DaiBwpiG0ogjANT+vQ6ohSowSSLJmAd7U4BJMjFDhALIg1RqY1g1UQBcsu9pGwG1k+UyQCmN1GiBEvKh+bA2hlFS+95oUquUgA/mYnYmaQ/0W4BQRoAZiQCBRD0AkU/UZ9oARWHiXE0bQBDA6D350IAP1SweATEEyA1js+TrEInS5AUyyirsOrdLJZ4AKLAlT2yyQCCTuLu4JgdQJpOVMsrAO/QrQtmZhHXDlMnvkLp8XiZH6C7+q+qGZSBSG3dQpQq0z5RpBiTE10kGDBCAbiiTjF1Xra8WAFAqeQIAk9qUafsE6qOmQ5U9IIPELcwpHoDovSqwVeYicsLY3DygNAAQSuIBDZDJwqRXKf5iQPWAjDKXSSZAAezTKUrLDqhrmZTJ5AMCWFFPeUBKZiVXypQH4LQBYvKAiHawqXMmEwKwnx4MwKhGhYp4QEStOlGcaxRwyYaLNtco4FKLXd3XsoHqoUwqoLBVm1jnSQUqSJxVnDrpww1iaWkTAE2i1wPY633DJwJjf3AVV7C4fsxYHzPW/zRjZapO8PEholginA/4mGJRSqP2LS0FaJ/t4OW4wqo2H5pTpgRPfxYlf74UimCH3LrSrQ6kAhpvzsTTkVfAtMHixdLomAGXeOqj5hXKQ5q0Lxe4Q5zozYpHLGpjojniqwqfZ3uDRuPge+JyOwNiOg0/y/UPiFCYlBgKTOqq+3p7hTikXl3wxY+SslteAaWjnWSCW49GyWjWi1uPZtU41VjoI83l9eIHyQC7mv3tZAWru7FZvT2Ia6n24ljZj+xpfXpaxQfVb/TkCbh8bU6Ibr0AOix3qz6eaIC89i72/fX28Hrx+7Db78/3xuv//UWxvTpfMvPtHw==);lineShape=1;" vertex="1" parent="1">
                    <mxGeometry x="479.4026542155084" y="99.14181001982843" width="6.8077282000786" height="79.66534230195691" as="geometry"/>
                </mxCell>
                <mxCell id="57" value="" style="shape=stencil(lVfbchoxDP2afdXItnx7TtP/yExIYUohQ+jt7ytKvFnL7GHyZozOWpaOjuQpPLxtn143k+e38+n4ffN793zeTuHL5P3usN2cdmddTeFxCg8vx9Pm2+n48/B8/f36dLG8rH4cf12+8OeKc46kXlCe/77vkHf/N75e7fe7w9I+UQidfaXI6/ZeqMT++5lyXAcER8F3AB8oFgAolFMHCEwCXJJEiXtAhneIkULpACKUQZBSIJEOEB0lWQdk9bi/dCzkQZRyIteHNUk78yagMMXcAS5nZgAQCj0xcqRaASDbsBalUlgHVB4AiRjcoXqqfVj1EwLyUKV5PAOEPOBSzcSuB2TyHlx69ngGFAqASwqQYE945+9aWCMPLqHEVUuNmqgCl+pc8QtAAidUpfdwQkJ5iJQGQEaZzq3kF5dmkIdaiYewCiggBRhdUkAFeVBANYBCEV26DkpZMb0LcbQApEsaRC8WUFDFCbmeS46ZGHOjyKcQSr/sBqdQCWncvQUIKNIys3MZ2DtFathUWtdbA3jjUm7Ss3YHzhYgyCXlzkA/Rmxi26cvJYRy7SmzBcAilUFd78iAykqxgIpOKM2BpZSBPGherW6oWAJqLMi51GMQps8jtDFauZw7321AaK180YXQRFN8o/Oiz2XEJm49Z9FJUWPM2Sq49mp0hyyt58zTwJ0T2I5AuoPIkbRIe4KnCIUmzb1/MTMVwKYY2sAzAzwFUNUS7QikO2jICsmeoMOpA5n2KgN9pnX8ZVBznluTmqdjPNE4seRzBSYuDj0FDg9s5x/lEWDqUGwOej/wmlsTXjGvzpijqVt7mzUPKFlWHxnmVtrw+2HOwPdotRG32WwDyW0Auq0Q9lGlvqNRxDYbviOittgZCpw+Op11p2D7zz1S79rr4uNF/LLb768P6uX/9gWtW9fXd3j8Bw==);lineShape=1;" vertex="1" parent="1">
                    <mxGeometry x="515.9547312960844" y="99.95127285586011" width="14.661392729929048" height="59.98147338421995" as="geometry"/>
                </mxCell>
                <mxCell id="58" value="" style="shape=stencil(7VjLbhsxDPwaXwlJlEjpnKb/ESBOYzSNAyd9/X25NZSsKHvcHFv0tvZyVnyOSG746vn+5mm7SeH55bD/vP2+u3253/CHTUq7x/vtYfdiTxu+3vDV3f6w/XTYf328Pf5+ulkkl6cv+2/LF34ccTlSqAsqhZ/HfyJx/v3Hx6P8w+5xJc9Cy7uVPFNVIG+v8yAvpAnKxzbIN0pIn0hRRv0TSTwPsO9lZ7BQRYBKebQgJQrAhKSkOgIqcYMqxTD6tJAUaDSPKmUmRV4qpKNXSyIGRltapFElCVSBDVmp8QhoxMBLpfS4doAqJTkPkER1VKlmSiD1NFAeU6MFGDgVynEEZMrhPKCmnjmvAKEGvNSST75mqQEi3XhSqZIwBqgHNGC0qSTOS63H/jQgdieuABkErprG2QOkAkDpr1eACrxkcUjNAxpQSU2l0UsxWG4Aq7VQmIxoKPtip6G1EQAglcpktYIaFaE4nVCADZKJ51AD2jAb1KmU4QnKFNgDIoicuVVcMjEMtbYp1AwLonKn0hWgALdaujpiugCwCvKBwyoZSSR+j9FWwo6+F7eC/F5l8zpyyAjLtSlyKF1NJ08DxujohDLlRqGMyHJqTVrBvCFUmgcoYqZ0QiXUndgVVdUDCiIa83rxAHTxqt0QycehAaOXGp0iLciGNF2LGV68ZoNM6doQbWhnxnVBgEhbHOJco+CE+tpErgH40nL9zAIAbrUwxekEvVAPE1cGVNSt5+YKgNrE5cKZWEDxCe8E/G9P/uL2pExH/OPtSdGJvhXPHKlT6Zor0RgkE5OFPv+eHrRslBsBNqRkUBA2yrmCMPZEM4fN284GG7Qy8FI0L41xsFEODSnRuHI8wfyGVJJOW+tpFBzA/k5cxl2kUD/9D+dpM2/8/jKwgygHP+BH6X3vGXnXW0XrAEGMTR9XCBRBwFK/XN82Jujr0i/vt4UMTAebWcfoBniZR8u34OQF8ESc2DFgfaq/aAMs+jR1haFvT07LG6t4+Qvbm8peHnzfCjhN8mh3c0If1Mqz+uVQIEaE0vz4Enq5naa44C/Y0PcsZzdDY7VbQEA+vHfBeFneHt62mXe7h4fjMnT93m8/7a/j5pSvfwE=);lineShape=1;" vertex="1" parent="1">
                    <mxGeometry x="559.0708311587769" y="87.08285117035211" width="6.408975356924657" height="80.43014646947643" as="geometry"/>
                </mxCell>
                <mxCell id="59" value="" style="shape=stencil(lVjLbttADPwaXwnumzyn6X8EiFMbdePAcfr4+1I1JGu59hS5yTJnueQMuVxt0sP77ultu4n8fj4dv29/7Z/Pu036solx/7rbnvZne9qkx016eDmett9Ox4/X58vvt6fJcnr6cfw5rfD7gguBIk+oyH8ub5iy/nvx9WJ/2L+u7GMk1c4+USn37VOg0NtXKgHYC6l09sE2lO8DcqXsAIUS8FAS1R4QAzEIuTKl1gMaCQLYlmKfo0Is9wEtkIQOkCPFBgCVQuoBShF5UCp90KVSjPcBYluqPW+RCgha0rzeAhAqgDjJXnktkSBA8UE3oYRiKCQ9QCKUhhhxDmBLMAA0T5wINeRBvVrVCgQwrYm435IuabjtwQq0T6sKMahQIy738tZGuULixMVQSRFx1de0AaA0dP57BUDE6cLrCoAKSPONLWWQVstJVA9oyMPQyKYlAA+qc1NZAQTI2wDqghYcgxK7tNobIG/bQBIPQKfDpE32AEFbinNzv7Z7hnsybdTmXSggwmqU1QMaKog8r7cCJFQQdgRGT4QgD7dqFGnDPIRBTBXHkJIHBJTW6tu36Rt6EKrVAxIqiEBpqKAI0mo1GoYtIR6mrjIUdQV9xrJe2GcJHdQmhDryAGp0peY11aAiPo+wYUBcWRd4CLVR4GFOxD1A7Lk29hUB7CTvPUwHKciTeXACn45qwPUE6D3YMJCRh+TPdnujKK3Wmvr2WhfJ35viHHE2MjWgpmm9PoayDLO3AdZee6Zt7KuAaRtd2zBYVlCkZfBgoyua77N4pqPxgABhnhVW4zeSRsp+mg7WN0BVX28YCyBQRSWnwyQ6X3Ju2yd/jtqNA4Qc/ICFh3uee9ayfbgb9owFyPDQXawtg2Ty3Hqu5gwEx34eNgGCPhGoRWeOBpjoJySGd5g8p/lqzkj71Ko3Rz3OD4QMMyPj6ug8tlsvD7GC5vPZe/z/7e3h+tHgZX84XL45rP/3Hxns1eUDRXr8Cw==);lineShape=1;" vertex="1" parent="1">
                    <mxGeometry x="599.1090344177815" y="99.91230855502363" width="14.067262589431266" height="64.25659550319835" as="geometry"/>
                </mxCell>
                <mxCell id="60" value="" style="shape=stencil(lVjbUhsxDP2avGpky/Laz7T9D2aAkikFJtDb31fb1Eks47PwttnViS3p6LqTq5f76+fbXeSX18PTt9tf+5vX+5182sW4f7y/Pexf7Wknn3dydfd0uP16ePrxeHP8/Xy9Sq5P359+rv/w+4hjymEFRf5zfBEpp38vvhzFH/aPF+JK0osrhTgXD5F06eQrxQXIF1q0k7d/CDIHxOwPCHYjoIAo5dgDCsUwBySllHsLBQoZmMhO6K8UhZY6B2Q7oVfarLoApZdESXpApgIAJbYbnwALCQNAGU5YSAGgCoXqAf+1ehuQKS2DDgUAxispFXRC8Vw1xykgazWb9CcYNRJSWqn2SgfzDNLBPjsA4xOEuLfSQgHJByo9u7X9wUzeEcPiExDJ5L0CQhUDaumdwJB51TKGCwZzC/KaMa8/QRIpcoK04GqAFImRDolib9RUSUCOMYD2J6ixHemQKPc6ZKGIT8i9lXKlBWSx9UrcE0nbmTOAi54SKIK0N1qpWHhgQO65ZG9QnrTPxQG0nTmLT04eUNCVtBWbEyBT3gD0frAkAnOMtvg9ASxNoQhNVF0FrTgFmJXYAzLKk6dwuQBUDBAdAJhL3qwVFjgL0Zo8AHpaqARvVugHSwLuhKXR8b2A3HLt9ErRAxiFqAye1laQpmZ1yTthepvjigegbm/9HDxgI814pS0GEZfsM3tARkpbAAVvVkHkeytEYY07tbQXXGJEDdNhABQc08U5rra6+s50bwDYLA0dYmBulp6m7yFtFMyNDwKibwVKbbV+CugDwirKVhPax2ix8QYDxLVXGxVFSHvPWd3daDZy7wir7FBp8YVaN1q+of9R67BQFoh+PkmCAyL6JlRyK6yzpk/cuLERENyq7EWrXlGeYV/ZbewTEEFGtezSd5s0p/Ku59u6kKOedcpIPvjo2QjP6NsxxhYV31EKblnV15Lc6t1sfHPl0CYZWD+LHxBDwoD6xjSGgvkiw51YFHFfUv22YZ1BkResqXBTbsWxlkl7twm3dcLMb44XEmCsrZN6HAAoEqKvh3alAgDrtoEHHUC+WPcZPFgJLZW0OfZyeYB3MuL8gEcHscLR09XiE7VKcVhPGPvQimUlp6MrnjVC9I6zURq1ShahfpWGMgb7tRWeZLh56CyuQF1uFeMsjqZ69gOAttI+EefsxBXenYelJGDPkCZSy/UzcV8J0IJxuLvAOXuoG5YAAJG5rQXO61psSDepRVj1uG2v3rcM/uDueFPcHs5r6rv9w8Nxy3353a+17dVxJS6f/wI=);lineShape=1;" vertex="1" parent="1">
                    <mxGeometry x="-94.44898784517864" y="302.04961878516974" width="158.3432476412213" height="41.94825336600263" as="geometry"/>
                </mxCell>
                <mxCell id="61" value="" style="shape=stencil(lVlJctwwDHzNXFFcQfKc5R+pihNPxbFTjrP9Pq1MURmCUmt8G8tokQQaQIM6xTff7z98uzsF9/3l+enL3a/zx5f7U3x7CuH8eH/3fH7Br1N8d4pvPj09331+fvrx+PHy97cPi+Xy6+vTz+UNvy+4IM0toOD+XB6kKin/e/L+Yv9wfhzsSxvsc5HqqL0f7FWltVfYlyie2mse7KuTVKn9+P5apCndTxjsWxLn9+2zeGffX4k/i5Rx/6VR/3snqqNDASAb8lHURKxKDgSgUscVQAllK7TuwRXguE9BujIAoopjAPx7jEJMkhlLcURvV0iERtFJjNMZIgF4S4ykNHARh65jHILEQgAg2hQ4T+IQs7hxBY3i2Bmy1HEFLRKYl1TyuEJx/ck2oElxFuAIIGHHI0AzPUPCjsdIoyCVRBLU9/pzI73xPme4hBJJSp56qSO9keVKMk5X5nSAx6nICnCimiojiVAJNdRwD2WN5FspNgquP9i2b7YrrBvctK/BujRJIA6qqGGjR1HzmP1UhX2WTFhUEYE0OiiIJyxCVTcnXkoOO3LrNL4uYSQGzdkzLMlEUqd5m/5IpkK81OYoFJprLdreg2Rizb/lnigrIPVTbQNqT5QVoBzQxBcLYHEAQKd64UnuAGAUEsqwI9TwztnsyY1qhmUJbwFMJC2HGOmqrtecPYCpkihSlH3VZpx6viU4xQACj1zpDfl6BQZQqxoAYHW4Td1KV/G0B4jZxoH1kgVgAldpYQUgmQzi8hkAq7e11/I9t4YpIZjMAKBGC2D8RqTTDGBlo035oF1t7QFSnQ7NKlmTGqxbaeCaFQEInDK3ThoX1FCecUbYK++JAEQj7H1/sheHOgEqO0O11DhOUa0WQAvZqwEY7vIUB1Zm3JQP6ajvBtMVa6+224BqyZdyz/I9KaBmdPBdue+JDeOl/0J8T84YfQj9w/IBesnQO8QjQWbmpUWBMv3j7XDiPZ0EIBGrGeyp5IMENRcBsfe8bXsIvLElImrMHsPXGARM1oXMb1oljjXGcxGK4ctKRESNrADqb8zRpMbkZAUc9BjbUmr2DChKLBlA/WAAPD9B/WruM1IfAbcnxGrn6LKWqb0ZNIxeAlVYR4TONj0XXKFTbpQ81kmQxRO3AmDisHiJkC+Gqdavm9y7bUiTMmEDzXKfYdIh8jsZNOlxBdTJwC7SJt2AcYP1q7D28Ct6sxkLQ2GaBu/KVlinkastsbnVVzupZ9cl4DYg2yqGBGJ3Mj7YJl08Bzg7J6LUsi0V267QIpl8y1ayQmJWdqtkiXQ132wCnJXp0B0sPyemNj4jup68N97gwv5VN8Su3zffeAM92R/ccK+EuXEEmKbJgxv6NfxXUz2bDZ2doGHP1LmztSspzUo3ySOll1XgT7L27DLMTwJP+yi6Yz/vh9sbPh/sJ1iVfXDeYIXLgT9Dn2xujNdUgQ748PovQkf2+PH/89On88PD5evV9f/t5yo8unzqiu/+Ag==);lineShape=1;" vertex="1" parent="1">
                    <mxGeometry x="118.16174849276013" y="275.024476910187" width="71.57307614013644" height="43.29609208995009" as="geometry"/>
                </mxCell>
                <mxCell id="62" value="" style="shape=stencil(7ZzJklzHDUW/htsXOQ9rWf4PRYgyGaZJBUV5+HsDZrzqehdVp+yNV9qR3YnOCcPFBfK9qz/89uGnX9+/K+m3b1+//PX9Pz7+/O3Du/qnd6V8/Pzh/deP3+xf7+qP7+oPv3z5+v4vX7/8/vnn7///9Scf6f/625e/+1/453e5dJTtQiX96/sPej/y+s9P/vx9/KePn+/G56PN6/h6lPp8fDlWu47PR07Px9djXdfT9lHn8/H98F/dj5/nTx6OH8dc1/HtWPn5+HXUfh1fcL/72Pkyvu6jdzhPO1ARGMeiCyjHuO6gtqPCDnI9xvVIazkSCTTdc01Hpj3cVOAUsGMbA/eQcxCgTadjXtXIDjrDHraqhW0htefjZzjUfAwYP46aruPrsTeqabjlDX+/HV3U2gwVDqgFM7D1gNm0o4kZTLwxcwpi9hnNYOh+u80IZjmPLn/frADG71Mhb+PNUOE8XYHEz9mfgAlMRetUgQo7NiMQz2JLoiswM1tDBdDMxumZ73z1JDMbR5cZ6lHJzMYxrmpt10xmYwLzavlt8bFOjTfuf2lJSzWp5WPRsW41HfPAZDoW0rr4x4m2bDFtin9ceKwe1JIuqcGxmnnOq4CZ/4ZjNfvcIaxRGDQDHXJxpiy0pBGWxHHKBJZc3EQX4AJXbTVdojjlAkH5BmAL38M1ihi4yGBAJtCXCpCb9LggXsPiDmirCeSiAoR37KYVUCW+uH7ij3sB2oPFqrAH1NZ+pKQChCFdvcOxEggzAfFLjgrZgFpQPsILPoMoX311SkmULx+VvEY/mniNjbjNdUkE+hm1HwtMhWEO9CCgGOhK4vle6JJ50qECFB/s14puzZFBFDXYpTOUo8Mp+RZl0+30588E5lW9zd1TyDJk1yRkJbw4W0C6zmC6NMCmTaCJ8hk6BOUzgRENiLKqpiGrl9PKn84gAu08hmentMRrLE70imqrCQzQ1hoyJYM/lWbIGoF6wSzDVS3EB9TWqqfUbiHmsYDhaPEaFTHfW5pwj2ZohhvovPcalGlk1VY7N1I+W3G5OmPzI5Nyk34G2ZvAOBIJjBPs3ATqCd8fCyxlJcqLPWy1h5JO2Pg4/8kKQw2Y0rF63A8zkInaksQZ+x7AzTg6qnpK5PksBCZJojl/sHsoIrAw67OblsBeE9qDCQxRb6aTWgBYbiEkcMPyd2CdLM4uTiPQRFfZb3H/bkk4QwmBvZ3p72OBqiDRPNUgtqGeyfN92CX1bgqlLdQTEjDXK26mcATqIR1wN0Mz2KkH+ENx2gS6IIGNIcsEpoTdjspnAhrjCt/0DBFoI6o0AdGlMdHd27EKuTcb8o1OGVyPdeUzJX+mGuO66WV4iZVPnPE2jEabDkhg35KcZxaXrse6FxqQZ23XU8opnUnL04hyPabNPK75mS5rsrsk5zrV3+/K3nhqXrY25sfu+q7eeBUmHQNrOjura1Ln6upKXqDqpjun7KauAo09sLIFyZIM4GyYYViKIuRMw4xjFGXVPCrSDE1jlgXqQjOYjQrYYO5xDM1e80DOy66pygwVWTUTGFfVyBkNyJbUwgyZZujqZ/ItxX52rFs2Pc/Q/fQemh7rpHtoSmwU9mQmoNC4Y6pomxYeuwy0ODtW4bGdJqBTWueK70EfLWmrxTk3AnF35nBKNyt/LFAeoHWKu7MqOskb4665LQkQphrkKudQv5Qbeg0TEPyTC+LQGSpMman1GXIau0m6hhWYREx2bQdaaT1D3uPxsSSFGHQGnmWgw5iWHgkwQbZrhETXbgDd8FRgb06SEix3w6KnhtzhCkZTmGF7ICLUBKQOarEHI0NTa64vXZgEq2bXTP6ih2u2PVAldJyGchehKdcYKxTKChbKZg5M0a1C/UxVhXDoHErMOOvSGTZc3EphDw1R9GphDxWB/Qr+wlAvsSz7Rqz+l0hpN02wnFGgGUYoMnXM+Qwya+2uok2bgNyDCVA15A2U3wvwDLOoQOc9aFWqnn/imcAOFkfKd5eK3Em82LVi3HbWYZ8KyK47lqX21oqlCVDBxQSUCe1IqJmAdiB0ZK9cN8KSiKIwgdzCHniGFE4p07EuJWdfNBO5QFaBRjb6aAZi1X0PgWAm6nRv9ZVuEHysNVhQ4yX1pAKUGbsuhfoJQRPX1rAk6t7ZW32lt8u8MOpgcZRrPDZqgtE+RVcB4rB918HkaE3u+4IFNfYC/6NAoK/aPN3nsxikHSoJ+xZ24OGdPQIBi6MKTyoeq0Vq2UPvqH2GBQRI93EykU/RhggwyTebGnVnSnpGLMDdHYbJSij3UQ+Mob6c9B4wcW3Kzr6xTY8FqjJwbg+0h6I3XTdmKKOE2lo9ydFnS5L6YJmc3ocqqmW6BLH8WCVH4RqnJTWyh5yQJR/BzXRstLM0Ll3jdMEOmIi9E8IlS0MlBWJi1oxHfFJCkt/SYgGtGStScwctQmp53XpjbpwperwZAKh3AJO32FqfzRVVYi5NNTJjtxkT44kR3e8s8DF0SKYUKzA+RDfOeraK3ZFQ5C0sRxSY7rwY6UU6ixj3LC55i6WpRrmFx2emKXDSu2uYb9DOxYQpn9MHUwWQb6iBDORGbXORteqxIn1QQtm7Yo44SqBM0ys3rzzxxFx9VE0qzR6Q0QjN1Llg7WeE7uicWJeCm+fWlxFqoRNLRc6NSW0JcysfLzuu54zPBFrwMSgwNRLarY0XJQ3xAIkFQtti4UroqJqB+imRfeYHDXlkn94AHnIr0jxDaS2QPliRjkzXRtbXC9bXixtMUXrvp6jewODQtpaWVuXK6dKu3LWxwOxdvlJgrtjG6601Uszl1xfev9pUgLJov6brxXlmQzOUUF/OSO/3qi8k1sAsuoeeWYMqlBT3rsrneQdtOuQAYyCR6+otvctcVO9Da7PeOwMm2ofW07zDiAR6aAnnt04mIDddByITF5D2oIohtDcFGt74wg0Xihsm9xOV8BppIzdh9iBNIy1z68HWpyr+aoPbtLT1MnNfV2hAaowbnCIVsLQw82mxOPOibbEqIVML0oGthZa/jVSD70GCIitf61pFKC/76xRH82sBrw4J9lnIEZlqCLQ3JIBBMasjywzte3ghaUvaZNOhg8/r/BwfajhWEnB7EJTL/KHbg8zQT5rp2U3rxS0kr98eCN4lD5S5thzokoYFJnMqOsNEXaordEdnLITUEbwG91vUri0gjR/p1fBQ0rSL+Al37hLjOjfOlzNA3ROULx4whIIrBRRva79anHeG0abLg8oJldZrDuRe4db8FLpBN6L7GhDZixhXQu3x7dHEY4GlN/1qhlChNW0l6q2E/uvWXr0m++PN3R9v7p4IPHhzR8/P/h9v7rQWv7DSUkJ7nas3vVerAVVyiu9cr9SjuHG+BDb3xdOtvMMpcRk7Bz66TbyHvLS3szNDbgI9JE1EwZmA6tLA/poc22UWFrBy5DU2Yo0c4vTICBJz1YrX4OcF3ix21dZRsD81J+3HGxk5gaUJ+0hM2mnTrx0qpUw9eLGONexwQp4G0kuyAMYWwr0SIgPzPjWQ19zUWcNDHu7O6OEdT+YK5Rla77lxOM8VUqvBlp9CY21HJi2X0Bzc+NMHVVWo9FdfehFI76GOLL9rp0WZWOs2y9c3ZxvzGJtBzMZf+PJnNPRrDC/6rcKjzcot1Lkoo1k5sNlNaz9KxrCzlVNq/ARhhia2F53v4eswm5+ahHdOGRPoqtSKpTAICpUCcBqOLEFrRJ2heVal61wvSWG/XMRN2ufr4+F+kyZgPh5cS9JCg40nFJJCU8xE9JhC88ZE15tC/wl/nSf0PjmRi+cp7fpv1PKz8XJfHRs30oN+YD4foWxffBTt9Xj7x9sX2H75+OnT9w+43f9ev9hmP/r+tbf6478B);lineShape=1;" vertex="1" parent="1">
                    <mxGeometry x="183.78200413562172" y="256.3714707653347" width="137.4593405610526" height="67.45454826644198" as="geometry"/>
                </mxCell>
                <mxCell id="63" value="" style="shape=stencil(rZfbbtswDIafxreERB153XXvUaDpEixLijQ7vf3oGUos2v6DAbtzbH6KePgpaghPH/uX993A7uN6OX/d/Ty8XvdD+DQwH0773eVw1achPA/h6e182X25nL+fXqff7y+j5fj07fxjXOHXxHlHQUaK3e/pjSMpf198nuyPh9PMniMV19nrChy3gRAoG6BQqttAZEq5AziT99tA8pRKB4REJQNAqPY+x0wMtpR1x70PKVMO20CJFFMH5EyRt4HqyHEHlNTerAOxRb0B1ZMIAAqVPkr6Bvkgjmq/JfEt9+uAOt3/g2RyoJb0c0gWYOC0lObiDEgg0yLEvgcKOQyY0lAgY0CMD5UY5EEBIzgFBIVV1zNhFVhLGhMj0dErnLiaLIBqSZiEFwDKtCcnFkASrdJ6xAwICKiUgg1rRQKq5JaJA21GATZhLa3xbAG2NDIJaDPirKbH8gZb0rDaPGirRIkLC00/kKh20sWWfIISjdUCEbUZTVO2QEVR0soJNg8RbMk7ba4mc5p8/Bc5WqCgRNQVyTFqG6V9ngEZZS5RXChIUCKCPUZncfhPRNE9m2QzTHYpNk711t22DtLca6gyZSDr4lpvnB2kKLA52vrT096j6aG08rwNA1p/IEppIetY4EATvW0cITcZrs9Yi37MBfYyDiQm1TcZrmsoWR+8pwq25Cj3By/DYcO1pnI3R4PAQtA6mQA96+rFmAcgHWdrTkdi4Kqn6I15AgXHS/MAqie0xe7mHphHW5xYwdmeaQ8Eb5uQg4Vc2+g0cxUNLrbr3opoo6//29Xlsb0+3O9Jb4fjcbpmzb/be5W+mu5k4fkP);lineShape=1;" vertex="1" parent="1">
                    <mxGeometry x="335.1509728079727" y="243.1564070986566" width="15.439893145447058" height="46.93996389756387" as="geometry"/>
                </mxCell>
                <mxCell id="64" value="" style="shape=stencil(7VvJctw2FPwaXVHYHpaz4/yHqyxHqjiSS1a2v08jCmmiQfYkx1T5Js2gSeAt/TbMXXr39eHDl/u76L++vjz/fP/748fXh7v0w12Mj08P9y+Pr/jrLr2/S+8+Pb/c//Ty/OvTx7f/v3wYK8dfvzz/Np7wxxvOu9gHKPo/3z4owdX49yc/vq3//Ph0WB9dtWm9Fdfa9XpzJczr8YR+vb666uf13oV0vT7g6zwBMjYUBCBuX++A5HIWAHNWZgCE5gWgudAmQKqblM9l6l2JMyA7E4eOuwx3QHRBHDpmV+oEiN11pebi4ryl2JxXgOps1gM+8WpLzdXCgCrEih2XGZC8NNW0W84OMNeFpgGIZBowFqG48YbFWtUbvkl9B3TpDuPQs+JKl/4AQJ4PXZtLRQPmM7TiTHj02NJMAR3mKACQEjlQN5eEplPYNrADkosmAPDgWUqtuaLeYK7NZ2hRumhqLKVqzguxgiMaESvMW/gDWCiSpsNmjucAc3mWEqg4CCnl6hIB9neeAzo7EMhbUSWsP8+HNhCZ0IMFtlYDeQqxYgNE9+XGluDBs+JK2eR2DoAtzaYBj6vqDZltqSZnQqwGFmoMSML4hkxoS/BpYRqDVOjQabPfUwBMLRGRVelxZXf5A/MlwUsluzCbxuBW9QbbZHJgbyVW6DXNUgJTBaFpAEhxCJMmNA0P9hRFvcw1ACDFjXxLbQlSn6kydNdEjAOApARAVlJCnDYGRH3oGhmgaAaAtmxJ5UswZr9sSVpr2553AKhMYLhLZD3IMyx0P3I0wUsDQJoGeyt/OANITQNAZ4i3pMRvKFvkPgf0jasPWaXi1uo5Ag0XVQAckTKyfZPngMSJbg4y7NayEeORZoSL1u7S7NMIxEXoAYlCXQBBsDfSqRD5DMqWWt+YdJdSl9k98q+UWQ9dkEDPrlMqDU2LLfXi+izWkb4L4+uN60pUgl74AwCUGQ9/EKbRQTNElaBntaXCaWjIMv2BlCh1CEF6HPRAFUqTtNT9FmP3MC39rVVXqNbdaqjz9VDz/Pzkutg/THt5vnK25tkVTGZ7w9eo1HBe0cWeCx4VoOiiMm2jeC/C6gDws6uB51XxMwBkprt7XwGIkEaprhogdVHaHr2upNTnQ4OQulZbII5s0tXaUo+ZrosbGJEMo2hLypxkIP+UZyhLadJkEQrfyZkBXZAqKkiLDEiKkDwXoaPVJcwbACNAkGIFgJtvQdoSAH3J0qti4bDlggeAiugAWGCACm4ArGdQpgFAzwyQoSdylg49qG5aj+wPpjuC4w0zL6EGlKaBM5C1mixzh5QWgOoTAcCVd9l88FLTkQGq4hu2VBig2Lv7kzOYfoMtYm1KcavHJZ33+C3LOQD8jS0tHRCpOFg/edyNnMEze8OBZN4TOCial3XxMI24AARVAsBn8JqXAld849BqS5HDLsSqitDhoiSlJNug4w10Bp3L/GcAsnTqX5eo0/rGYi1JSgkhKxUGyHzPXKsMUF1NhN3Y+AwqS0eGyC7aXVFv8FtR+y+blLXz8AS2VFQBV7mmzDfeUDgCobxSHgeAX+rirgC2TFuKFCsAdY5xoctu2lrmhrQ1Ri/TUC5N5PrGtU+WU4S2EOUe5y9LjfkAXrZLYNrUI/Ky2IPvtEzrVRtgED01S1xW6xPTRXamKNK4OVmlkaK6pR5A8Ftac1k/UxNNk0XvnFeFJnsAwXv2A9ST/4SWyz3NQort1qkpSU9BlgFDrNTIuNH5WEp0OH9RNXff9HpoKMm6oTCnZl2DwhWIIsegRvlm594KAF0VrYUz4m+joKu2G3fRbOODq8aeX4bqanhV+tKy6rJ+K+1kmHujM056SPuw6XIcQNZapct9HwdsgO/jgP/FOIDZu2g9VO6MJy+5dQxWyUWrntgZdxtAMyqrRzpLEzvTmRjSWTpD8TKu4+u6jO3VEBH5b6T7FklelLH9GsAOqHqYu1zFQQBQTRxb2r4AqPoNtRS10pH+mdpS5Nyh6v6eLfVbjdK8bSlaETGkWJdCo2QZp80vtU+Qmh63IeY3QDOqn4EgSzfNxl05dd8CQqQ6ustMYDR6Gx86qlspge/uVC/z9DF5mh0IpiGv4pQt2dkLDZP3XlLmey9jnCXMe/TP6XZQlbaUlq7PIZU9RYyLA7Mi+t4NPgc0br+hQFCHAIAi+7h1JWxjBVQ9PIlLREEEkFfNGmsO1qfse0y3CKBbVwOwZImqCo37La5DRFFp5bhCSCEoSL6PhUcbSffgxxiT5jlJ3idCjUTd5TEkVwB/MgBSNylD4x589lLTwXiaO2beCpDY5UBVXd/KtWWOoIJcW7pvSTb599bzgVqTcJ/E5TQCvRqqrbf3TM6K/dIMNJl3Lzd+i+6NL53usV7I03N5VUxOKDznGFjvhUV4joUIPCon8ZzTY726AurZy0bqp5+/XHhT/Ou5AV30bTTPkbnobNuzw4zGqtQXlfQ3ruHfXo8/vt35//T4+fPbTwaO3/NvBPDR2+8L0vu/AA==);lineShape=1;" vertex="1" parent="1">
                    <mxGeometry x="327.9536125120617" y="248.1502349507" width="142.7504828824567" height="41.34189148705468" as="geometry"/>
                </mxCell>
                <mxCell id="65" value="" style="shape=stencil(lVrJcls5DPwaXVncSZyz/Eeq4oxV49gpx5nl76c5Kj6L/fRalZsXQiC2RgPUKX34+fjlx8Mp+p9vry9/Pvx9/vr2eEofTzGenx8fXs9v+OmUPp3Sh28vrw9/vL78ev56+f3Hl3Fy/PT95a/xCf9c5MylMoSi//fyh+Ra+P8Pny/Hn87Py/Hol+Mhul7U+bx+fOiuRXXe+nI+Ztf98fngXUvr/YNUEIIrbRUw56sQiK6uJufqohLYPDgFSpqXvC2Q2YYaXOpCoLgaV4HuchMC1aVVoJUZyCOBssatB5ezFIhr4HpzQWnIzq8arDovvNRdXOMWvHdeaEDcdgqUk7ZPu7LARJyReeuFepypdfN8cnGNcmsuCZfCf2saNf35I1EpK5rrJgTMlVVDTTMotz2KC68mFK0hIVFJADaIzM7IitWpKLYuyhmfR4CUg/MCwIqxl3DJJNxai+trZicvNTQkxpp4sWiB7MLqJeSW8tJIHKqF5EwErm3/3gSAkiJwsCF01qDqH15qq1sB9F4ErkbGYXhJwSowMVeOQxCAUbdEuIq0FIgTgLZcQmSEW2F0WI0uCJyAJLg1rdmK1qDaJyJdbBXIU+dtlER7y6whiUh32LDGoUSJw+bnjTcvdelWSzOumwBySaQ3NCSqONOtYQeViLSCbiA1xSHFCTy341CZx6AfeWFDNa44EBkTIIDka6uX0MCUlwqwdY306Egi0tnYS2gA6ko5caShIYtsRZiMrhQkm8wAAUK+4rJIb3QDnzkOiiqVsOO3QdK90l0lfpgkLqGh5MwCVUGln5mzCeR5ySMB8tJoWQJm6p4UI3+1ABvdps4jgURg3GXLgpc6lajJhlJ22Zo13UPgqKYhEIUN4C7ZdhpEAZXKjR02FC1A2AovqRJFTXfPcWh3QIByqbqqshUadrlUVBwq01Zk6x0B1pC0DW1mzpVAUpyvz452XaKa84WdgMRW23G+rOHez/q6ElAdaFQcXUmPP6Omibei62kNlN5IvqhhxpMGmyzwyEsMAibZTOkcaVRcUPXQuCkOAdGnf1sATZEGXXhJ9Ti0rE5uLXKshE9oaEpRovcoSNqB4EoivZHMtl4Js2YSqTF48CoAsq5GUfjE1tQIRQYO1IGWJpj3pYBxto6RRtU0cMlYQxUaMNsSeoeqx7Iw47oJNGeKJPYdhfOSCYB7U2qAJKqliQXeUWAkNyWA/kBtN8qRxjpvNQAzUS1+/G5vghJpSoXxJgcDhGrUtt3gakRRBWHgU7SBQ7aIjjJmmrXkAFVdDRCVUQDoaQIrMXHQAFG3veLR5NdWo5HAcraMPHFAQFGB2jlwuJIyelygsdFZU2N2a5UFAfgOFOkwa+qIzuTdvkhtczA+70lf1AJpR+9N0cpyo0ajaqOV13CADbVVGyPKeqWgp6YaeER5X5vfFsi8O9UmIJVoXZTlEr4V3keniYS3q8fz7qdO3ntUbXR/dJOudq22G3WDvBHKk8gSJldFllriXVE0OTHVbft8TbxVgwu8K7o3AGUeT1A8QXhpTN+0jYoyL8b0shqN3FXEGz6htxOkoirPGHkWaHpMHA8Vq9FIRjXqhsCp0e/sf9nmrics42G9m5yXULtGDxVhju9HAp1Mrvr1Z7emrHbnVTCv5V81BeiMR0Xvfhs/LuWm8Wv3KHAH5JkvgCWpVwcUIhG9op81Jue64ttqX797ELjzypomL32HU7l246e3e9aS94OkwbveETQKsa1+vhkdHCeA8JLZVe7eGh0qT1L6eOO3JH2ZzmOXNrXzbkc70jiqOkzGUdVJ8NvfE7hzHD+8fyXh2/np6fKNhuv/81cY8KfL1x/Sp/8A);lineShape=1;" vertex="1" parent="1">
                    <mxGeometry x="494.008729952508" y="239.68052245515094" width="41.896360155769344" height="30.179869287183692" as="geometry"/>
                </mxCell>
                <mxCell id="66" value="" style="shape=stencil(lVnZchs5DPwavaJ4g3xOsv+RqjixKo6dcpw9/n57VsuJAGpalTd5jB7cTYBzyu9+PH78/nBK4cfb68vXh7/On94eT/n9KaXz8+PD6/kNv075wym/+/zy+vDl9eXn86fL398/bpLbr28vf25v+PuCa1LGBkrhn/8fNInpvyd/XOSfzs9X8iqpGXmNkuqxfJfi5FUqkR9SrT09Sy/H8jFIKgYwgtTGFIxk5eFwZw53a9AYUkiAsrRo5GMIEsIxIEjOVkEWJfJRmtoIdenEoCK6RLREGtFgI4qUtUwATYZ1GTVRSc5SFa226OoMwu2YNgndAOqYUbjts04Xd0CRNo4Btc+q3AFhVuJNQOsybNoKL2ztEmzeSpVEfOhVitOQaaWOKMH6UNCbDFB86WXUNgPkWQg7AE9IpmGS2vZH/7F27sNnGsWSSHUjSmrDmnZGuA1IEq0Psc6CP0pctj6gQyKpVi3SXXlLZfLI2/AKlNSeBilWQVRR0tK6cAxMGoQkARjBJppzAHwYrva6NNYOWbJlmbqn/jagelpCC3Zmkk7a3WmpTe6/DRgSLWmAKZWY1ONs4CsqbgwAp22URqKl1JtkqwE9y4hv4/bmTcrsfM6TInaA3gM4WtqMZA2HA9xpALMxAFy0icMT5RxQowcw4oPFddEQST8gJm5MAiAzwEIaAHSWOFR/8lFi1ApACT4PlTkNgKtWnYE+AiRnUuca+jKaDJ5p9aWB4S2wsDZ/6gJQmA/1FoDVUpGhHhAJt/6qnCunKzMpLyNuv9fT2WVa6TDTF25F3O5oUKeh8o4ri4YyA32Uh7g0EE0cpnL1gDstugISb9GwmESjtM/ZV1GiJDAkR58Huiz9NqAv2wlalGc6uo67c+yCBKxJOIFYA+HYTUsDseEeB3tOPg+DmQQflgVlsPEHA5YlgTZolPBvV0sYTthO1nS+bx9/Bj3YsWW7PRoD1mAmVV8a2EwD04Ag2ihhSGSJgwbXD4NO3nChu2WA53kZQvlejLqI1cuzqbiLuiGXDsVYBNwQAIc4IxXbOjFSwFb3zWcgEIvQWW4GgAus/cf+vquiYMPbWNarnGYzHVwGBD9FYxlnizFUuIGyBGnsQqbd2HPZroGZOdlCLXd4eBn3sKsHxmFj2aR3Gjyq7Wg11EhvoVrwGrYLCgLYDHD7ErifAHKf3b6Xd6Ysmfqs5muWJJlGP3Z3t1fp3rot2tZpbFCdAaJ3Gqc844Ax7y53CsMbGG9LdqdhpnsxKMO9n489SYaj1EBX0OTvV7ajkNizXK8o37qDHxd076UDeX9wKr2CWsii7RE+kHezMw4hVnJhoWy+VcXFnkIJNfr4o2eUvD/5fb7t+/fB5XBc3k8vPv1l9SZP4lP8AgZ5Vg/VH8mID5sGq9/XGmet5mfBbYwh9vzu14j78vjx69PH5/PT0+XLyfX//acSPLp8Zskf/gU=);lineShape=1;" vertex="1" parent="1">
                    <mxGeometry x="536.2836927096437" y="215.09048890075348" width="40.37412390496365" height="39.776392109597964" as="geometry"/>
                </mxCell>
                <mxCell id="67" value="" style="shape=stencil(lVfLbtswEPwaXRckl89zmv5HgDi1UdcOHLdN/r7LClS9a2mK3GRqx9zHzJCa+OFt//S6m4J7u17O33e/D8/X/cRfphAOp/3ucrjK08SPEz+8nC+7b5fzz9Pz/Pv1qUf2px/nX/0f3mdcoFg7KLiPeaE6Svx35escfzycbuK9J+8VoARqZRsgO4SmAJmp/9wCsCSgASmNPVcB0VHVKcU0VlYBKZDLCsCJUt4G9IyTAoRItW0Dek/0Dj6RAylVT0HXkMfCenyh5FS8I+e241ujFnRClWKCgGhK9hRBya1SLhrAownrgEI5aoBMoQJAtlztTUJFJ+JgdyiA3C1S0GOTOYcIAEwx2i5VVENYmUNDNQQqd0zKGNC0fHwgxjUk3daGmREtMwrukUxV9yhRQ/GZijfxGRGvUNX55KGNLaJWnU8lBlITJSRNbO+oYUAzgEgOeapbxLsgCjHSTqNs1IltW4o2hhSwCwvApCRj8IgWmarRf4a2LbwozgKgh8VB/FsXxszOxjBETagGJqfb6hvmqvyfGfXC3i2A6ZIXC8Fy/hyginoNoA4BrgN40P+mSw1wqURquq3s4Hmb07Dp5YDGgCR60S7Zj2xgqzGM4/jmkuHArYQXIiwmJm1A15g4Xi+u4SFbZUymaBmlB4qLlHRG3XhAzUzFnCQO3wHumCQbVKCGu1uSxKMCPDHr+DJ2XI13VLQPi4V4GM+moREajLNibh6y7s6Eu5RAvY687o9cyhwwbXForbMaYX/8ODSW+OVo34g356YwNIF6P3v1/3+8PPz7zng5HI/zZ8rte/tdIkvzNw0//gE=);lineShape=1;" vertex="1" parent="1">
                    <mxGeometry x="563.8258655138338" y="231.97543404858288" width="27.688712065814798" height="9.799132903773625" as="geometry"/>
                </mxCell>
                <mxCell id="68" value="" style="shape=stencil(7VrLbh03DP2auxUkUaKkdZr+R4A4tVE3Dhz39feleqHJ6GjmTAt00UV29lxyRiQP37rJu6+PH7483KL/+vb68vPD708f3x5v8sMtxqfPjw+vT2/2103e3+Tdp5fXh59eX379/PH+/5cPnbL/9cvLb/0Nf9z5gmvamaL/8/5AvSvt7yc/3umfnz7v6NUlmehzdSGf0zfX/EyfnSf0ITpfZobolBwoJJfazOCdj4RB8UipuFAJQ3UaZ4btm8cMbahwY4guKGEortSZwbvKjpSXLwRXmNDiJM0M4kIgDHYA0JIZjjBUlxatZnIidTIr1cyWCH0aKNjoxWWiIvs1z/TqSmL0Ht7fxhtO6MssryYXCb26APTFiTB9xvn8Wp0UYrAwILYxNOeJwOY4JSODMFibHxRkCESEGAeIdzKwYBE3lWwMyo0QEKVmhUQ8TbKrs5l1i4DHDM2lWQbDhRDcmatniJDqKnEc8ytARuZI+hauNoZAo0WqroTZNxv1BXPFMFs6KQWfvS9DiJRhmTMZ6gw+C2CJfSG7PB9JOFq7HYChDFMeM1jamA0nBj4WMQpiyZ5EIrSBryWUQRm80wiJO7U2FvQE07kpmqVbY6hL9mQuakfCuB25A21K3PmDsEDvl0hvDMwfxEX4QqLJ0MDsQQZzIGLp7kAF1aoErfa+CHaINFRaMouApewSc9GEYaZnYAINq7vCrCWr/ZQYzhgAfFZ1MDsYA0DjIspYQQGBz0ViNhM5gMjDY0/pQQCnJBB3+gr0zJ2NXubzW83Ezw+VqqdlZEexAH280GcAes9AavZa6Jm8eahvR8/0v+RaT6tgc/OQgZ5l2h4WFOiV0+f5/IHGRqNXD/SJ0wN+yqgRz/TTAJ8WBbgLQx7vGmWIziiBHalySOQlB1IdGQOU/TJ6mdOoAv1duEJdmq2crf5hbpOxYtPI/TiPJLyrOi+A6pdSm6U0Y4DEX+LwvWOGhqGxZBqsTUSdDVcardis+wBo1DgOechQBOupytNy9ehubXtyPCrwGN+bRTSCpdaw5Wm8ADMGAJ8xMBmMAUKwMSiJecbQQOhK2+bgPZraOFiY6Z+oyNC41BXUxOFqP2tCBlbu9PctX7g4kp+/sNPDMUcdJd3+E0xNFcuXbkziQsYA4bvDhXhEt6wgA+u4DTur5TIJZQdfqKOKO5VhTrn2zcLwWnGeZwxsDNPtsDBE7hE+IwMbt7UtcO2/wLTUMH43Pno6cAieFg9dTghaj726XHg1BI5G01xH84LvzIVIi5OyrqcfICMD6z5NxLr66H/JUI8COBtXWxZUsJzQFGGJucxaqnzI1SdUs8vVTLtPDTjZqxd9TMEBUSmjcvyHvaElb9r5CAZ8K2jY+MYYBMZoynsTcWmG91VRJsui4aLsE4z3V4XlcqReurLieBG6F8dcaJnB18vvC4b5C5HvMroMM1qthWAJog/NARpXY4bvPff3nvv/3HNDKg9DAaexFPZgrjF7laWy5YO/gv1wyLTpMQaYFHYPYwyKWxg70kV7C4HRwhabOuejXSGdGvgx59sNkT1BXZ/+Q6xOtJhPCd0gVz7iDYhrS7vMcaQs+7xAyylJuGBUvsCUiKHRbM9kEI9bYdMSywbGEMNiByaDX8bUesWAg/BIi3kJCA3hY2oR1JJkvrdd1pgi3HCKUzThK8DksYY0hsjAl3CXbLZnUcP8IS3Tf5r3PfZIUnleiFgomIewQUZelioGjcgyybKK7YdkYcaPyL4xRL7Rq1il9kKXbVaXZNXTBdtKyhJmGl3SGzQSFM6GJRZmFNsLTXSwZ8iBzWq/N0D8wQq6Bjv0Nu6vHDMIrm1KoDv0UEc22E0z2ZAhbCLu+hEGjeDRRYtQoQsGjcIvDSWsAkzkwPr5RaeVeo9HHOk2WD+hh2mBdUess1gmpZYOWVnrl1tYadRNx5jAbaR5N2u+lir+8vIPVIUp0Sa7YWLr+Z1NVSPOFy0+sksYBtEKi48NU8cMBScRohxCy024fh2A2SBia2FHYpWhOTLMCcT0RtJOv/MEao0jc50eCdJ/olckVkfo9xF4bIH6P/Exb1juVVkWYR2ANchwm6/vsNiRwljK7eq2RuxQxuv2lSTLCaN836UERh+x5ekphJRUEVsS5dcj4lI6JxrsArpOv4NF6eFCiHLnD5ifVGhFGPDykgqdH2+hZBd8WZUQMNkYPR0Gj/n4Dg+VyoujsjDuVp7Q64I3esX2X175vaa3P77dL/709Px8v568/x3vI9uj+11mef8X);lineShape=1;" vertex="1" parent="1">
                    <mxGeometry x="588.409425368241" y="203.6674276965026" width="77.12665847347807" height="55.42997107443091" as="geometry"/>
                </mxCell>
                <mxCell id="69" value="" style="shape=stencil(7Z3JkhzHDYafhteKyj3zLMvvoQhRJsO0qKAoL29vwHTXdP3o/spzMg9zGzYTnRuWH0ui35Uffv/w02/v3+X9969fPv/1/T8+/vz1w7vyp3c5f/z1w/svH7/aX+/Kj+/KD798/vL+L18+//Hrz9/+/dtPPtL/+tvnv/s3/PMbXcpbKU6V9399+6T2bR//+eTP3wg+ffz1nmDf9nwmGNtenhPMbezn8XMr7fn4sdXz+LZveX8+vm1rnsfnrefn4+vW1nl822p/Pr5sVcbPrc7n4232dBrf023Gxwe6rXYebyuE9du39fP4sSUc38/3NewGK+23jfP3r60CQ9RtyX7nluF++1bPDNc7nufc9qTnk2D9K5xP2iqdz64b8AuGDZjIyIqcg+iG87aEpe0TYLlUti48nbYdzijVbZwv2YQmJSBo20xK0EGKU99mDWJGexjbmOGUSLGYohBBW6hY0tqmcGrZCmgKEwVRXSY6C5ZkspzPFzdYt5jwFBE2OzfYg0lPOZ/S3G+fPCZoOsM0XgLmy4c6PwhMvwB72wxt1xmIl4wgnzXYsJsB1nCVcd70GCjSRjDO3Drs3HiGeubWkVCmjUBu2rQYyYMRqFpqfNNlm6Lny5bopss2RFHuNyl/RtDPmq/1qz2IaTCZnswasiTTS4skrgfjnLZBEjdv93q3pEKscbDaQWAGDI61pK2c5cH0UiZ7mPXiGnNrCbxkiizDPZR2A0T3kAEkrnSVOOMlugcjmGfdakY30ymNMAOjHpthnVnDVSXoJdu0imi96fPHBEWRqhEkIgjQ1pbUiCDdtngHlQiKFRPIqqeUaQazynKsh7Z9xt5D0ExGNGkEXez0QvhjBII/TWvsdHFh045miDXMigaskQlx15u9uXMZEi3J9Jz4GJ0x/VLmqw15qeab+TgIzMSAiNr3RQJyY2yLeSlBgU3bIYpe8j0QwQE6708JWKNVNSjm6pFhb4cJPAgWSpwbKLFACdWMqd4szNcQCdgMS9T9RAjnexCJOxj+2SmlqQSNCHIQoIEmywhygNKkvY1gDw4HgfUWXBq/ON5Di2EDsHFmlcXtM5FqtKSqisyENtPF9ZtbexB0lGk/9bMAmYlptIelht3BBJySMYJ4KJmP1ZS7nJIBogRLMrs/znvIHA0w51nUvWE0MigGFMSPMwLyUNwEFiUg97gfZ3K/JLi4EY/1cGefzdCXztApRjE1iGMExHzmSJZAgBfX1J/OHAaxi9MZBnq7PeBW46VOzJc0MmamnqyoK0aRh3wzxM8I9rNuNRRIrqVJnKhKA6bkAznBmTXqMefTPZwtUC28B9uizNDQj7OL2wPWQF5qahQda9AeQsjU9kAxXJOHJIY9YUzQJE5gaGErakh7P2sNU8Y7HOsoGqZwZQysYQRy0w7fieA4xDt5INw6jjjsHcFggh4kji7OPZ5dCYg1RoiceHiUVOUBa+8JaIamDrgT0B5a0N4Tga4RjLDpSswXUKXfA2UQ2rbk4haqGSeIdppPKRIsUPdOcN6D6VaCDiPYB/e7XrsHMiijazTUYymvIvA98E3Lkq73MEVrcNzbeakpATlNzq1LCShGZgQ1KQFFsMah3O8IJvPSXl41Q1XDXhIr46rwx0/pQvP1cA+syCRyYjdN0Z8RYSjHW33TEYZeHKvopYqYz1VlVgLyp0eIe3vIlgkU3RdMiRhBDwSUW3MBCkuiWKXL9AwENEO/ifz9kmgPXdMJ+cKwd406eOic9yCJI4/m8x7Uf6iIKkcIn3rOg/cgQYR8WL3HBEPTOqaMcQ/zAV7CtPq6RfXusPcEbp37TW3dg3VK9Ce9uFLQj5tZU82mZiiuMUMu3vMFcHGzKjLOFfXSbIqMM4eAZwAnqaM7MLsGc9LhUTwjkGNNO+IlIxAlkHaUaSNYZ1W50J2eQ904Rks2XgLAC3GDjZek6MJAjo1vuh5k1KFe5eIrG1ohsG6Zhcfj54PzAetp4wWkc/7UxufAEaSOjECUthFQ0GeGYLRXSdARTbWFKWFc1gikJiI1TArM404PyUzo+hhBDo4JZcp9BtGQk/XXVD+jLnSjjUBrmxampY3zRPa9GIduOgTUzVBQTNP0Vz0TTMZV86i+OZg18x5y0C79Fk14ZkfEK14LA4hmqQSjp33naMNSijXZ0ZjqeK+CWQGbQdT8i5Z6tgnhPvuKTiKXNHzt2UpSqyXUOOx81QahJcO0EKS7YRCDPrHAxkUuwB66uJV0BrPPpGdWKMdLBdnV7lUIGGKsqindij7uqiHAgkm4FVyrhMbNxktmZr+J07PxojF2hOc2Xoznjvjfxgt2Nkan9QSm22+5qWfjBVyw6Nt4qf/YUfJtfNPvp3IRG9/1fMjHW6GmZkft6OPFNGO6foVKv4To0ceLYUandnUNqzaEszZeDP+Ra3k8ftwCOnd4mWIRRiChNkMWiyR+qleROJhn5kiype6hEs+FcoM8EFkYgVyCR86oAPTF4N05X4QUbAoxy4WTaCuk6Uy5oyTPkFq5EOURkjcJ06XGSxKh98QHKwsJd9QjrfbMGoj2rY3FJyl7V87rrV1hah03jfDUmwpFFgiPQgmEJ/cJKHRVSfXC4Yn3cAG1uyrhegFTQ9jJTulqhqQElWfQJFq/uX1PNx3LadiRl0x6vQgVjJA57Dfj+JQ1VpiBPe1YxoE3PYJMd4Q7RjADe1N6yAmWElC2xwkEgE2U6TkCe8+reEcLOPhiDxLNq5d+nkQM6kVIpatV9xlYpttUAioUcXkIRXgUwnwgcfMqEhZlmvIYThDq0TAEEGLPxq0ENmbXQnMjwKhE1zzGxfOp1xOssKTK2CE9qAag7OcKDrqZXdKtK0RV6451446JJbLCjuRLhOAOayCamQ/qDUiA1lTNVzh5s6ZiOK83IBw6Q8BqYnTb4Y/ASs5YGYEm93csoXa8FILVi04ppK3Ne77wloQ1Fm+hak1qx8cp7q0KcGBv7817fvOev2fvuYVMO1plvy+JICOUX1VTbAszBebvCNRJlTecQxXJ8cDmmb+TJCW30D2fMdN5kR4JOe3GTDSr5lM6a4mZNSw/EmZrZ3r0zI+AyK588QKknxEUibIXlLSZNB9s5gSxUVZvxJmXjrVoYbxBE/Q7q0LO2bAwfjbl7jHwYe3sDx43Y8ZmhNL7S+gvyMVdYXYutEhqcqJghNKZCyQ/Qo04F0nNUE+aGktcACIpX4noW4r6LUV9JvjuUtRDlUUq3KlgqEpNA4ttXR0J4k+sUpvW5Pi7BFapkrf0mk1ijBqKPAuXCQXvsXR0Br1MSJZ0ob925SVzNyllNqbWClZOEo6gtAuLm9d3yR4G2vPRdQ8XxVRe2SoE+ap2VgtVuZOA1zuGEkzc9FtF5X8J3ioqH8jD91ZR2cNND3yF/1ZAfyN4K6CPBN9hAf3b46S3x0n/M8H//XGSopmdVWV47lG4t5MRSOCzNMz3jhw2PTFUOlJIJnHWoy8F65Vb03g3qpjvpXfNXYs+vEEDEVRVlXXiPfR8gyL3BMB8fdcA7lXPiBWSeg2X1Ga4h4JQ2ggEhlYOWrepgavSUbd6S4nQSYCCoG3pHkweSLf6sYrmG1edBBTdN34uXoIi49cbPYSuvZKRmC++cUmoKvvU5JATkBIIQVBbEoVlvCvYUAJKfY4ccnSdl5Q0YeXKmPegVejcf8ROaQTtTYjMn4sHGEqh4t5DvdtRPPZMzeTgiyZ6wZ4fAF0K5vSgjEtGp8kkTnjJRJRuOqqZctHhZAStMdEta1F7c6fKFhxwbwxABDWUWQ3WSyV0y2ERbaF/YWsYzGnhvYGfGx1rqB1oHHXwU+qv3EOWJe3cOCZrBKtO7kqx6x680uWiGVSoLSOtUUPTRiOgxHUNdfGV76GEVhy2SOwjG6KhF3WKJeS6G7fXeTGyB0Hhrnb5Qe8/wt4ltERpHKssIbjZuSuFEYjEmSEm9i5ZBcgMMWHvEh40eM6L9lCVl8wmEbca0paiCW+4Q0uKPYO5vU5sqegmhri1qEz3fMUaoowNcmHDw10L6sxiUPFNDt2jGr8IMoSnXbw6xshyQGStY/g0B/e4s+OXQ/i0c5dHD9IJe3PrMm/nLUsaiDVy1yCCcyvN0EPjSQa6ORQFjs7dZ7tiDX98TX1VA3SYCZ1Xb/10vodZ+B5C/nRynzC7B9HeL/XOjwlqWFJFrZFLyPYnrN0xaC4FpoObo73Uet3dNPFSWhp16AtvOs3wPrNiTCAN1a2dAyEptEt3rUHNxoOINm5tmWrAfFw5kkroGFpRzaQSGqYPTCekpL5o51yWv4gXgoK9zmZo8njhxqlDc9EUPxamcIQ5HOngpFFoR/rSDuvxAak0D24+vYfG5wnjpuH1kXfQg/Xs+oalcxV06D/mzbPxRxUkOt65H35WsWz8RrlomNj7W1KUSx9NN85Ih4ydOwz4Iwna0K1xgXV4AlFZ5nMIHBZE/ym0zncC4KAUsLkTkO6NLUgL8miKnfsK/zJEDg92CkLtFFou1oqG3wlC019yF5wgPGDDh4E5vL9pmL/2TYe2wvi7DTlEfBsGrIxA3ltWfqD5+t+ouSawP15+EueXj58+fftFnfv/15/QsY++/fxO+fHf);lineShape=1;" vertex="1" parent="1">
                    <mxGeometry x="671.8883970969546" y="178.1957436226685" width="145.42695832596064" height="66.8962252376025" as="geometry"/>
                </mxCell>
                <mxCell id="70" value="" style="shape=stencil(7VpJchw3EHzNXBEo7DjL8j8UIcqcME0qKHr7vQseY9jI6s4O3XzQbTisbKC2rKXnEj98e/z09eES/Le315dfH/68fn57vMSfLiFcnx8fXq9v+ukSP17ihy8vrw+/vL78/vz59vfXT0NyfPrt5Y/xhL9uuOBSHKDg/7594V2Xf7/4+Sb+dH3eiIvLq7i4npl4WMWjS4mKl0U8O1+Y+H8Pm+LVFSre63p3oY8Prq+Pl0xvn1xclVVb1nYsX5ysz9f7eyLfUN0YXWPWVPX8Akjq3EgA0dX1hNTmI/YBxeW+Oiy5ygAd46d4qoONz1JcICdoyEDIVT+12ge0GQR3QJpn7gKiTC/dAdXFSgDJlbACuitEh9hmUk1A08wgWZk09FbHtTCDcReQ1epraLTohFwpNycZAYVcSd3kEwI6OaFqMK9mbcn5QNJBbZIMgHi6VVeLARAdetzRoXUCKK4GYyWiQ2+udAQwT/eKCaRmSPxKAlfyk2X3AcnlNTRqc42Edw+uQcbpJZnSgkRZNaeZDh6JrObp+31PN6TukdMsljS819owwpFYSQE+I4DRjAZfbwhgJDAACQGJ1NpdADPrAHQECGGNobSxEqsPw6xwQphZfgTA0AiuMh3ajP4tgIdGKQbAQwPD+/QENGuYbLsP6NPqGwCjypEPBf3QyZUUgDok13mKVsEUjeyE4AqcoL7n3JqBjL0TzktxvdKoccxKaWbwhu4zSaCu3SaQcaENnJ4AnlZX0oKiLLTq8M6Fh1YCgJIAs1LAJlG1oieYnlsrBmvpR/DBCY36YdhkpcreJy3sAwo2WApgDVYzNW6cwGimYJPYueMUEDsqzTqBZjrjAeAnQEc2ALw+eAvg9UEaAjqrcRUzbpiV6aAA6ziugwWwbmb3SoV5umIFUkBjNa7OQNgAWD4Mx60A8Z5XxTIL//YIHkzJAljNKtgaD635lcQkRGFm2stRNhyPE4wOgdvVes5zFoDeYcQ3t1IOCKCxoeXAnHBi1m648iT6kMlOdKguVGOlk6Quxg/8Skh9nc7H3w9oJlq1orDQ6HNGugOqK7z/wSuVWYmPqiLW3UQbV627GEvxrP+JUBWFTuDdzsdtLrSOALDvGlTFxqxoptdEm++hIiwFAt3AqZWA77Xpo44TdJy2lWzBNDxtljM0H8xGSmfLyie/tlpJe2nWJf6YLSfgx2z5/58tFVCN4zLnVgTwXYuSAO5P81w5HQ5BcEKhZh0jj1lheTbTFJNAfRLP0d4O6H4QGWO+jqHRhG7VNk3khlxZlzgKv6Fvz1eD0LmOAZkpETFHFXDSztiNKx059na6nST1oFJzJVYVx17aGx1IbGRDTCdrhOyNq/leOqXZKWyXwMRKsZndSaCejskssu91ch/gDVeqGYing/ahpioyx9m3ZZW/4wimJVNXst26qJXWpC5CO13J+J4mZ0obomS9FurU6LJFTE4noYvsim+/1JNC5DNGkj6BXUjjbDWRWpm9cxFcqQ2bEQv5mVp3eZlxciAPy6hKy6FHxsv0BaqxfqSvEj0GnNCBVfC9iadPl/n67F2czQuCo6ennCJIi3wlEdCQZ+JSUJyRw2wVN+KErQJuO/xsoI/E8emBEc8k73fxRFXNaEjWDe08vdC7ZwwC1s195481TsX1w/vvQr5cn55uPyvZ/h9/R6Jf3X6DEj/+Aw==);lineShape=1;" vertex="1" parent="1">
                    <mxGeometry x="-191.6630317388258" y="309.52378392087235" width="145.7794425148461" height="158.39018088687408" as="geometry"/>
                </mxCell>
                <mxCell id="72" value="" style="shape=stencil(lVnbUlsxDPyavGpky9dnSv+DGULJlBIm0NvfV6cZH2z5nGV4S1MttuTVeuUc5Ob18e7lePD8+nY5fz/+Pt2/PR7ky8H70/Pj8XJ6008HuT3IzcP5cvx2Of98vr/+++VuiVw+/Tj/Wv7CnytOyOcF5Pnv9Qum7P9/8fUa/nR67sIDiRvChbLbD48U4hBeKMX98ESShnAnxCA+Uxh34ypx2Y/X1WWI1xVz3o93TC6M6UYqCQAcpTIAggLAjjRBGbcUE3lQUReojDmnRBEBkl0hJ3IIkCmNSZdAAVVJi14HQHXEAKAcCyPpaoSs844yj4BCHpRVaVmSXaGCpJUI3qzgqQgAFKpjWUslB7gqSo0x6RLJVQDQqvsR4GDSksmN5MuZImCrVIrjlnIgH0D3T+eQHQVQpSC2SglXKaS2gRWgOYCkQ21F7Pohg6SjpxgsoIJziJGSWaGQYwAoTRO7pAvoh+Qa+9eyekiNFKzM6MEVJKxrETtqFHDSma1qFKaKAJ6qYatA5cvR3jwlNTpuA1TtjS5pD4KTztVyadElIAKaYhmTVhFIYEvF2+uwBmJQJW35EiYA2JLuWCZdikAq69RAqktIyBRQ2AISoHfNVr0VgO4H1WqjSx8DypRDBP1QqzUCS9KoStXeonW96necABOzRURUptrI2QFQQyjAXnIOqrECfLSAiI56dV8dICNAnnJwrXB7AD8BkMNS9iVnAQmtkJr2dgAB0rdYi2wBjLgRpypxc0S7K0wn7YEwaQ7GMCldK+7RNPcoWiFvqABka27q3vcoWmHy0ssKH7B1WgGSb+4Hxge31XGCzPdmUyPzsKEbjhxOwpg4BQRcpk8CpBnb7kpBOZTVFK6A1NbcBoj1MxU7Jr1H07wCYF+ehSlCi6VewF6Lgs1DnKrk2r23DQh2Fl3oimZRT940dW4eatuT1anlAmxqNXHetJyKK+C32kQZy6qFRkmrEZ1nRcZW12wp6zmAKqmZFmNEld4ghyjNH60AxltiO8mpXUc6EyYDtKyAAMFOEHr2DA4ueNvTi11Hcxa3v9cdnAP01tFPDPkcHDl0uMyGfBFSQ3x7NOgtFpqoayNC36IgaZ8nM53gUOOnSa4T9G3BV/qbl4oCzfHyFmJ0RoUEvYUkO44uJg69GIVGzl4F0POMWK+rPepBmZxrtrMbeBNKmptYd29SyGIVm4K2FBpqpncKwfHRPkj5BB9zgm0GV6GRFnuZaI1RvE59YzsX2GurQ1jLA2fEVXzW3UBxmSwMQ2nh9jL3Ho64wFbfGZqR6WGP25C/E56LCUdmytnXWIaFXIehLhyJg32qYkjKafRn/OZpHQ63JtgJrzZV5CWkPaq9h6NHgk8++n8Yrh/ef194OD09XX+e6P/f/h6hX11/y5Dbfw==);lineShape=1;" vertex="1" parent="1">
                    <mxGeometry x="-38.45041197639284" y="390.3506549577554" width="51.57689790889435" height="95.51487928592758" as="geometry"/>
                </mxCell>
                <mxCell id="73" value="" style="shape=stencil(lVjZchQxDPyafVVZtnw9c/xHqljIFiFJJeH6ezQsnozkmQbeNhO3bUktqeVTevN8e/N4PsXw/PL08Pn8/fLh5faU3p5ivNzfnp8uL/rrlN6d0puPD0/nT08PX+8/XP9+vFlWLr++PHxbdvhxxXEgCQsqhp/XLzlRar+/vL8C7i73G0ClWO36QiEcr2emzBYQKWcAqNTEAKRR7ceAKNQdQE0AJ6RIYgGpUAE2p06pGEDslIHRkkm6BUSKfAzIgWo0AM7EFQCEQjaADm3WqNZmw0ABOFUqVbt/oYYsjlTY3UdQDApl6yFOxOBCKVCyQeMGXaq0yNZi/ZISIF6nak1IDKPMhdj6KLXB3X2AECfL1AKjrD7JLtuU2gigJloelUChQBvEeqloLgAbYhjpPgA1UgfJo0SL1q1V8xlcSb0u1uiWqCEu6X6WGq1BLqnXk41DZyo4e7oDCEVwQtH9bBx6hl4qjbIDFJigVag1fyUBbG1hMjoMv+0DMhULaGVU2l2A7udyujG8kpqY7QmVqQJ6K6BnD0Bx6NXTuwbq6IQ2vL4BNMBWBZQJ0BGgU5TJBgwoZfISKGQKcGzVFP1TFvaLQNhNauSm7tlX02gARwBXyZTADBJCARw8AJ6gGSQeACNXJzepkkB0rb4FKQAGQntm9ABUvhUg2bsVlT4FxAkQUY6WiX1x9MnDK005CvldhlrbAAR5qY4U3gBQz1KAJ5/mKE5qmXMURbpTqP5KjNzaJ/KpdsBJ3YqPAwN67+doRdzoXhcrN2A57lMpE6jt/x+wqpe1Qwika6ueTNpkBAGin0+0LSItUPN0QoNX0k7tWsomNPsIZac7oo/CsC834tDamzsFkEIi0wmqutBEUyZBw6PL7Ks47Vq2lGloAmCfDjzOTSoGMpKuxctvDQ0j+R2HjFylq3oJtjmSSRxnVJn8DKQ6EIVhOcDp+4wB0Uus18AcynXLjNiw+l7L0ArQSoYCXanYE3SmgJOcprwLNGxZMulQ3R9cSCaTsVzS5Ak2yjg78zr7v+4vaFRvPnUyHGdyHc8d6/48dPLhsOEM1oaHsr95FkX8eKDDulhSpAgLUspjEF5jFsaQts+i5oMgFT6xaJCcVFI3NOClhZW2u+XVDQfJzC75Ga6XaTD+y7vVkLOb4oJ4MbVzJUpAJduzIvN4fjh4qGPbCJdnNMDr6odoXY+0avOtXNdDQT8xosFCNE09y31QOwheCi95ARWVL+/SYUvjVQNuAAU1HKZk23IOsHYpQCZAx1fyWYBfMhTg+rjWy4S91KoHIO383y/K/wDQH68P2B8vd3fX9+/t//2Dt366Ppand78A);lineShape=1;" vertex="1" parent="1">
                    <mxGeometry x="12.368648113480958" y="433.8783599534398" width="41.33911802625289" height="38.63497462512271" as="geometry"/>
                </mxCell>
                <mxCell id="74" value="" style="shape=stencil(lVjZbtwwDPyafSV0S3zu8R8FmjaLpkmRptffd4yFvCa9nrRvXi9pieRwONIpv/l+/+Hb3SmF7y/PT1/ufp0/vtyf8ttTSufH+7vn8wueTvndKb/59PR89/n56cfjx8vvbx8Wy+Xp69PP5Qu/L36lSNHFK4U/lzdV0uXF+4v9w/lxY5+rtGzsVWIl9kE0GPuYZORjh9QkFuvQ55K3HaIku6OUpZIQYpM8jAM22ZlDkmBXyIM6DGk25tJkxGP7NjOy1qBIatTe1qwhgHBsr5K6ta+SSUrjmAlcHVQyCRigcUVr+ASJIGcpw2+pExyVLMt/NuZBYq5Zgg0ab3SQpKLK1VatyujEQSXYLOU+39x06Fm6DRpIySTo3qQ16xAkkLT27tMK7LKgsUK3ae00qz1KsdBWURIBcpRsBLFIZ9DuUu2G0N8xEQdEEH1SO6tzmxFuylbZCkOCBffSzoUkKXi+qG3W5bZDkrpr0M5WqN4B2FIGPfSvTevglDHQoDatYyXm2w5doq30UEr0Wn0dtFBwa/f9BodI0qrD8x4c2GRQoNUGjU0yIobDcA6NojUGYMNF3SdRHS3RXRDAI1lC14G8cRgsiCHR5VWlknGFGHXnoGz+QDRYh00ebntAliS/BOtqzZKjd0gsr8lTJfJQGV4xH9wKXJhoFLUdgcQ1viXXpMqHou5mHPKmrNRlonPjwAY7NpCbd2Az7hritklZpbsXiNfaH8FVs8/SKw3RqncY3EEdNBqvg3pBhqg666BVTm3A11iWgE07g3Rl9KO0ll0/MA26EJdN66s9+t8emDm+dJAnZFPQM8lWYgw+SUEDFk0Dfc70hnq9gdmauN5IFk2LAiE00LKvde30iAVh6+i1oJgEfhVMt1M0bEt1eHBAMxWyJTg0dyjjjI8Y8k6IMnZtO/5udEfQif7UN/XHEZKG5aVXoIrPWfsskSAVesnxXqe4g71TDjHTIo+dRlyEMTs8qHfAMZfxZC/S7JaySiGSb6mB7Z0yKCoA/LFrhUZWAPAd7UEYJ7JCbj6tOLGwebVcN9jeWdJACher5zAQRmB18DIXap+FABHgzgKdCu+doFwuAwhSwzz6b87FbN6mSVabYzGzx9HE3a40ejTROVr/kYtwgKyu8wPVYaAqVwF8gvUyQnB3YoPSaY5TTqwpolxXghckYebstj0O3Z67Mtl/SfNW4WrPELfcrezsWVeu6bvaM56A/RjOnml5AKw6bpwbPLLX7uyZvsPxPVlWSZR6F3t30UPxU5pX2ZneeZTqW6BM1X1k7+b9muCj/P/XHe/r9ni4Xih/Oj88XO6jt//7C2i8ulxe53d/AQ==);lineShape=1;" vertex="1" parent="1">
                    <mxGeometry x="51.32930866804372" y="436.56289631076675" width="26.007255919093495" height="35.3237929897457" as="geometry"/>
                </mxCell>
                <mxCell id="75" value="" style="shape=stencil(lVnZchw3DPyafWWRAHg9O85/uMpytBVFcslyjr9PT7a4GoIz7fhtNWIPSaDROOaiH749fvr6cJH47e315feHv66f3x4v+stF5Pr8+PB6fcOvi3686IcvL68Pv72+fH/+fPv766dt5fbrj5c/tzf8fcNZDyVtKIn/3J6kGpr+9+TXG+Dp+rwDZAl5BkgOmggghxgngErohQBKaPMO2saTYwD+3SaAlSDkDiWGVidAtmCNACQ0mQBFQ2QAC3k+Uk3BOgHgxGUG9GCRAGrIOgFaGU+OAS2UGdDhSuIHAPpspV5CZYAc2uzpFONw/pnnbDZTr8MOxwDYNc8A7oiN3/OZGnYgRzL17Gu4g5wDFO/r3tWN7KAx1BkAMiXCb7EDuirZQXDieQfLwcgdUgnd5pCrIRGzAqAzmQR0rQTQvONEQiVHEvX8xp6VRBDManMEpUTpqj3E2dM1FHIia14quRdA7jyLhowNz+JN5wvEkMmF60I8HmwNQlzdesvn63saIno3KPVYXyQMoUTO33tQJ6p0/U5M3vWFeqxDXlxyM8rSbiE5DrUh5Mc2vVNmT2sCqIuo4tbFKCtccgPRlQByHQe4A+AH4mckyzKHpkIOSCZR6LxzdA+Z6VHxzDNQiRwJoS4u1JRyTw8qAGYkVCDdrzdyZVkEFe9nXPWhsFUk5Pz3SN8JdicGip6nWM+0YokcrE90fZrzgRkV3+jVHeuZPdPIwbv1idxXRgre8aGTQJZB4P16zh/x52Faar6qwHphJerBfTM5D7y52J9pY17Ok3luClr9+kLev1Qg4HMk/r17c89/IovqU9kWj6wkGtG3X88KHJ+Kt/NQPtfl/ZHGoyz2ZHoVFz7nUVCdrXfxbpTPSBHNr89ED+PoyPZ8pvFbF36yIvmn14NAS8ZgBAWD6pKTWIpBUjSX9Srt0DYFcW2p8T4Wkuka3zRecdY/uaiUNmra42LC/JG2QCVubuJ7wPdMdQxontip0sSHorHMnk46tOMYoCOwdkUdq6DQtfbZrDV0tj75WMh0wLFeGVwkVG02lPC9zGehibLd1SpCpah0n5vgRGLQEn2sKS0lMrRxvi+kjnDIxI82Ou1eESV+wsQNBNKnZSSVWbJXX+aLUrXeSO9cwIctALSlRGY9PjjjC0yewHEA57WstC9AEV7nSxcZ8nHmN3fpGschz/rdPl+6djoUyPectBtJCaeqS2sIVhbLRQ9GUo1wCYDq5kUyDH026XPNEO5QmWgnL9r1PlI9tlIf4bubF1VWq9XBnN286AcTV5cWtlTEZrpH7VNmO6SDbJtYPdiXlpHfwarvoCDb7A5bAzFbCa07S2229vqV5vOtJGoewJTYlmElAExmzHwZBkBiO+RRsuyGZDSmS0jRA1h6BsAFUCp0GA/H+ZlLofkWMhNtuQOJ6XUOByv9YAYcF8exlAuAiQew8vmnv6L8DwB+vH+0+XJ9erp989n/33/kwaPbByL9+C8=);lineShape=1;" vertex="1" parent="1">
                    <mxGeometry x="75.9337365021488" y="413.16171940045376" width="30.843389068268607" height="68.9372125996307" as="geometry"/>
                </mxCell>
                <mxCell id="76" value="" style="shape=stencil(lVbLUsMwDPyaXDWWbPlxhvIfzNDSDKVl2vL6e2QySSq3EcPNcbKxV7sru/N3p+3j27ojdzofDy/rz/7pvO38fUfU77frY3+WUedXnb/bHI7r5+Phff80PL891i/r6PXwUf/wNeByASwVRe57mPERAv3OPAyAXb+/AJQIFBQgyIw3AAVSVgBOkJIJCKwAsUAOBoCBNIeMgMYKWTZAClAccF4GpASsSZcEriwDIkPWK6Bz4Nwygn1bJqmDM4QIBLEBBCBeBngPsSlTBDRYk5RJs04M0agrMYSklfOQ0VwBnfYGQrY4ULtCQHCGN+pr1P4mYEsHHL02AuomjRVmihOAgQ3ScxEvVkiGmapMTUbFLFbkJiNMVaLR8UuRc9qubAt34eZJajaVq4HRdq2higZAIqnLVGNrsK6hjzoQDN6QurYVrVxtPcaW+CoQc3O77b4r5YrdLKX5el2luUEvAsp/ABTBaW9kEc4gjbGtUnaAltJA2hlJQmvI4Ns+Jolyxv/FF5oASyc0CFw5VXqC2ZTAaRt5NPlGiDo7hKbt0I/lmM4GGk+L2xuiNp1iIoOA7Lfo5NhN9fok+fOoYmy+T0oAGcwXjk2/2w33lcv37QVFpobLjV/9AA==);lineShape=1;" vertex="1" parent="1">
                    <mxGeometry x="123.35125131939685" y="438.5495812199523" width="3.2230755116520413" height="3.224848179439846" as="geometry"/>
                </mxCell>
                <mxCell id="77" value="" style="shape=stencil(lVfLctswDPwaXTEgwec5Tf8jM3FqT90447ivvy9YlYoJ1Wv7Jku7NAksgOUkD+/bp7fN5Pn9dDx83fzcPZ+2k3yavN+9bjfH3UmfJnmc5OHlcNx8OR6+vz7Pv9+eGrI9fTv8aCv8mnm1Uk6N5fn3/MZTLn9ffJ7x+93rOT5TDQM+Uq0An8jnAV8oOoAXqjzgnaPsAYEpxpEQqQBCSeTGE3imigj6D4aQqKTLhCxURoII5XCZkBLxGKTgSOJlQsz20KGSB1sKhbIb05Yp8WWCVKojIUWYB3GUZCBoGAI4tA/kRoIGWoD0nO54PLSm0iOC7587QcVSBWTaKqMGCgAfupQXfIZHViGNtabVV8EBmALfh/er9Qvcj8mA4iNQERMHi3cZ4s3+VYYgnop3Fo9UzbZsNP4Fru9W+ADjKWzxHsYzRIt3EJ9W+nGgmTLl1fqoYpjK6rwZFD3b3q7xd6BZKz5bfIR6sOtXYtBT1vuvsB7X8an9zY3x1/qC+DDWl+NF4jcKqPbxdqNAK6W7CqCSwIStC6xAAa0LOMCE2QaRu0RubEA62GAB+HUBwHjaBqoFBuN5Hz5Yc6MDo4D95/51wTsYf51g/+pjGXnl2oyUceQVgSXgpVuZZWzrJgFB57wYAnercMlJpFEUSciBM6hXCcZiRmKQBbUyZs6H1O3O//2WWpkxD6J1AAhqZYwF1DB4IDy1Mn5UtmoFVWZR02p8r2YaGWvuo2IhCHlEkJVbgcOmxj5Lb3T6uffmJUbY6VcbIo0Z6C2ttQWDZ9Bb2qxIFg9S1rxPsXi8n8wG78Bwal7MGTxSRMNXg0fDtY0We17UWxreCAjG/2zWfRDilT8oBl+BG2p4UzO9vV4MUDR45F7vvupexevDx736Zbffz9fy8+/2Hq6v5ju8PP4B);lineShape=1;" vertex="1" parent="1">
                    <mxGeometry x="-25.804096430206528" y="452.7526932344937" width="167.45173628068983" height="56.55685424989554" as="geometry"/>
                </mxCell>
                <mxCell id="78" value="" style="shape=stencil(lVjJbhsxDP0aXwmJ1EKd0/Y/AsRpjKZxkKTb35eqoemIk3lGbuMZPYvr43KQm9eH2+fjgcPr28v52/HX6e7t4SCfDsynp4fjy+nNng7y+SA39+eX49eX84+nu8vv59t+sj99P//s//D7gmPi1kEc/lxeCFML/958uZx/PD2tzsdKoc6ATEn2AVIoywxQSuCGHCikCZACpQYAhWQD0LgPKEJZPSDnfUA1AeYbpFFN4IZM2Zk1kQAdSiTJE4AbiQKlK8XZrJwoI7Oa0jwDzNDIrGH4dQBioVT2Acn8UGZAJK4AkDcikYLzXaLZb6YBUjlRdAJRAnGRG4U4xwUV5DT7PMvfKAH5LYzqfD5miijuCrVZAdMgAxfokrwLQGHuqBLPcWfprECkxuPzYiN7A1KhWf677GzECKCkc+5ksxIDSgpLGAxEMUuD5GmNdA6kUmB6mkxlBtQ4fP8+IPkbNEDWM7vmWQdNlIAj1BjIARSmpxaqc3TbnQyspJHi7AizWwRUbyo6AuiGBlaqbai4JETAKV11EPXqigK0rpWqk0mxTNWTRquDzPeSVJ1dCwVgVwN4kRL0nInk4rtnIRKpemJtcWThnlkdDbQAicY8F9kDAo4NV9U7APjBAC1uRAI6WLiWvFEa3cAU68asmF2TUzqNN3sAcTdYaKCk5mHEdfAhkaLvTHp4gwQys3orWQKh0DCe+XCOavJXKIgNA/j4brguVhLxWgekRPF10RxRQCvQc9TpkLHSxVetJpDwuw6bHG2YBdpcUiwhUOX9MEBl0NCqBjGwkpUUnuPbwquicF2Cc6mjdTS+u+3G7Id6pbRn4lkH68UjKu159IRLu6HUUGmXUT8WgEA27rw1A1KlAvpEXUhiNZ80BAjeSjZuIKVr8qHBdTQs77e6SnUO7z45ohmLfcdkk2O6MtA4nhFYqDP7untt3DAmm6PVJiY0bghFV4FgcNsc6mqiaYCmRJs33DwTrQ4DzrDB1Q0QLKOG7bnN1RObBwTxXvQ0JjY3IoCM+rQa7yEgepJJCU59pnRxgIIjqYy2dgVAwZ02JS4V6DixG8TrgDjDJufqADzo/33A+LsVAwhay/jOxM6jmWnhk/VCA5To4Dcmdj6CXAi+MPSlD7BoGB3zcr7C+ryZ+KRckd91n33Mhed5Tn0j1AYIdbOZsPMM/99N0ZZmaJ6MmzUdTvw4iuR6rQfk+ega8Pp5e/i/c7w/PT5eVpbr735Haa8u+035/Bc=);lineShape=1;" vertex="1" parent="1">
                    <mxGeometry x="155.79744685617425" y="403.71992550560424" width="47.66736520899485" height="26.994501934195455" as="geometry"/>
                </mxCell>
                <mxCell id="79" value="" style="shape=stencil(7VrJctw2FPyauaKwL2fH+Q9XWY6mokguWU7iv3cjEzBEg+wp33LwTeK8JoC39FvAS3j35fHD54eLt1/eXl9+f/jr+vHt8RJ+uXh/fX58eL2+4a9LeH8J7z69vD789vry9fnj7f/PH7pk/+uPlz/7G/6+4bwproO8/XZ74ExN/zz49Sb+dH3eiSdj4yweTP/3TD6bnCd5PLHi/cWkOsmHaJKQryaWST5GY+25fDMuTfIpmpiVfJ7Pm4PJTsm3Wb5YE4S8s8aFGbCp+BTgGNDEiQH4VyEbIJsiTNZM9bN8MVGYoJk0m6BUaeJm/CKfxAHqotJqinSJ1Fi+yvf75f1ZWKCY5lneVyWfE+tT7R/aDixv5fs9nTePJ2fyi8cp+2ZmiJyGxc9Cfn5/gkUkRZQ55JOVFARtUMiHO/pkSinSXpX1GZxJwh9AKbM8TqQoCwEZiRO9CSrk/djvRrpNkpyLHJIOTqVWKEyLeNKEjbGBOhvZW+PFoXFE2pIHUQviRaYJpKU6HOUYUFlLIcm4gVntDIheBk4IHMnwVMV02ECbXSNtwX0MqMzVOZqgVkB+mskoIwOJFaIzgdg3GSd8CQByDaygDNeVSFpqMkEhfO18BuTkJgyHFJ9ntcZsqnBv/NyIMuzwrmNAY84L2QSh1uRNnb0VdYsXKyS4RmKAEywJEi122ZJQa7YmUzy0wZzHgDDS8G6FKuyAPOBoBVSTaoXCqR/kqdwbrpZmmglWaqks7o0zyGTueIXuXXcAs5YSKmBR4QFAJWp2w5SngKWGdKoAcAcVQ1MVgBscMQAVZ1BbipyyKgpvdegyAnIDtBHlx0nXspawggQE1lJNMmXVvAC8rIOxYyKysnUbx4WAHzrZAEFGXCsmEHtDDWJLAFBMg1uz4KVWub1IWwd0BsiOAYruG35uDFDVDAAcQE16KwDVspaa0lJjus9e9lStcZ4GF3ql1sbu3fO0sjQOPQcQyPOOlhwBsj7Dkh8ACEqtddDWHqAsvbUtuzM05UuFyRgARTMAUG8LtTp1hnxgOKsMV8bPOzJWpQMAfglR1W0AkJbyp2q1kremrUM+M1xcVpANd2W67yuoIUZjwwFQtLeWRUtJpKzWeEuwQ5ZN0zLGQFBXHaNtcSY5GgKVLu56hzZ+EBC5RSkIcwVwo9rZJTnVyPWkOeu12bHJY0DkAV3TZ6hu1LUboOrxRGE7dPZUgMgDqJ3xjxGes1y7M5KxI6ftTu1EkObK/A3TKHZFqcv1zJ1iOnMIlSoPfQDQZSIAVDz0QlTQQM48/OylrirXM49aUEyr1q+vQC1HlSklL8M99KeKyrACkSWaQcWuvQsi7rOyIchL5ZqczEHo5Px86Fglu6bME6aYZNUHM5HhYAeV5dLS1GCFKrSEHbc5HtAyK2KKZZQ7uyZf0Xfcpto7vlfNZe/bqPr20lsj8sesVjQhigTQP0cCgJ/FlvqgkUbvQU5nQlryaJVNfgjMlT2Pqi0tzWWK8kKjj9/nFWBKtYLPTMYIUdUr+mACjRGyrPq8ZS0FL+3glpG013O4fqlFg4o62pxjgGPW6OMcPQSuBLgz07UcQN3h79z7kKU1VS71EohK9gN8L5P1vPXnVdfPq65F/v911bUkKZRU6s6h8ISojwFUrWAqhViSPJS5TI1aPnHAgEkVbS39SLe4eL/nChLM6sV57aDl7byy3VkYS2tzifYgg2t5ux+tz9neZ907WRFZvq7SpYHlexsrydxyu2wllS89mu6fHFdO98SJpayc6iz3QXaw1ol44g9SVCL9we9X7orjj/8+lfl0fXq6fWmz/50/rcGj22c54f13);lineShape=1;" vertex="1" parent="1">
                    <mxGeometry x="259.7625386126142" y="392.56987244671916" width="72.14858960436368" height="29.48328552193732" as="geometry"/>
                </mxCell>
                <mxCell id="80" value="" style="shape=stencil(hVjZctswDPwav2JIgudz2v5HZuI0nqZxxkmvvy84GioCKG3ebFlr4lgAC5747u3p/vV8Cu7t/Xb9cf5zeXh/OvGXUwiXl6fz7fIun0789cR3j9fb+fvt+uvlYfn+et/f7J9+Xn/3f/i74DxTLB0V3L/lSUgUliffFsDz5WULKJSdBlTK8RgQCiUDyBT5GMBMzBrAVCsANPJBA9zwahcQI8WqAF5MygBQqeoo+UAhYZOSBkTyyOlA7DVAwgqcDpGaSdz6ZD9xlXxTADkzewCQn3UeoifvjgGNnLYoOQqAGUKMqN9vlIAHlVjHNFdoj3dUdUxLJocAcTB5AKqkGSTBN2JNpFrINZC1ZKnaHC6GQE770IQpgKrCPFNuHYCKoVCbTKqAFynbE8RpxLwcqWgi1TjKY58YYaRpTVwbXNkHVGtSiTBKlSnpxAmXKjBJXPRZA+QvEKBRmarBYUDVJkXcASRNxmlJZQSJa56S7gAxD/7uA5icpkZM2KSpgAQQUcvIFJoFJJC4VqhMPnhAjVapVRslVKJNEpdsHhj1SecsXWOjjJyQI3Rckx9lfuiErqAkjSngMOm2kRiWXE+Es4CCTIqD/hsAqiBpQ9YHhkXd6Rqs0xX0yt5Ksw1rQQNFSs4A1po6LGpDpgbHelsn4IZ9qLmK096ckCkjugZKOtNSQRU4LYlzU8lFlIc0FUSCaknIx1PbaKgL1ElpZCrIpGbJ18OKGlObukCjgPLQrLz6DFApaB9yGHroKKysKy4XSL4+ls2Q45H7fbZGmzgZoyisReaHBlRMjdzsVBQjM+hLovCqJp/QsYETJOpVF1APNADwmqZVSH/0531NViebGkXghJ9Ge++eSHpPSlrKHMmTYjcgyQMacmypVApsrc46IOoHKe9pwCWJGYqQXSr7CAXlmazIZVGUID6i7M0C15cDZFAZOn5lhUh3tLUmK328h9tS31r1CQlWs+xS2RwwqnU/RM4OaMzqNCkAD4dn9mPMrJyAPVvedyai/JlBUVeybKQMLJJpb07oPEebzDSohBUesIJXgb1ZiRn4wN6u9ZxgCw5sd1xhNvLBZzuoOgAQVUohe2sSkqtpOsCPrn/wvuEd4xYvK4C5l8BiOFpahFUNHLxvVGG/R0CsGDTeXD+h99f9Y3MhhuzPVnT2E0F8yvT/ETKiWskp7zvcG12aAOjWw9urJwF4IDllnNk7wwgp0S8Zq40pHJif30rKh487zcfL8/NyJbr93d6ByqPl/pS//gc=);lineShape=1;" vertex="1" parent="1">
                    <mxGeometry x="327.2620354810688" y="395.74623699865344" width="24.028392391347552" height="29.10213226206554" as="geometry"/>
                </mxCell>
                <mxCell id="81" value="" style="shape=stencil(lVfZktpADPwaXlUzo7n0vNn8x1YtG6gQ2GLJ9feR45qAhN0p3gxW2zq6W+MNP33sXt63mxQ+LufT1+3P/etlt+FPm5T2x932vL/o1YafN/z0djpvv5xP34+v8+/3lylyuvp2+jE94deMi5GyTKgUfs//MEn7+8fnOf6wP97EJ43vJj41KmUdwIGmezeAnKkLAFTKxQBKppTXAZmpBgOomUpdB5QwEhiAxpRADaVTsIAeqIIu1Ubc7BuEMgC0TM22tSZKoAZ9HmfbVqES1gE9U7YAjiPJZYBQsik16hHGi625UAVjk0jRJUQd5COJarXMowYKlkwsLh7RSCpFdvGI2NKoRZd/AbyWTlJdfxDpRKgV138GjIghULA6EKooIb1tBxwTBTBhraBbKcdMAY1MrcEByhjiMqCQ2BJiHeJeG3IsHoBYqixyMlAAHEPwY9OiBbRVddBdSkwRFD0JzRIv6jtBSgqIVmkdMq/fDboSMyy52Smod6AhJIp2zEwhgXgVun1+IkYzK8POb+IRi5pfOTwatsbrIq5e6FwyjOHaz4rqVWe0/VcrQPXeMyjCZfA4oFC3GenWRctAzdopubShvGXOVb8NWhjKWwboG6wwdWNV0KVpZTq7y1AGVUt0Xbpa5vLe141nc5pMvANAGET4B8DU07NLeKhqLndbWasGKSnXnENWhntNT3hi91pJw5WXF0/0o9YkGbwh3Jm8rnYY70pWf+zAv+72YB/yWAv37ojDnRJ0HYBkVIj+fJ3AfJM/1sVxMFymg+ebWjcQWfFsC+PMs6wYL0kslz5OD9dwRAM9wbqxQqno0O+2ANpKj37Z/D9eL66fUW/7w2H+Cru97z+79K/5k42f/wA=);lineShape=1;" vertex="1" parent="1">
                    <mxGeometry x="346.01059950804574" y="406.009943378462" width="19.208052392231366" height="14.317038242825788" as="geometry"/>
                </mxCell>
                <mxCell id="82" value="" style="shape=stencil(lVfLbhsxDPyavRISRb3OafofAeLURl07cJw+/r50F3JNrneC3NYyRyLFGZKa0sPb9ul1M3F4O5+O3ze/ds/n7ZS+TMy7w3Zz2p31a0qPU3p4OZ42307H98Pz/Pv16WJ5+fpx/HnZ4feMi5lCuqA4/JlXpFKs/1a+zoD97nALqFTEAIqQxHUAC3EzgJqI+zogFWLrUtUzASAzhWwBTA24VAI1CyiFSgKATt3GkBvVsA5Qj5sFSKea1wFNKAUDSLrSwAmZogVwGlvcBzCJdYkjdeBSDZTYAGKnLOCWGjVLjVjGFmuA2C2AqWCA2BP0SJy3XGzeKIEIaiSxxGDKYH9lcrMBBMjUWrx4AgWUs04SnH1GLIreHyYGYm7JC0EG0e/ba7Wo7v6R9tVeHIWYIjpAqNkDtEB1wAiNwLFaScrIpThkdSODinLcRi25ERqjpBUK7AGCpJy80D6iXfDlSHkhgBeqA7Z51jIuBQot2aBjGhVtDcBWaTEMrqy55OpXGdpei7naEPTWwP56qa6xRcg8rafVRqz+Iyk3yl6ajGn0KfveqTlSaMpQYw7XWnIVc4RX2jMVe6VZ5QdY0Ras0L5ZAeCiHStnbYyCC7xTZ9MTQAxZpxXrUhfK4ATJg/hXQB9d6P44kjzg5qbvTzzs9dy17qOaNJh5DZqHmu67tJBOpwDsw5jornmOlAGVlkTS/YF2wmgyV3scr5YvZy9wdFnMd8J4gvQZE23LwP/FKJV0bkDFzndZtQ+oLVNlbx8BR7V0yuKAChzSrhosQKUfQAa0mkvyV1oRQBYAgTP25x8WHwP04/875mW338/PoNv//btHl+Y3U3r8Cw==);lineShape=1;" vertex="1" parent="1">
                    <mxGeometry x="344.3381619492957" y="379.5858346764063" width="16.60434998786377" height="12.182407968723965" as="geometry"/>
                </mxCell>
                <mxCell id="83" value="" style="shape=stencil(lVnZchw3DPyafUURvPnsOP/hKsuRKorkkpXr79PMFjcDcKcdv61G7AFxNzCX9OHb46evD5cYvr2/vf768OfT5/fHS/rpEuPTy+PD29M7fl3Sx0v68OX17eGXt9ffXz5f//76aZ6cv357/WO+4a8rTqXrBMXw9/VBGVLKv09+vp5/fno5nM8Sszlfs4xwfr5K7OZ8C9LI+5sUdz5LHufnhwR7/9al9vPzGiQHA+hpqXQfoFKTBTRpRGON6wILMHRd8j4ANrVXGrAR0VmLxGqvlKUyCVWy1aE1ScQL2qRHC1DJxKwxbHExlt3uA6IHQEJjErL0YQFJEnEcQm8kD2ChjVgq1g8tLpl3ASlKU69DIFdKVVKzVmqSWbYFUWfWKKURQJJRbD5DJonW3KRapXNfdrsLKIhNGxq4ZCESCtxkAQlFpxJAkWTDOyapxEpQsVoJCPhEHFeaBCsBZYEFHyRk64fCVUDRcvkjjZ1HzXAXQiRxL2QbSSgKg0VS90VmZmAkgCrBljHkB6usGWXMhl7qEljoIbusDpDJqhIAwZYA2FlJvmVdvemWPrpK55mE4vKtrhw/y7fuaoZypYtUV8YyDW44Lrsi01Y1P4sl33K7dJY+bVWI/wmoyOitnRRiVvT84CQUWigbrJ68WTtRum89tN5a2H3eACtZCaisnXh6jC34Ok1RAJyVYOhBEgiAUr0EJWYFoG0A5gcAxsb2lFkJgOEBjJrsgMq7wwTYSokUVdLhptLdAxijnGZ1gCjKAal4AKtLAKhuAGbW7rkMAIEp3T3TgNKVS/BKcxI6AS4fwvd0KI5pDEpCAagOAKbBorVvs0lfbfg0RaMHKA8+17JmivLgy3sR4DndwqYDv5JritNKvC6N5v3AioCGrRrD1awrThHFA6jnxirWh+hjtBWAuqUcaxDTEVv5TtxMPwjYqUAT5S3IUTKMD5G4Gk3OeQ5PIrES2qhrco27Go06W7N2lD7Gc9uyyWE6rozcb5QMgMZoZfPxjSvRASVvhGlQHcDh3IQ/VwiMw4WNJfZFoc4AcWtyg/HQ4Ksx7MbYCYiri9bJrknfnVzaUoFU6HSM9zUbGpiXqZWqb9Ta+ZWGZ1iYaRIbglAjXPmm8zoGS6fC7QVnc2W3XgiUqiMZ3CIHPZekZ9kaXF3JcXrezXBxNbCzC43uXcC2Mhhbiw1UXIlFRcm+v6VMK33Z9ocILKZD3mlD4gNT9hMWko0R9TvpfFsq3t/KtNVqDouiQAIvpTU5H0cyojQmZ5edPdDhe+6u7JW60jVrzCsQjpWeLbt0/ftwJcb3dHizTqVJOiA2dx0CIyZbvvVOt2O6NdDBezoA6jatfDumW/DN4YCtZpNfzR7o1tlCeljEKLTlDj87DKXTOkYH13DbYjZnG/htQc6m0OoZwNwesM7j+8jcBbBsW5PR7Xygkwx6rRuVymL5J+fd9qNmuvLZV7KZ7gGCry5gZfw+np1Huu8JS/pxNCTxExaLPdZT+n63TqqBLt3CNiINWn6DtOzPK0sx/8VnDkj0fNxGNraG0W0LM+hC4ke/oH3/PH7897nuy9Pz8/Vr3/H//vMeHl0/DaaP/wA=);lineShape=1;" vertex="1" parent="1">
                    <mxGeometry x="375.6078192934551" y="373.599113115985" width="103.10975381478329" height="34.616100266539206" as="geometry"/>
                </mxCell>
                <mxCell id="84" value="" style="shape=stencil(lVjZUlsxDP2avGrkXX6m9D+YIZRMKWEC3f6+us3YxPK9J/AGNz7WcmRtu3Dz+nj3st95fn07Hb/vfx/u3x534cvO+8Pz4/50eNO/duF2F24ejqf9t9Px5/P9+f+Xu+Xk8teP46/lhj9nnC/kZEF5/nv+4jLl8P/L1zPg6fB8CUjk6wjwxBUAPNU8AIQSOO+EijPncwbnA+XxvFMVCwAwZR4AninFbUCxAnymCixIFMf7QyQHFIrEZTgfHRVwPlBJ4/lKLOj+PN6fUpO4ej43f/fzlSLwj/463p8DMWLMkxgAVsh1f3dAhAx4RzK6KGsUAhOU4zBynDTqgITgbZQmD50UCpXRhpjIMWDNtyjuYVQooTDKxH4EMAUkQezL1FCJKLAdefMSmApgOsVJgj61BAClJZ8OqPDtKE0+jkZnSiB/KaCMXooR21ApjIAU2pf158PE4/vPjhJ4n/ozj27NygzwkgazycFFcw6SEGzKE6USSUi2LEiiAsI7V/Ij01UlgOArWjVG4qo+UQcAmtVHHmqghCQICVtAADaIpyxWJQYSZIrWypCH2mOzu1VVAtFatTybYuhbatsClGIBGSVvoZgsADFdqy1XaoNDNtSWti4ABXmpkozhLbGV4I2KPj05DVeUBVZEZIogC6wYUchjI1gsoCKVpCnQAQLzzEK1WEC8EkzeAjwCzOFaWu+xBeBqAYwkJJJgeXCIh2QftTINbUhUjZcidmumYHgIsGYpoBqVfJO5xUOanlxGgE7TxwEik0qgjGq0Rj8ZjbOA5SG2FmoLYHo46Ql9E2C8pKGBeKhUjEqldURbAFOzlvDGRn8OIFOzocGCsrF6XcZ8r1QG0JJpkTPBd5EM1xGxXfhRhNZ284Rqt2sdkK2IJTGgdiO0vvOi8qJuWlsmW7UEcq1d3PxIkQ1LnzhKKJkKaiyLTZbqN1SqU7ZGL30d4EHHtjx1ohXZEKdJMcEOaLlvmjlQldOJwIxBOkmhdBzFDpc6SQlQSbtzGfvEyC1XrQO4adwB0trl9cks2blJmXFoWKx2DNL4dUAlndjZjKNCDu1Asp2bCrfxcR3g2n0XgIjedNvBdI0KrLvBzgNXYpVbL3/pUxAXUwOnpAk8H8x5xlsiSiPHGnYOlKtgw1S/IH2mTkkpxDsTM2o4hnOu6yuV7lC4PXBTU+LaoLweotwySTuPa4LPdvQJ+P7a6t77Vg9VzuDsUsnhqVsBpvq7CLdiC0AsQK4ADMepydwCrAQFWuxN+xVXYMsTeLKhtIS8BTAdjBMYRwtv1QIQDwrgGYAiQyi5SSXgJa0wdTJagNF+qswKQBXh80vx6wD9430H/3B4ejqv8C9/tzt7/XTe94fbfw==);lineShape=1;" vertex="1" parent="1">
                    <mxGeometry x="472.6846710271607" y="378.6060841178021" width="49.501385773205584" height="36.016314427401426" as="geometry"/>
                </mxCell>
                <mxCell id="85" value="" style="shape=stencil(7VnLbhw5DPyauRKiKIniOY//MBAnHsSxA8dJdv9+2TtQu8XuKSfHALnN9KhGIlkki+qTvPl2d/P19pTTt+enx8+3P88fnu9O8vaU8/nh7vbp/OyfTvLuJG8+Pj7dfnp6/P7w4fL9682ycvn05fHH8g//XHBsVGRB5fTv5Ykwaf3/yfsL4P78sAHkQjYDSqKMAEYtzYBGCQCkENsEqJlqAoBOfd6hJWK5DihCrc2ATqIA0CmXCaCNmK8D/MSsE6ALZQSoVHkGGHRr7dRmgAlxAwCjOh/JGlnGgNmtpiOU145kdQa439CRlEwjoCNAozpTw4wEeakMEzcARUYLJYkAKwDAg8wDwClRAm4qRmlnRDcA0MGEDaAhftfIbwdkYHUpJBYD0dCRhKpEQEIZJCMjN2QqKKl1t4NQATZIph4ySKFbs5Nz3qEnUsC+7Dv0uQpkGAdu1Gd+N69tHQB4sHktfWtdOAQ0KvOJnCsMnJRJ55SWNWcP16eD7tDAeVbmj/W5wqK09po1ebzoAAd5/of1hSqwl73qzgdi71aIFBwBjRSkvySSOQJCCgzwZikzJRga4I0kzZ3HWxsImBMsa1iPipHWyGmG/uk1ZplvCOy1PKrnmmQwi70q6Mw4D2EFBm+q7ZZDaAsbTWklqTdzEGOrZCHGOO/N68hcTheJAozohcoMeKnIx2FzvTL3NZcoBhKtcWwJvgNqtU1ib3YAkjzNi90c6ReZdQyw6NaCQ63em1sEKPJSHfV861ZwJNUYOG+ljOMQ6O3iFuk83TX/pbvjHUKX8kgLYKsr0xKOZEO9XnNr0EgF6xFNEVDTOORxpDXGYQGAFPUqpro7EpAXLceytxiN2JpGjdi6FYlbG4JoGzgkPS1WVqcGIxt4KKgt+XCKBk210BvFoR6kKOpWPhbFYe+VFM0HKdqA0boT6EuZQWzV2KCXQoYTKFa+CouxpyjPIsMDZ8Ctyw47LsGmq7vA4er924C2E5IL+ZBu2M0YZQ3ltUj32WhX7GgHtyEFAEOt53GQma15bcTXACWozzT66rUjRTFW4XSoawtcAQyp4SlaZrc2POpZnBjcqWhKKlF+ur5FTnV5l4IF3i9AofSfQ0a7UwX4iHcmvzYDSJygnRhwSqpR8UmHHc4FYaysuEu7qC2zl6o/ATb4GBAuV7wjocsVT5ZwfaMM3bof0Zf8QJOGxQTtDbq17u7djCE1/t4oDcDfG6U/4EbJARaOVKCCK7wjUxqxPE5qi9LbBzsIqPH+Y+mSCJCGmlrrDKbrS+1dAesNx7VaGS7TncCKGkSNTdTZhVSot8xwN15wnSmReyI4HWIUfFyHt/u7/2d45+MGc1wPtdWYOdf1CSbb7gpE8LRk8f/9CSrDSwBKBChwEOeYCK8BSuT1ciR8UxpI9IrNrCNEW6ciDdDHpLONGpIlv/tm7BcA/uHlRdzH8/395T3e9vf44s4fXV76ybv/AA==);lineShape=1;" vertex="1" parent="1">
                    <mxGeometry x="521.6195526725946" y="385.2719606996419" width="13.123341272659218" height="38.079926905827506" as="geometry"/>
                </mxCell>
                <mxCell id="86" value="" style="shape=stencil(lVjbUlsxDPyavGpsy/Llmbb/wQxQMqXAAL39feVmHI7knGX6Fog3tm6rlQ589Xp//Xx7SOH17eXp2+2v483b/YE/HVI6Pt7fvhzf9NOBPx/46u7p5fbry9OPx5vT38/X4+T49P3p5/iF3ydcpxAHKIU/p3+kTK39+8+X0/mH4+PmvH5dugV0krIP4EaSDYArpbgPyIV6MIDM85EXASLUqgV0qnkfUDJlMQCpFGQfUCNF6yX9iVoBQObXE1ATJQRo1OyTaqfM+4AWKNobmkxH7wEqG0APVIBb9QHNATQ1ArQhJAuo0EulENsbYggUwBUj1NZNvVACbhJ1e/BW9wSyT7PZvqkxdZAbuVK0AA1+6gAgFK0NmkwdAZjY+lX0SaiC1Gh7w6ggZEOkbIuaE1VQ1Apwbk1MGQQuLxUUNZQgXRXQXDJRAbmkFop9kcy47LFMc8QHSaYs78GZqsVQmvt9lHdNa6G79yfAw53n1+c8pQze39sSgDTL9SJgU4pnRJlR37vCmaA+yiDtlE+CLR3tLhU7qdsgqNUdRFmj4LJiJDZ4Uuk+sbnAOIi2GhsH7rC9ibKuNXrUBjBafy80D0AEw9Gn3rAB1BoLFfFeEmC0PsClhsYBtYai3cqmRuyQL7TcnAiIjSowWjk0Jg9gBCg+DgpAXtLUiGW5AasGJzOGDajjsudt9RJKvpovVBxiMQU4EaCAhgHuSSli1cBLaiRiBNDsXwANlWibFbzpPRHLjLVZwUjz4iW1CgEiSfU2IC8pa/Tq3doxzYTuAQmwxgA4qgywQQwis0/S5CuAW9XotNRDR3FQHZM9QBAJiOfWUaJAlmhqeEHZIFXWRRSPJ4EbVMbX5L0UkLDPPnAKQB1olKgTJgEKewW4HqepAXmJvdob2gd5adFWHwBE+7Sb+SIUG7ktAO1JaBCovqEwwy6queSN1vkGGZ3mDHkGlDka7GmN7BQfz859Wc2oE10B9dm59wDd5RLP0XdvDE02W3EDGk3U2izQqZK9qBQo0iVOWfEu6itiveBpckwN6EGX5hIG9SyrVkrYBE0Lt53Awv6CjxgGQYsn26CNZQMggEH1NmpKCSi1i3Zka0M7U/NeB3Uk1rSBYSIWm9qq9ZHeq+fmtN1OIBI7Ly82+48PlL3rDWPBgY1me4NSQkNGxzkznwMnUEaL+BukfTi0uiE3wJbL1e9wcoaRHgXp5p8GBWKsJDZblerRviT6C1KFOj1Mn2/Oo4Yb/FystF1B5i1Trp5nfN5pQ4HFFoirP5/B+XW0wouMONe12wUuOJ9m4W7Oo06r9LX8fkYEuXTBDBeZxRfNOI9mnkvvBxn9vwvuj8/rh/dt+t3x4eG0jN9+77fv+q/T5p4//wU=);lineShape=1;" vertex="1" parent="1">
                    <mxGeometry x="542.3548295739743" y="379.80582031681763" width="15.777311262849707" height="49.72207498511739" as="geometry"/>
                </mxCell>
                <mxCell id="87" value="" style="shape=stencil(7ZzLkhzHDUW/ZrYZ+X6sZfk/FCHKZJgmFRT9+nsjPa5i1UXPaXHhnXbDZqKzEonHxQWqX8oPv73/6dd3Lzn+9vXL57++++eHn7++fyl/esn5w6f37758+Gp/vZQfX8oPv3z+8u4vXz7//dPPr//+9ae9cv/1t8//2N/wr1e5FGLaQjn++/WDXkLr//3kz6/rP374dFmfQy/39TW0/Pb6Guq6rx9hwve30Odt/Yihr7fX97DifX0NKb69foZY7+tHWOXt9Uv1M3OIuH7k+/oeIpw3xZDuB54rLBYo9x2W3VjlHcZdoIcMR5jHBZ3r7YkSXcG8f3+KMUS4g6Y2sVoYk9aX+x2sHCZ/f1WVZjhAC7Pd19uOoKAemthEQoWOUO8KHaYyOO8M7f48I4fBNnc/b59o02YR4jTd3G6AQD5s+BTIx1c8FighSZiIh2M8Fqgh3m2ireOTxwJ2aXc3aKZm2mGo35hAo0NPNaNmF0OHXqFnFZhwD9m5sj3SgEcygTbdoUFLJiC+bAKlgUAKqTkBsFUTqF6tlEDSYWoXgUlnSIezXNRaIODlM0JfBMhaTUCs1YyPktoWuGupn0H2TYGoApN2SGFJ3jRFky0l9QcTWHzTXR4ph8LGV13qp7Bn/tBEYIREqW2pLVnyp0C8HUjQQg4VIr0dut3VOkqodOgSssMXmdRaw+gqQADGsonfgbKhpZMuZ2gISXZCH04AHKjEkIdqiXzaBJbcg2VEEkgaW/tALZUzw15wauVHas6nF3ncUpi0gzEJDL241tnjDAm6HTC2Vhe9JwuU0EWtjMQsLjWJGhlNY0cNFwQKe5wWGD0MeiQTEPTzJAjkB0FgUAYqij+3edMO9bjXi8AiLfUj718F6NBLkYAJRIhLJSsmNo8jLZV2WP8FJE6w1rKOI15BIhhfreoP25bAp+vUYGzmncDjWj4qo1PAYCMVDkPTbjNbgnswdxFwUkeI8EgWhfr9HrYawPi2Eu+HrgltydxFkECNWFF2V84Uu2na4UyBVwEwvu7QTGGwvtXaVaCB8VmslnBvh6Zwbze9kqqVgoDF6nGPGvW8yscCVqPe1Vo7G5+L3nVhnjaBdD+DGTyh+1ZcjjMwwQIehlJCsQcQ7L3DPZjGdlEJ9xP9YT+SBOPE91DURZ8gMlNrFYDVMVTaTasAIwHTuiIyqx3pkeZRhF0ECjtQcY+UKS5lBesbVRKJU90ZIpIsOy7d78ECD5XHfR3B/VpPE20SdYcWWSCrP9R8gInHAkV9uhS8h63E+z3kdmS9xwLtqEdOcmwg/DGBcb+HlLDaNQFB9x0dztYLS1GenkBs9WAs31KR4AY7wIKQYQJCaqSJ2McESneXQEeuhwbPIzN9ZQLC2O30w48ksNhwA5Xrw0HKxoWoXUNxYImimAU5wdGbQSAtDQ2sFkSo6htLY72lbeK7Zjpyx5UrAv+cWYlKi80Ex6ZrN1hCInJ8s/Nyhog04hx6Dzur0xmmww0TH2nFgyS57gD3sJI7NGf1lbVJ0RI3QYr6dGNCYLUDGl2QOmHQ1Y9kc7lpoqTXUFi8awFIcMtqC3cGCqxrOo8zNMQ7dCdA+G2tw5ivArTDUtywzZu0tJQQ2ACNBaaLS+SiuzfkbpqC8RYQLTF9tQWcaRBLvlwPzgBahXBvApLiTICalCaghPE4sPtbpqHm/VSgzu96pHm0uH7voadjyRtWTNvjqgpQMN4CrlxH05guajwxvqmw+BtF8JaANlCeONB0Oe6pi2bncU+CQHM+jWFmKUJ8FsiWwxoVL+7Sv71IPHE53aIhVP9+gX4knEvpmunUTWnBdirusUB1HjTZITwdZUUZ5d30KMnBDnMdWr9cNUEBQycajZ/iH22jFqzidmt86Bmo1p1FudDGExcG+rJwDmfb87FAPLrjl94Aln1LEZaVrlhxDGd8HXn14WCl7UAkxa4HRIB7/pv0cN1pGirYta4LGxRndmfM1TSdDl0ekHaNqumi8b5knDQZRWsaq/yIeByufZe4zzRcbyBxJ2sT+3JxiGZ2aXk/c0bKzixJKDvu6HwbLfn2/XjLQ0N9xwEB+37pI5iCUKNdSRkr79EV3GRHbkhHm0qFASkV533szrRaLzg0NrJOjbWE7fsRH8y/UOu7nzMQp8DAfLjJNmkAFezGW0wUdnlHNeYcZazIAi0ys65g2qGcOXiJYSZASGZTuXe1zoT+v9Pl3ZbGZCo3Oy1xim5+oiAzHZ201dd5nMUENB8WTKD7kRwvg92W9AjZM8uvmDVyt6U41qQf1vU7b9pcFGf42kFvX5IPedwuwCRqPJlMnVpWlo4Xt0n7+6EL85Q9KeFtgWzAxe3OXVUBjBpVY2vh8d2Nc5Z7JNphOoGGuGTPKgoHvxDY70kRx/ITPrQzSItp92gp8lWFGbXzEHLSqFEXd+7GgcovOJ2Kk80Ou/KegvHmDN0oCEU+04nOjlR8pOqGr+wqGzxSOdtuZ6hMaBqGBsWnN8/OYxTSjTf0gTM8Ds2MyfMvVWuN3eqjHbJ2gffAOU2cuUmnwcaXliK+UZH5MQGZQ9qzIzSX5wbINlzhyb8saIYfKXu8lLCU3lpy5Q+VofnkeS45jrJorm52pPBYUdPeoPk0qTUP9YfGMwt5ujydkfMuUTvZ7RzMfiyQnJYq3nTJDyaSidgsrkjctAztULRfudtSYEsmIBS2YWVy0VLcOPxEUnA/krREE/YTTUB6D6Nie7CcR7wGAb44DZWTB1sdAWfontRqxpc89qbJv66Ew+RXefZ7Hq7gwDFsZxozYm96D0mLlhZqacfWqGpN9LLNfFQ/QFxKQ5miPf8CZ0hutrBze9B2kO7Gs7ntqbb0hGr94z2GQ+D//x4D7vDHewz/yw/4HoNrl5sAosroHKgwIvN4qeAZkqtFOzeNUtPpxc7QIdUH8/M0h5Rcnu7coElZc1w/W/SPBZK+VGaRj6jTFF2orEcCeCiwtBQdExmv6fJPxhmEcYw0nOs7Aj5X9M2FuWEoB7KYK576KunqSIFMBayrIN0wNeKtyPM+2p2dg0eWdH5isp917Y7tiSQixty7xR17ufURxUowz4G2iPebXRtqIg0dXaTj96miprQ+sHcQD3bqXM8knS/aeOQgOkqCu2iuC71DEJ7Xr6daJLoJuYrQK7psWbFIjY+IW7CH6F6K4hgd3bs4PC4RXWrlXu/3/jbA8/X2x7cfIvjlw8ePr79jcP1//eEC++j1Rw/Kj/8B);lineShape=1;" vertex="1" parent="1">
                    <mxGeometry x="562.1202515261134" y="342.6682639817633" width="133.45087922500852" height="58.33917907416139" as="geometry"/>
                </mxCell>
                <mxCell id="88" value="" style="shape=stencil(7ZjLctswDEW/RluMwDfXafofmYlTa+raGcfp4+8LVqUqQtaVvesiO1s6JEHgAgTV2Ye3/dPrrjP92+V8+rr7MTxf9p391BkzHPe783CRX5197OzDy+m8+3I+vR+fx/+vT4Usv76dvpcZfo7jmKwrg0z/a3yQDYX858nnkT8MxxnfU4wt78g5xDvb8p4ynN/6lg/EBvEmar6PkO+1Pckinhf2O8j3C/8kuN/eat7g+ZX9ljzfwxuKHvJG839nWONVvERR0B5W9oiiYHw5at4EGN9WzylThvvNrO1PQD/T25n/DfCPpZAW8QV8qN6Y6wfslyd337gAR0qsPRqA4owkbGhd6qEkrCfbxjhGsiDGztfXdUBIVSZXB3hPoVWdj+SBl4Kn2MrC4bISvc4DK3UO6CIZyu0KEnokbNGlqhTsYSZLXK2KA/Wg8uZYhTNZRCkBPlNsS9FUm9Z4JaRtPinegMwUXnlUdAoiUPh2foaVgvtFbWTKYANXBhiYOcWiNsRSK3AEshIdJSCh4tE2DRzxRoST4i22P7LikUeFD07ZnzHvk+Idtt975X9UGwuvcpJ4g2/nZ5jzS/v7GpAb/SPdDp4/LjLsrvj2sFAv9SOn7UZGGsXDirXQP9du4faMjOgsu5aRDu84a8VteDRrRQesoKQzbGP+pDMMdU9387FWtOkorv3U2hmj2nU29YKwdopx6yDOsGYlcXi7g3KMAVGUk1iFLMEV5KxPrSa8yBR3E7EdELjKZLVfaXUdDWw/SkfUJlpiWCmkDVS6FkcHsOnS1al7nKwJ9lD6RtVoSiiBlIKuRbPkW+t8g14gACmxDpvwqJ/4uFl+3Cz/75ulzy2fKIJ4ce1NJj5Wxa7w2p5Yn6zw6qJYeFQhav2Y8Q7a7xb2oBrHdbaZf1A3yuSN5jNqDnQzl6b27ja+6AGVXN1cCo/uV1wPoZmeN/yp6qepR+cav8hHB+2/78vfNi8//n1mfBkOh/Er5fy9/iwpj8ZPmvbxNw==);lineShape=1;" vertex="1" parent="1">
                    <mxGeometry x="351.1595201447176" y="417.5817673092074" width="323.10625129996424" height="34.67853194226109" as="geometry"/>
                </mxCell>
                <mxCell id="91" value="" style="shape=stencil(rVnZUhwxDPyafVXZls9nQv6DKiBshQAF5Pr7aLKxGfcwvUlV3vZwjy2p1ZI8B714ubt6ujkE9/L6/Pj55vvx+vXuoB8OIRwf7m6ej6/26aCXB724fXy++fT8+PXh+vT96WpZuXz68vhtecKPE86LywsouJ9/fggS0u9fPp7W3x8fVutVfJjXF0lxf32UVKf1tmOo++szPj8kCWV/fZEK65tUv7++SXHTeo2i5PneS5k30CqtEUAUNwNi4IAscXZRzBIyAbT+9wBUqQQQgigcqUljgIRGG6AQVphbIwCKFOJWVQk6A4wpJG5axKUZ4MQTItnfCSKdxJEjRZU8H8msyo4Acs+UAVAaBwsTxMHXfsj3AeZ1PwPskMRLyXUyd4A9gXDPNvBt3sBJYycy8sOJEndS7ek4nGQCE+iR3GyCOsks0JbwQCULPTE6mebNRtsvTMNSQBtyEE8CnaK0mRnFSyReSgU1oLTO9/dlchPomugOWXsCD2ZY/igBmK7PZG0qjnDPTARpbVECcWvJmA62QyJurZti1bxUEmnzSZ7dWnk+2N8tzoBCM9ROnCPGwROjm6n9HIeqVO1blTiTz9zQCDW8c+LmQFQjMDNiIzO1SuFGFJCZSuXeAAki17hfTVsbAhqRDQM4vwEQ2Wipm7gCZMINA6TNDqygGEAjesnzHQIACs3RdwC5dx+7R5q10nKUdQKL0ZukPmN0gR1UIucSsNUAZzIIqaHcrUa+hABWsxZ6ZzRaOfmgKjbetS4ASCATQxaHjMJk1IgcAFVxERKWDxnbH6N34G7VTYrS1tt6e+gd3qRqj0xoxCj2u3StCFB2JkuIim6iwjQCuwrEOQDYMBy3CwC/2iH5DhG4Ebvy/CdA7Q3VKBCWImfIBFWOzwOWkRBpK8WZ8du6F5CNQDsmq8swKS5G827DgwpY7SaBKyOFV1wKJHDWMeWAANZ9W0+mYHTp/cde14clKFJAaj2ufxmHlHFUrLxNtN4Y9L5E2sRZcw5NXE499rtTE/T3SovcMpfNOW0jO53LCvZk6nvZ2xsVG8yWvgv63g7gJZv82FATCxbqTL1qNkfYQCrJaJssoa5z6U6jMx9BoBJj62NGgz0fdWE+8aU3N7uj67zD273IXtBwdC18vo+oSap8/B7D9gA0ehulZcPUSC8E7AB4uWRNK/FSaFhBbfpVQoyw6aMtwyPbYcz/KwAb8H3tjfwqn9m87vNmwHe9QXsfoMglSyfmVu/xkiLyI407w1WgHaFSwUtEjfyKAguDOhpmRZm3J1RCvICCF/gQ6jY3XZmmjtvcQ405eWc9RNgnOh4Ob6zWs75wM0L7SMugw+nTRyqPDvljFGRZ5rAX8aG3MzvrQ8X1TFgc3t/aekf45lAlLCN4fOH2aVlP+Ok214yelvB/fY1xfr19eHtncnu8vz+9cln/j+9Y7KfT+xm9/AU=);lineShape=1;" vertex="1" parent="1">
                    <mxGeometry x="635.1007603122789" y="41.209072404589904" width="130.0794792363995" height="32.915780453797595" as="geometry"/>
                </mxCell>
                <mxCell id="92" value="" style="shape=stencil(lVjbctpADP0aXjXa1V6f0/Q/MhNSmNKQIfT295VLFyMZDs2bMUe2dHR0Wa/k4X3z9LZeRX4/HvZf1z+3z8fNSj6tYty+btaH7VGvVvK4koeX/WH95bD//vp8+v32NCGnq2/7H9MTfp3smFqbjCL/Pt1oQiJ/73w+4Xfb1wu8UKkWzxTqbXyhKgZfC7V8Gx+Y2BlkCgEYCPVkDSox8ChUCi7kMN551UA5CmwNCjEDg0jZutSZSgQGibp9Qw+UOjCoVNm/gRNIWySJPoZ/NFw3aNQcrR3mIRUSq4zSqYAYcqIUjEFuVEEMRWm1idN3dpDpyt5AlGjgkiqnZ2Ogeq8g6JaIrUFIJEAaTWl18oasqg6aTXSkhvDi65kpAn96H9U+41H5K97VvzYQkALFO2UHKsCfwDxKaw44AVFML7AOCUyA4h2haVT3LXyODl9B/1J8KFbVsM76WfMzXtDzmy/kTBHxU317TNQKxBePj8ifSik7/hMSRCXpLr8FCbqOx80Cqnf893jUqyd+rD9MCbTqiX9fYGjaKN7pjbE/nWJw+DsFnH1BFlyQrgEFkjv1ZeONFLD+HZ9CjPjso3/MeLQfTA3I+p8oIz0on9b/fDdfHi9YD8nXO+w/jdjjGen/o/g89oCZn4L4FD/BCuZzsQwFvNu0cz87G9SxWlwfwouM6YxEM6kG6lYSurygHlF0ZXSc8hj811eVTM02XX0EykKqY0qfx3wa69F1A/ZB62ohYFURWWyAEbIU25hbZ4OKd0wddK6TMu5d2kocTdN6AYZf0GZqE9G1mtGyX8Zh40yT9hugPj0dFBv1tLsDbaias1v2IxyYjaIVnx6gCshD9vNDHYogAh2PxUcMzxIUlwyh49BotxcnCXjeGuPxP08eYRTKhT8V+MOLhHXYUNm3F12x0QDU6Gx/bLoBgHh5jK8LPBogi/11OmiBMlO800OGdcyL/KZx2ryBd2fRhgfsRz8I3Mfrxfz14WW7250+Xlz+779W6K3Tlw55/AM=);lineShape=1;" vertex="1" parent="1">
                    <mxGeometry x="-62.10833342716978" y="37.224930113070684" width="73.89066892874735" height="36.05148571916817" as="geometry"/>
                </mxCell>
                <mxCell id="93" value="" style="shape=stencil(lVhJchsxDHyNriiS4Iaz4/zDVZYjVRTLJctZfh9MJhyJ4KhVvo3lbhLE2uSGH953T2/bTXDv59Px+/bX/vm82/CXTQj71932tD/r14YfN/zwcjxtv52OH6/P899vTxNy+vpx/Dmt8HvmeZI6kYL7M/8QmVz698vXGX/Yv17hI9Vk8QngCwWzfiIXb+OFKvf4QjXcxvtAMXeE5IkLICRrUUokHhAqhd6k7CkCk9Sn3hAKRQEEbgY0QlGnOkDIlEpPkHaqdUIlCR2hRvL5NoHdQCgt8usEtgTRyIBA8+DWWskBk2Ig1weuMgXgVs0cQygZ7pB0vT4OOVMGcUhCIn0u6Q6AoOuJSe9IBZikiVBdR+AI67M68n0ctGQ9qIeaqPQ7aIX8r8H1CnUUeoJQBPUjtRV8w+sCoHwUH6vBI58q3vhU8eDAIsTJ4KH9QrkPssf2iK1mTwU1JLecbwkZZRQA3aB3qHYLfIDS4yMxPkAMBi/YHtfjEzEOsOleiSJIacV7uz5qdlKoWPtR61L8cN6A/KMzzfqfQR+a8Da+MF6lheeSQBnbn2xCo4GmeHEGz9j/PBQYGuGVylDAOD9N29UGgQs42fULygexmsXDcSxDVw/E6LxiNRTjBidN0VzyDbX06by2fgu2xxtJdM+ez+H90BC5Zcj6iNECMAHQloQIvg3FJQK1zfL1MZnszGBMyHXoEZUqGMSq+WofhKxVg8REamN3UR++uWFdrgxhUDd4cAaVDlZBCWxccbF4mdwJCiIu5PtDT7UNdlBxYiPt8PRmDbXYLSrIbs0ENjYF2N5VLBuCCk2kuaZy7HNDhSYkeKsoio4sfKUwFV3CvUtL7iOnSvLOtci4dUpg4CXvhiagYxRe7EyTTxFO8dhE1oJ3lEF2e0r9AbQ+BB3AlpviUdCcdZDiGdjj7D1zahighzk71BTvQV67VolXF1+UEoNojLkl1S28ubir8Ac5Oqh8bTcCMs61294VPkD/mBYfmTIqAXupVjxSCd6KoulhA+TDZx9C7uP14/Lq8rI/HOZHm+v/21ca/Wl+4eHHvw==);lineShape=1;" vertex="1" parent="1">
                    <mxGeometry x="-72.31357651750568" y="127.87115593970071" width="62.40049073410819" height="32.10414098223947" as="geometry"/>
                </mxCell>
                <mxCell id="94" value="" style="shape=stencil(rZfbjtowEIafhtvRjM++3m7fY6VlCyqFFUtPb99JIwc8SX6K1LsQvnHm+Nve+KeP3cv7duP443I+fd3+3L9edhv/aePc/rjbnvcXfdr4541/ejudt1/Op+/H1/H3+8tADk/fTj+GFX6Ndky1DkaOf48vaiLJf998HvnD/njDO0qx5yO5ss5HSr7nA/m0zhdKqec9ubjOi1AyATBlZJAo5s6gRKoBROxJ+i/kQoXXDby65DqDVKmAnAYhLp1BrJSAQRRyoTMIpUW1aJDUJe4MfGqFXzTIQqGPweG+KEzSuyQZG2QbtDA54FJ1rUxT0LAMtZDrQ+BWyDU+VsOzg3wtj/C1Nf4/+jP1wJWPAvli/a9oEFj97ZtCiw5GUz9gAnZtgVWHguEDDjja9Ste3/VapJMKpEgLVpLhYcMVCtnyQCiUFzE8bIhMxZt4EyiY8snmE8abrdLJg+sLicf+2wGD62t+2PD38m8HhlF/an2j5e/0TzC84AGLdiA97mdTX92ZMG/mS2B+Fge4YAWqPe/IowKrAtmBzKjhZgrnW8X/Dx/ajjLtxOQAX4pdX1w7XiwbiJ140ZqDkc9uNsIFinTyrYWnkDUJaKvXlPdDpps/A5eChtirUHJQtrxvSZyy6tpOuHwgClT7L2je0HFFSgtxMqhQWcRT7F3S0gfUebaxB20ChY6zU2+Be6WfnWJVO8D6YjM0jB5oC5kpNWPtEnu2uYrHIs9UiuULCJjtVjxoAQiAm5DcJgj6Y06Lg3hDnr3lA+igmTJqQ1RQMLZjqTw6q7C9EyjPMJ/B+JPgyLA9+ymPZOLRa9x9Xh+ud8a3/eEwXjlv/7d3TH013k/98x8=);lineShape=1;" vertex="1" parent="1">
                    <mxGeometry x="-70.63413582937847" y="176.83816568352347" width="71.35428215909224" height="52.593563818950656" as="geometry"/>
                </mxCell>
                <mxCell id="95" value="" style="shape=stencil(rZrZblw3DIafZm4F7ct1mr5HgDi1UdcOHKfL25enxjke8T/+OQJ654XfjMRNJKVL+vTj/sv3u0v0P15fnn+/++vh6+v9Jf1yifHh6f7u5eFVfrqkz5f06dvzy91vL88/n76+/f79yya5/fTH85/bJ/z9xnmX0gZF/8/+h1L/+8Ovb+KPD0+TeNPiMXwsHlzU4t4z8VYm8eBG+Vg8ujQm8eZ8YuKtz58uHxA/lk8u+lm+u0I2m1xtk3ws9PPzrrpdPh37/0C+11m+u0rWU/b/7vK5uEHWU12ejVWCq8RazaU8y8snEPm+a+OQ764T+eHS7A3Vu8C8x7usAFHoIEDYff0AkisMiK7OHlcL3XJI+wIOoLnQCSBGVkB3IxNAbDp7XfO7H54DEiSzlpqEAQO6C7PdWnae5Igw9i1eAcwO70nkAIoLxLO3vAJAJEuS2EeAxeYW/BEA9g1Zp7oNIGqV8Dz5BuIaEp8nAFNrWwX6rsRbgaFD2gCS37d4BbAAkpSYYUkUiK6AHSiQ9iR3K5BdzUuAJOK1PVRX17TUdF6ygO4aGI4Cw7W2AmTvxpJac3R+aQ857QF5KyBZaG1JdXVJzZWyBAznl3ypSHm2ZLgial0D0uo3lL2muxWorqwBzY2leChDlzIGUFe9tcbFRCaVRV8KoFoW3bvW1W/ouva3gKEraANoASoBA4iLztdErWtAWYy4Vl1YSgJNjt0lO7SuC2kLEPde2nT3utC1gKDrVinhMil/enJB7SHREq7LKaqcj3cbvep2TApdT0q43lxX7UDnmx7a+SSkGinhhri36h+kbiUd6JAWdC5Dt4aDtUBZ196SeGjPBFlDAPoNR892BbAydIB7V95GCzCwLSMtzehgB/FftiTJS/Om5QAIbEnD9ayBwQwn/w5605G5hgDgGoPZQQAVcdLOssbP+7Nzl+9aHaOSF5KxpllNErWsP970Om9iC0Ku1z7rVYKwGqbOGmAzIgFU8d351GQDZrX2wkNu6KJPsmfndtAtivTkfNMaiCagQu4Y1ty46Zpou4tq3WKU26FByLHRIbrGVtXxTevRSbA2rdy7insbQT0HkJwonU1CTmI00RnfSRo4WrUbE40cxWwUgqlMTtZuBDWEXORBrdLx8HvR9T8BcEJsQc1iFM4gSUyZ2QFOOdHSYO4q5yiodTBngpNaluSZHaAWEIANW7DaEC3RtAH1jFiaOV+HxCQfwdLGdhwoS8fd4W+s+kQNtEyEunIcBfyHlevsGmL7tlQbj0G9Favv9yi/sb63AOggLADc2wKgC7IA6LMsADo5C4Be0QKgGzUA7HctADpqC4Ce3QIga1gAzB0sACYbFgCzEwPA6YwFwPzHAmDCZAEww7IAmJJZAMzhLAAmfQaAs0QLgGmlBcA81AJg4moBMNO1AJgaW8Cqt+Lk2wJgtm4BML23ALgfsAC4gbAAuOOwALhFsQC4p7EAuAmyALhrMgC8zbIAuC+zALiRswC487tqKc4JuFY0Cbi5NAm4HDUJuH9976XOAbjhfe/WzgEPheLRt5z3ZsMFiGvW/W334GpJnY50tpt2FUSNTsq2u3zlT4V2i/haYGT+HidBRXM0CedAhFQjlmEPGOBNxTagYWo9xlxXXUpnrZl+FiLy7FmI1GTQBTH5BvKNDuKqfoXUC30eUWBcFGm/kWEUzxWatZu2SifACYZLgc5Ck/ZqKWLZk5a4+8sxxyn8VY4+DfOg8wmo6qVMYUN4eMImVQp7NgYv5KRIqWQ9koiKlmf+4HUeyoHGsNf2TZ0OfPz+7Yd8pg9TvC5U46C3IDDi2jyWZDmQD8e9y23rkayX+XpUEt07oNvUWejBBNZKhvNE/aKRxcrya0xDXH54f/j57eHx8e3d6PX/9UNR+dPbI9P0+V8=);lineShape=1;" vertex="1" parent="1">
                    <mxGeometry x="235.49422337897522" y="175.0505529682066" width="397.31753776376763" height="6.100176820035472" as="geometry"/>
                </mxCell>
                <mxCell id="96" value="" style="shape=stencil(lVfLctswDPwaXTEk+D6n6X9kJk7tqRtnHPf194WqoWJA5npykyWsQQC7ADiFh/f909tuYvd+OZ++734fni/7KXyZmA+v+935cJGnKTxO4eHldN59O59+vj4vv9+eZsv56cfp1/wPfxaco+ZnELu/y4vqKcX/b74u9sfD65V9oJqVfankytg+k0vaPlEG9o1a0/ZMLY/tvXyuGhDIOQDINmIBZBAxe2omhEg+AcCakSsPMYCcJgrGgyfnx4AYKLEC5EwFABITaw9ZPIAjyWevs5QiFZCl3CjqwsVCGXgomzqERhkUrgbioAFyyAoAlaIOWtibG+AeU9DkFrIgarTUs74CXOfvbUDtB+gAB5Mk9s3aI3K3RmztGQXQKGmqegoM7avTNSCPzi9yjppGnSa3xenW+NZ+dNdBthWoOENVS8cLrzAg6xP5RA7VuFHQPBUWMWp5rUvxmnZAzcKKsgE4oAQBRJMlrGYBsAEwFUQMKVO0dYDME4CuQ6EE+vx8Il2G2NvyyN5ombH266bM5HDA1SrNo5o18hslo3iln1ZjXzGJDCe413woHG/yme/Ym8F8r7OYuSwvsJCr6UTc2/dQl9qBcDphD9EoP8HV4vOAbIU8tzuUJLbjQEYa6i0y0oo+Uqi944+GpqFRTJBHpVhdyuBHMcjgz1pomeFMk9XC7iKYGrK8BEO9DLkt61HWdajc0zBawKIBYHbPU0mrp0m7Ax62S2TzfZMerqm6DkKWBBqMjDFnAAEGLQ3a647XIgUwCbOtm6w/HthHOxJEH4xCth3+Y7jftHd2t7jaHgaAsnGQoH3ULWmeo0BsKwVW+wKXbNdXm6uEMiixs+1FKuzBjNrsUkLSBuM1/y/tJgMGOSuCmvs6OcqPJlCNvSKj/OsCSzfzMP+mE4nscX4+d/e9by8PHxftl8PxuNzTr7/bi7m8Wi714fEf);lineShape=1;" vertex="1" parent="1">
                    <mxGeometry x="848.6467803667724" y="112.69290766786241" width="90.59009134921462" height="10.255323165833659" as="geometry"/>
                </mxCell>
                <mxCell id="99" value="" style="shape=stencil(lVjbUtwwDP2afdXYlm3Jz7T9D2aAslMKDNDb31fpjtNYTg7DWzarE+tyLB37xFev99fPt6cUXt9enr7d/jrfvN2f+NMppfPj/e3L+c2eTvz5xFd3Ty+3X1+efjzeXH4/Xy+Wy9P3p5/LF35fcEy5LKAU/lxeRAr678WXi/nD+XFjnqmkwVwptmPzSiWOX7c3+djevqaDfUqk8dg+BmptALC9AQvETHX0KAeKYAWLOIwRZyWWYwAXajwASiGpIKVKkgdAjcQJJDWSjDWrFhUACFMbY6irk/tlyL2qGwDKUovUnEup520fIJTHoIuQAuK1SmlcoTAMenYpt/6J/aAL6ehSLlRBlkR9pTNTAbtBzCX1gIQqXYkdwCodAMCy7oIWqsCl0ohdWhNsAEUpVF+4Cqhhf3tqMCSfuRRkAEigAlyqwddBBMZgDtSR3ppIUBurfgUVEhC0ecxjloyOGZBv2aJjX2q5t4V9QCMd97RtKQHU0ECpekBD+8GyPtahKSWQVgNI9IAKWqUBqnOpdXYdAVzXMEBGjSx4thpA0J5uU9CtN88jQHAjLtiioBDWNtzIXZZA3JA+0rZBgLwaoPCUJtSYpBd2A4iIfQYIvtSQrkI8cYNx0EU9IKAtp74Qy4ZALumUJYF9Zil1mwAohka1eEBF8se0yOSSvrMhpixFDKgTACqy0LvKBgC1Q9ghH4PCLY0peADKkqVVpv2gaD+0nRUa2g/aB/8WgKhhWZ9WUEy+DwLi1Ppqn/X7M0t6j1gBCWsHE30jW1XhZLe5KyOX1E4ToA6LFJgGdQEulerFtw1WRdohkzrhug7WfUCh4NS6QJVY1gPMCohQw5mc0XEE5drpuJ/WQmmMIScs71Pv1Ssg9k512GaCB6BKm9pRB2C4gUy8uL5kpxzEVmN/cmk1aQwqvZmyK0Kh1G3cZ+CGG6ht6HqqWgECfZKV/itAoZ6pU3M1pVlBmkzNx+RjQP2e1xA3/GaQJTv/OwGUsWKK0WfJTtTovGtNYIyZI+4avgckzAz2WiZWqOCiv3NQqNQn2kWoY3bMESPWy4huHqDSC15VhX7hcmBemjNn0Immc9UqTw4Syd48QHM3xbFsTp3nG3MwL1NXZhvfoblOmQGJ5NmZAinJ3lxBqB+8k3vX3B7+X//dnR8eLreH2//9daG9ulw18ue/);lineShape=1;" vertex="1" parent="1">
                    <mxGeometry x="881.2562246953419" y="763.0660973911325" width="0.9105962098296905" height="1.3021857250772935" as="geometry"/>
                </mxCell>
                <mxCell id="100" value="" style="shape=stencil(lVldcxs3DPw1esUQBPj1nKb/IzNxak1dO+M4bfPvg6uGV3FP2iRvsoW9I8jFYkGd7N2Xxw+fH045fXl7ffnz4Z/zx7fHk/12yvn8/Pjwen6LTyd7f7J3n15eH/54ffn6/PHy9+cPW+T26a+Xv7cn/HvBVSljA+X07fIPM9Hy339+v8Q/nZ+X+NTX+CJV78fHt7bGD0mNxXtd4j3T+Cq2rsddmt2P1yQFAF2sEoCLrxmUJK0TwJCiK8AkkyVFzs1XQJmnchOwHVFaAU1avg9wPQCGOHmDD6krLWoSJ2+IBYyGACXbWot0SLpLJsRrJgbb6tLJknqSlPHgMgPEktYcgkuVAEaaVNvJ3cVJMQxHaphKI+weFakRZFEGaKLrkrTPrG4DgnwrNdSkJALI8+sJGJJJzj2YAfUjnTy/Z9E1ZRMn8a2IrevJnHixHoV4YwITgrGu38WcVILhkXVRVpttqslPHoDbfN6eQKKV4wk1e1sSSTlYXEHkqwyypwEYoNqFsi6WBG0nipnpSyTt667WTGnnh0KoQ5Q1KhVblxTMSkS2Q6QHAIYM1jojaWCGSyJUCo2EHKKYGPfqvoC9NuPsmaiW2Zl2QBYngBBVXTUyNI0CyjzXHVApW2MBBktq0sk5BKAVBAzSoIdhPYxOG3QA8kBAYTnYtBRXgMEaQ7wBlhSqSipuy6EgoLCkY5cUAax9BgCTHrPH3wbofN4uZCnYx1qJTuW9fgXbpjQP9grAjE8A6iEJRtcAlIwAJhsbANphn3y8uyRHADUNkfThDXRJeiBTm4+4B2gZAY3Yw+CGHt7AmnoA6uENg7MPT7pPX3C3go7bygFWEECTDsCRGlwFwMls5OM12g8AyqWMs8lWQEzJFLf1J2r0WBDMC/wyIJpgPohlJtvU+uwHVy3FSdYxOoDFiqbFZr4aCwBh0nk0twGGBdE7TTqGHZC+rVES9oWtrADQyfjbBih2CexJpbIRw47DzMcPzg/iGp6skzdYqMp60uH6GskhbCfMreErmWxY2M61qOMRlY3Su6HavXGbLu1u0jAv8fnH9/uRHZAlMWpktCd1Cs/t+IE3Gplah7pr+4znk3p4xOEQzxSjG/JIuUMcOJCFIDBFctSwPllyO75jh44Bixn7K0m8GqKp9Rk4I253OkyH29zynad5zlx329uqqsb9XuiPrpXglY4C/dAaYiIapBKaY62VSsu/1nnXcXVHxCbd0rGBhsCwpH2g8wkAcz5RzVkRkJjAKJI1cjB2uec4w23ST3ZJ23SDV9uaiISposBsVxBMANBPbqMv2aSDUYrWwlRbJUE9V7qnh2pzna3rTryDxnd6XapTTvZ4p31NUR+jNgs7MRy6jV9Z5zn/Xl0CstoPZagYz9yLHbRF6Q2Uofu3ROdnx4vYLZ61TDQisR7Gh4Km1pQ2hHLj+cxmV/Sb9gNzd7i0zfQGo+Kss2k74eev/wTzo/j48P/vPZ/OT0+Xn4uuv8ffh+Jfl9+W7P13);lineShape=1;" vertex="1" parent="1">
                    <mxGeometry x="1043.0958897110231" y="346.08056986534757" width="95.42710682358532" height="123.26176871997652" as="geometry"/>
                </mxCell>
            </root>
        </mxGraphModel>
    </diagram>
</mxfile>